<svg fill="none" height="48" viewBox="0 0 48 48" width="48" xmlns="http://www.w3.org/2000/svg">
	<path d="M32.3701 28.1211H24.4101C24.3825 28.1211 24.3601 28.1435 24.3601 28.1711V28.6111C24.3601 28.6387 24.3825 28.6611 24.4101 28.6611H32.3701C32.3977 28.6611 32.4201 28.6387 32.4201 28.6111V28.1711C32.4201 28.1435 32.3977 28.1211 32.3701 28.1211Z" fill="#0B5FFF" stroke="#0B5FFF" stroke-miterlimit="10" stroke-width="1.45" />
	<path d="M28.3202 17.3908C28.9553 17.3908 29.4702 16.8759 29.4702 16.2408C29.4702 15.6057 28.9553 15.0908 28.3202 15.0908C27.685 15.0908 27.1702 15.6057 27.1702 16.2408C27.1702 16.8759 27.685 17.3908 28.3202 17.3908Z" fill="#0B5FFF" />
	<path d="M31.85 18.9707H24.8V19.1207H31.85V18.9707Z" fill="#0B5FFF" />
	<path d="M32.2901 18.5308H24.3601V19.5608H32.2901V18.5308Z" fill="#0B5FFF" stroke="#0B5FFF" stroke-linejoin="round" />
	<path d="M12 12.1104C12.4579 12.1104 12.9057 12.1546 13.3398 12.2363V26.8809H19.5391C20.2357 27.4734 20.8649 28.1456 21.417 28.8809H11.3301V29.6807C11.3301 30.3583 11.8829 30.9111 12.5605 30.9111H22.6641C22.9795 31.551 23.2434 32.22 23.4512 32.9111H12.5605C10.7783 32.9111 9.33014 31.4629 9.33008 29.6807V28.4307C9.33019 27.5785 10.0278 26.881 10.8799 26.8809H11.3398V12.1416C11.5573 12.1218 11.7774 12.1104 12 12.1104ZM42.4902 6.30078C44.1529 6.30099 45.5399 7.62936 45.54 9.31055V26.8809H46.0205L46.1777 26.8887C46.9567 26.9683 47.5702 27.6317 47.5703 28.4307V29.6807C47.5702 31.4629 46.1221 32.9111 44.3398 32.9111H24.4922C24.3015 32.2238 24.0593 31.5551 23.7695 30.9111H44.3398C45.0175 30.9111 45.5702 30.3583 45.5703 29.6807V28.8809H22.6436C22.1623 28.1625 21.6155 27.492 21.0098 26.8809H43.54V9.31055C43.5399 8.77219 43.087 8.30099 42.4902 8.30078H14.3896C13.7929 8.301 13.34 8.7722 13.3398 9.31055V11.2207C12.9038 11.149 12.4563 11.1104 12 11.1104C11.7777 11.1104 11.5577 11.1213 11.3398 11.1387V9.31055C11.34 7.62937 12.727 6.30101 14.3896 6.30078H42.4902Z" fill="#0B5FFF" />
	<path d="M22.3301 12.8809H34.5701C34.9701 12.8809 35.2901 13.2309 35.2901 13.6609V21.8509C35.2901 22.2809 34.9701 22.6309 34.5701 22.6309H22.3301C21.9301 22.6309 21.6101 22.2809 21.6101 21.8509V13.6609C21.6101 13.2309 21.9301 12.8809 22.3301 12.8809Z" stroke="#0B5FFF" stroke-width="2" />
	<path clip-rule="evenodd" d="M16.4399 24.9793C18.1203 23.6613 19.2 21.6121 19.2 19.3108C19.2 15.3344 15.9765 12.1108 12 12.1108C8.02355 12.1108 4.8 15.3344 4.8 19.3108C4.8 21.6039 5.87199 23.6467 7.54215 24.9652C3.12138 26.7322 0 31.056 0 36.1109V39.7109C0 40.3709 0.54 40.9109 1.2 40.9109H22.8C23.46 40.9109 24 40.3709 24 39.7109V36.6309C24 31.5154 20.9514 26.8459 16.4399 24.9793Z" fill="#0B5FFF" fill-rule="evenodd" />
</svg>