<svg fill="none" height="48" viewBox="0 0 48 48" width="48" xmlns="http://www.w3.org/2000/svg">
	<path d="M19 7.68401V12.3179C19 13.2492 18.2947 14.001 17.4131 14.001H3.58694C2.71568 14.001 2 13.2492 2 12.3179V7.68401C2 6.75273 2.70531 6.00098 3.58694 6.00098H17.4131C18.2843 6.00098 19 6.75273 19 7.68401V7.68401Z" stroke="#0B5FFF" stroke-linecap="round" stroke-linejoin="round" stroke-width="2" />
	<path d="M5 11.001C5.55229 11.001 6 10.5533 6 10.001C6 9.44869 5.55229 9.00098 5 9.00098C4.44772 9.00098 4 9.44869 4 10.001C4 10.5533 4.44772 11.001 5 11.001Z" fill="#0B5FFF" />
	<path d="M16 11.001C16.5523 11.001 17 10.5533 17 10.001C17 9.44869 16.5523 9.00098 16 9.00098C15.4477 9.00098 15 9.44869 15 10.001C15 10.5533 15.4477 11.001 16 11.001Z" fill="#0B5FFF" />
	<path d="M13 10.001H8" stroke="#0B5FFF" stroke-linecap="round" stroke-width="2" />
	<path d="M46 35.684V40.3179C46 41.2492 45.2947 42.001 44.4131 42.001H30.5869C29.7157 42.001 29 41.2492 29 40.3179V35.684C29 34.7527 29.7053 34.001 30.5869 34.001H44.4131C45.2843 34.001 46 34.7527 46 35.684V35.684Z" stroke="#0B5FFF" stroke-linecap="round" stroke-linejoin="round" stroke-width="2" />
	<path d="M32 39.001C32.5523 39.001 33 38.5533 33 38.001C33 37.4487 32.5523 37.001 32 37.001C31.4477 37.001 31 37.4487 31 38.001C31 38.5533 31.4477 39.001 32 39.001Z" fill="#0B5FFF" />
	<path d="M43 39.001C43.5523 39.001 44 38.5533 44 38.001C44 37.4487 43.5523 37.001 43 37.001C42.4477 37.001 42 37.4487 42 38.001C42 38.5533 42.4477 39.001 43 39.001Z" fill="#0B5FFF" />
	<path d="M40 38.001H35" stroke="#0B5FFF" stroke-linecap="round" stroke-width="2" />
	<path d="M24 20.9465V18.7572C24 15.0224 27.1305 12.001 31 12.001C34.8695 12.001 38 15.0224 38 18.7572V30.001" stroke="#0B5FFF" stroke-linecap="round" stroke-linejoin="round" stroke-width="2" />
	<path d="M23.9801 18.651V31.821C23.9801 35.591 20.9301 38.641 17.1601 38.641C13.3901 38.641 10.3401 35.591 10.3401 31.821V14.281" stroke="#0B5FFF" stroke-linecap="round" stroke-linejoin="round" stroke-width="2" />
	<path d="M23.9801 32.2209C25.5707 32.2209 26.8601 30.9315 26.8601 29.3409C26.8601 27.7504 25.5707 26.4609 23.9801 26.4609C22.3895 26.4609 21.1001 27.7504 21.1001 29.3409C21.1001 30.9315 22.3895 32.2209 23.9801 32.2209Z" fill="#0B5FFF" />
	<path d="M30.7999 14.7009C32.3905 14.7009 33.6799 13.4115 33.6799 11.8209C33.6799 10.2303 32.3905 8.94092 30.7999 8.94092C29.2093 8.94092 27.9199 10.2303 27.9199 11.8209C27.9199 13.4115 29.2093 14.7009 30.7999 14.7009Z" fill="#0B5FFF" />
</svg>