<svg fill="none" height="40" viewBox="0 0 41 40" width="41" xmlns="http://www.w3.org/2000/svg">
	<path clip-rule="evenodd" d="M11.3258 5.41335C16.0311 -1.18549 29.1139 -0.26739 36.1718 6.10192C49.4841 18.0946 32.2125 47.6459 16.0311 35.8254C15.6293 35.5385 15.2276 35.2516 14.826 34.9073C9.71906 30.4889 5.58758 24.2344 9.94857 8.28241C10.2355 7.19216 10.7519 6.27407 11.3258 5.41335Z" fill="#1AA0E8" fill-rule="evenodd" />
	<path clip-rule="evenodd" d="M11.3258 5.41346C24.925 -0.152512 41.9672 13.2173 28.7121 28.079C25.6136 31.5219 20.7936 34.5631 16.031 35.8255C12.5882 36.7436 9.1453 36.6862 6.44844 35.1369C-0.0356414 31.5219 -1.64232 18.6685 3.34984 11.7828C5.64506 8.68418 8.39938 6.61846 11.3258 5.41346Z" fill="#0B63CE" fill-rule="evenodd" />
	<path d="M28.7121 28.079C41.9672 13.2173 24.925 -0.152512 11.3257 5.41346C10.7519 6.27418 10.2355 7.19228 9.94856 8.28252C5.5876 24.2345 9.71903 30.489 14.8259 34.9074C15.2276 35.2517 15.6293 35.5386 16.0309 35.8255C20.7936 34.5631 25.6136 31.5219 28.7121 28.079Z" fill="#134194" />
</svg>