<svg fill="none" height="48" viewBox="0 0 48 48" width="48" xmlns="http://www.w3.org/2000/svg">
	<path d="M23.39 24.861C29.1504 24.861 33.82 20.1913 33.82 14.431C33.82 8.67065 29.1504 4.00098 23.39 4.00098C17.6297 4.00098 12.96 8.67065 12.96 14.431C12.96 20.1913 17.6297 24.861 23.39 24.861Z" stroke="#0B5FFF" stroke-linecap="round" stroke-linejoin="round" stroke-width="2" />
	<path d="M6 44.001V40.521C6 32.541 11.39 25.811 18.73 23.771" stroke="#0B5FFF" stroke-linecap="round" stroke-linejoin="round" stroke-width="2" />
	<path d="M37.3103 27.3511C40.7423 27.3513 43.5299 30.1388 43.53 33.5708V37.0513C43.5299 40.4833 40.7424 43.2708 37.3103 43.271H32.0896C31.711 43.2709 31.3644 43.0569 31.1951 42.7183L29.7322 39.7915H18.1804C17.9152 39.7915 17.6599 39.6861 17.4724 39.4985L13.9929 36.0181C13.8054 35.8305 13.7 35.5762 13.7 35.311C13.7 35.0458 13.8054 34.7915 13.9929 34.604L17.4724 31.1235C17.6599 30.936 17.9152 30.8315 18.1804 30.8315H29.7322L31.1951 27.9038C31.3644 27.5651 31.711 27.3512 32.0896 27.3511H37.3103ZM23.3904 34.3013C22.8381 34.3013 22.3904 34.749 22.3904 35.3013V38.7808C22.3904 39.333 22.8381 39.7808 23.3904 39.7808C23.9424 39.7805 24.3904 39.3329 24.3904 38.7808V35.3013C24.3904 34.7491 23.9424 34.3015 23.3904 34.3013ZM37.3005 32.5708C36.7483 32.5708 36.3007 33.0186 36.3005 33.5708V37.0415C36.3008 37.5936 36.7484 38.0415 37.3005 38.0415C37.8524 38.0412 38.3003 37.5934 38.3005 37.0415V33.5708C38.3004 33.0188 37.8525 32.5711 37.3005 32.5708Z" fill="#0B5FFF" />
</svg>