<svg fill="none" height="48" viewBox="0 0 48 48" width="48" xmlns="http://www.w3.org/2000/svg">
	<path d="M32.5921 19.5289C34.715 19.5289 36.4359 17.808 36.4359 15.6851C36.4359 13.5622 34.715 11.8413 32.5921 11.8413C30.4693 11.8413 28.7484 13.5622 28.7484 15.6851C28.7484 17.808 30.4693 19.5289 32.5921 19.5289Z" stroke="#0B5FFF" stroke-linecap="round" stroke-miterlimit="10" stroke-width="2" />
	<path d="M21.6381 34.1524C21.0719 42.4171 6.84009 41.3717 6.84009 41.3717C6.84009 41.3717 5.79476 27.14 14.0594 26.5737" fill="#0B5FFF" />
	<path d="M18.3714 18.3638L9.78002 19.6595C5.64224 23.5251 5.46802 29.1438 5.46802 29.1438C8.9198 25.692 13.7109 23.9933 14.7562 25.0387" stroke="#0B5FFF" stroke-miterlimit="10" stroke-width="2" />
	<path d="M22.0628 33.8695C22.0628 33.8695 44.0802 26.4651 42.9586 5.24261C21.7362 4.12105 14.3317 26.1384 14.3317 26.1384L22.052 33.8586L22.0628 33.8695Z" stroke="#0B5FFF" stroke-miterlimit="10" stroke-width="2" />
	<path d="M29.8373 29.8296L28.5415 38.4209C24.676 42.5587 19.0573 42.7329 19.0573 42.7329C22.5091 39.2812 24.2078 34.49 23.1624 33.4447" stroke="#0B5FFF" stroke-miterlimit="10" stroke-width="2" />
</svg>