<svg fill="none" height="48" viewBox="0 0 48 48" width="48" xmlns="http://www.w3.org/2000/svg">
	<path d="M30.7695 23.8003C35.1994 23.8003 38.7898 27.39 38.79 31.8198C38.79 34.5498 37.4396 36.9499 35.3496 38.3999C34.0596 39.3199 32.4695 39.8403 30.7695 39.8403C29.0698 39.8402 27.4803 39.3098 26.1904 38.3999C24.1004 36.9599 22.75 34.5498 22.75 31.8198C22.7503 27.3902 26.3399 23.8005 30.7695 23.8003ZM35.0176 29.1938C34.6271 28.8033 33.994 28.8034 33.6035 29.1938L29.5898 33.2065L27.9375 31.5542L27.8613 31.4849C27.4686 31.1648 26.8895 31.1882 26.5234 31.5542C26.1574 31.9204 26.1346 32.4994 26.4551 32.8921L26.5234 32.9683L28.8838 35.3276C29.0713 35.5148 29.3259 35.6206 29.5908 35.6206C29.8557 35.6204 30.1105 35.515 30.2979 35.3276L35.0176 30.6079C35.4079 30.2176 35.4076 29.5844 35.0176 29.1938Z" fill="#0B5FFF" />
	<path d="M40.83 31.4702C42.74 30.2302 44 28.0902 44 25.6502C44 21.8102 40.89 18.6902 37.04 18.6902C36.3 18.6902 35.61 18.8402 34.94 19.0502C35.15 18.3802 35.3 17.6902 35.3 16.9502C35.3 13.1102 32.19 9.99023 28.34 9.99023C24.49 9.99023 21.61 12.9202 21.42 16.5902C20.49 15.7402 19.26 15.2102 17.91 15.2102C15.03 15.2102 12.69 17.5502 12.69 20.4302C12.69 20.6502 12.73 20.8602 12.75 21.0702C11.94 20.6702 11.04 20.4302 10.08 20.4302C6.71999 20.4302 3.98999 23.1602 3.98999 26.5202C3.98999 29.6002 6.21999 32.6102 9.18999 32.6102H20.3" stroke="#0B5FFF" stroke-linecap="round" stroke-linejoin="round" stroke-width="2" />
</svg>