<svg fill="none" height="48" viewBox="0 0 49 48" width="49" xmlns="http://www.w3.org/2000/svg">
	<path d="M4.67676 30.001H44.6668" stroke="#0B5FFF" stroke-linecap="round" stroke-linejoin="round" stroke-width="2" />
	<path d="M42.5567 6.00098H6.76675C5.60675 6.00098 4.66675 6.94098 4.66675 8.10098V32.891C4.66675 34.051 5.60675 34.991 6.76675 34.991H42.5567C43.7167 34.991 44.6567 34.051 44.6567 32.891V8.10098C44.6567 6.94098 43.7167 6.00098 42.5567 6.00098Z" stroke="#0B5FFF" stroke-linecap="round" stroke-linejoin="round" stroke-width="2" />
	<path d="M32.6867 42.9912H16.5967L22.2267 34.9912H27.0467L32.6767 42.9912H32.6867Z" stroke="#0B5FFF" stroke-linecap="round" stroke-linejoin="round" stroke-width="2" />
	<path d="M14.1167 20.5811C16.8766 20.6211 19.0967 22.8711 19.0967 25.6311V27.4011H9.06665V25.6311C9.06665 22.8411 11.3267 20.5811 14.1167 20.5811Z" fill="#0B5FFF" />
	<path d="M14.1168 20.5911C15.9835 20.5911 17.4968 19.0778 17.4968 17.2111C17.4968 15.3443 15.9835 13.8311 14.1168 13.8311C12.2501 13.8311 10.7368 15.3443 10.7368 17.2111C10.7368 19.0778 12.2501 20.5911 14.1168 20.5911Z" fill="#0B5FFF" />
	<path d="M40.4667 17.2112C40.4667 19.8612 39.1567 22.1912 37.1367 23.5912C35.8767 24.4812 34.3467 24.9912 32.6867 24.9912C31.0267 24.9912 29.4967 24.4812 28.2367 23.5912C26.2167 22.1912 24.9067 19.8512 24.9067 17.2112C24.9067 12.9112 28.3867 9.43115 32.6867 9.43115C36.9867 9.43115 40.4667 12.9112 40.4667 17.2112Z" stroke="#0B5FFF" stroke-linecap="round" stroke-linejoin="round" stroke-width="2" />
	<path d="M29.2468 17.6308L31.5368 19.9208L36.1268 15.3408" stroke="#0B5FFF" stroke-linecap="round" stroke-linejoin="round" stroke-width="2" />
</svg>