<svg fill="none" height="48" viewBox="0 0 48 48" width="48" xmlns="http://www.w3.org/2000/svg">
	<path d="M42.99 15.021H28.6C28.0422 15.021 27.59 15.4732 27.59 16.031V24.311C27.59 24.8688 28.0422 25.321 28.6 25.321H42.99C43.5478 25.321 44 24.8688 44 24.311V16.031C44 15.4732 43.5478 15.021 42.99 15.021Z" fill="#0B5FFF" />
	<path d="M4.07001 4.00098H42.92" stroke="#0B5FFF" stroke-linecap="round" stroke-linejoin="round" stroke-width="2" />
	<path d="M4.07001 10.5508H42.92" stroke="#0B5FFF" stroke-linecap="round" stroke-linejoin="round" stroke-width="2" />
	<path d="M4.07001 17.1108H22.96" stroke="#0B5FFF" stroke-linecap="round" stroke-linejoin="round" stroke-width="2" />
	<path d="M4.07001 23.6611H22.96" stroke="#0B5FFF" stroke-linecap="round" stroke-linejoin="round" stroke-width="2" />
	<path d="M41.04 31.5811H5.69C4.75664 31.5811 4 32.3377 4 33.2711V42.1711C4 43.1044 4.75664 43.8611 5.69 43.8611H41.04C41.9734 43.8611 42.73 43.1044 42.73 42.1711V33.2711C42.73 32.3377 41.9734 31.5811 41.04 31.5811Z" stroke="#0B5FFF" stroke-linecap="round" stroke-linejoin="round" stroke-width="2" />
</svg>