<svg fill="none" height="48" viewBox="0 0 48 48" width="48" xmlns="http://www.w3.org/2000/svg">
	<path d="M34.02 23.041C38.6426 23.0411 42.3901 26.7885 42.3901 31.4111C42.3901 36.0337 38.6426 39.7812 34.02 39.7812C29.3974 39.7812 25.65 36.0337 25.6499 31.4111C25.6499 26.7885 29.3974 23.041 34.02 23.041ZM37.8999 26.3213C37.3599 26.1513 36.7401 26.2712 36.3101 26.7012C35.8607 27.1506 35.7389 27.7933 35.9409 28.3496L33.7544 30.5361L31.3403 28.1211C31.3003 28.0811 31.2703 28.0307 31.2603 27.9707V27.541C31.2603 27.471 31.2196 27.4013 31.1597 27.3613L29.8003 26.5205C29.7103 26.4605 29.5998 26.4808 29.5298 26.5508L29.1499 26.9307C29.0799 27.0007 29.0696 27.1112 29.1196 27.2012L29.9595 28.5605C29.9995 28.6305 30.0701 28.6707 30.1401 28.6807H30.5698C30.6298 28.6807 30.7202 28.7412 30.7202 28.7412L33.1343 31.1553L30.9585 33.3311C30.4022 33.1292 29.7593 33.2519 29.3101 33.7012C28.6901 34.3212 28.6901 35.3107 29.3101 35.9307C29.93 36.5506 30.9196 36.5506 31.5396 35.9307C31.9873 35.4829 32.1097 34.8431 31.9106 34.2881L33.7876 32.4121L33.8315 32.4561L33.8306 32.457C33.659 32.6289 33.6589 32.9074 33.8306 33.0791L37.2104 36.459C37.3822 36.6307 37.6607 36.6305 37.8325 36.459L39.0562 35.2354C39.2279 35.0635 39.228 34.7851 39.0562 34.6133L35.6763 31.2334C35.5071 31.0642 35.2344 31.0616 35.062 31.2256L35.0181 31.1816L36.897 29.3018C37.452 29.5008 38.0917 29.3784 38.5396 28.9307C38.9795 28.4907 39.0996 27.851 38.9097 27.291L37.9595 28.2412L37.1802 28.0312L36.9702 27.251L37.8999 26.3213ZM29.9497 34.3408C30.2097 34.0808 30.6399 34.0808 30.8999 34.3408C31.1599 34.6008 31.1599 35.031 30.8999 35.291C30.6399 35.5509 30.2097 35.551 29.9497 35.291C29.6897 35.031 29.6898 34.6008 29.9497 34.3408Z" fill="#0B5FFF" />
	<path d="M43.9601 27.5612C44.2901 24.9012 42.4601 22.2312 39.7501 21.5012C39.1701 21.3412 38.5501 21.3112 37.8801 21.2112C37.8301 20.7912 37.8001 20.4212 37.7401 20.0512C37.1301 16.3412 33.4501 13.6512 29.7601 14.3412C28.6701 14.5512 28.1301 14.2912 27.5601 13.4112C27.1001 12.7112 26.4301 12.1012 25.7401 11.6112C20.5801 7.90118 12.7801 10.7712 12.1701 18.4812V18.4912C11.7201 18.4912 11.3501 18.4912 10.9701 18.4912C6.53013 18.6012 3.33013 22.5012 4.12013 26.8512C4.76013 30.4212 7.66013 32.6812 11.6801 32.7112C16.2301 32.7312 18.46 32.7112 23 32.7112" stroke="#0B5FFF" stroke-linecap="round" stroke-width="2" />
</svg>