<svg fill="none" height="48" viewBox="0 0 49 48" width="49" xmlns="http://www.w3.org/2000/svg">
	<path d="M41.4232 22.5708L34.7532 29.2408" stroke="#0B5FFF" stroke-width="2" />
	<path d="M7.24316 22.5708L13.9632 29.2908" stroke="#0B5FFF" stroke-width="2" />
	<path d="M32.4932 32.2808L33.7532 33.5408C34.4732 34.2608 35.6232 34.2608 36.3432 33.5408C37.0632 32.8308 37.0632 31.6708 36.3432 30.9508L25.5032 20.1108" stroke="#0B5FFF" stroke-linecap="round" stroke-width="2" />
	<path d="M32.0632 31.8511L33.7532 33.5411C34.4732 34.2611 34.4732 35.4111 33.7532 36.1311C33.0432 36.8411 31.8832 36.8411 31.1632 36.1311L28.5532 33.5211" stroke="#0B5FFF" stroke-linecap="round" stroke-width="2" />
	<path d="M24.2432 39.571L24.7732 40.101C25.4932 40.821 26.6432 40.821 27.3632 40.101C28.0732 39.391 28.0832 38.231 27.3632 37.511L26.5832 36.731" stroke="#0B5FFF" stroke-width="2" />
	<path d="M28.3833 33.3511L30.7033 35.6711C31.4233 36.3911 31.4233 37.5411 30.7033 38.2611C29.9933 38.9711 28.8333 38.9711 28.1133 38.2611L26.1033 36.2411" stroke="#0B5FFF" stroke-linecap="round" stroke-width="2" />
	<path d="M13.5832 29.6907C14.2932 28.9807 15.4532 28.9807 16.1732 29.6907C16.8932 30.4007 16.8832 31.5607 16.1732 32.2807L14.9132 33.5407C14.1932 34.2607 13.0432 34.2607 12.3232 33.5407C11.6032 32.8307 11.6032 31.6707 12.3232 30.9507L13.5832 29.6907V29.6907Z" stroke="#0B5FFF" stroke-width="2" />
	<path d="M20.113 33.5107C20.833 32.7907 20.833 31.6407 20.113 30.9207C19.403 30.2107 18.243 30.2107 17.523 30.9207L14.913 33.5307C14.193 34.2507 14.193 35.4007 14.913 36.1207C15.623 36.8307 16.783 36.8307 17.503 36.1207L20.113 33.5107V33.5107Z" stroke="#0B5FFF" stroke-width="2" />
	<path d="M22.5631 36.2508C23.2731 35.5408 24.4331 35.5408 25.1531 36.2508C25.8631 36.9608 25.8631 38.1208 25.1531 38.8408L23.8931 40.1008C23.1731 40.8208 22.0231 40.8208 21.3031 40.1008C20.5931 39.3908 20.5831 38.2308 21.3031 37.5108L22.5631 36.2508V36.2508Z" stroke="#0B5FFF" stroke-width="2" />
	<path d="M23.1631 35.651C23.8831 34.941 23.8831 33.781 23.1631 33.061C22.4531 32.341 21.2931 32.341 20.5731 33.061L17.9631 35.671C17.2431 36.391 17.2431 37.541 17.9631 38.261C18.6731 38.971 19.8331 38.971 20.5531 38.261L23.1631 35.651V35.651Z" stroke="#0B5FFF" stroke-width="2" />
	<path d="M32.2431 13.3608L30.1231 15.4808H23.9231L16.7031 22.6808C16.2231 23.1608 16.3331 23.9808 16.9331 24.3008C18.5931 25.1708 20.6931 24.9108 22.0831 23.5208L25.4831 20.1208" stroke="#0B5FFF" stroke-linecap="round" stroke-width="2" />
	<path d="M16.4731 13.3608L18.5831 15.4708H18.6431H24.7831" stroke="#0B5FFF" stroke-width="2" />
	<path d="M13.3519 9.14421L3.42411 19.072C2.69773 19.7984 2.69773 20.9761 3.42411 21.7024L5.12823 23.4066C5.85461 24.1329 7.03229 24.1329 7.75867 23.4066L17.6864 13.4788C18.4128 12.7524 18.4128 11.5747 17.6864 10.8483L15.9823 9.14421C15.2559 8.41783 14.0783 8.41783 13.3519 9.14421Z" fill="#0B5FFF" />
	<path d="M32.6719 9.13739L30.9678 10.8415C30.2414 11.5679 30.2414 12.7456 30.9678 13.472L40.8956 23.3997C41.622 24.1261 42.7996 24.1261 43.526 23.3997L45.2301 21.6956C45.9565 20.9692 45.9565 19.7915 45.2302 19.0652L35.3024 9.13739C34.576 8.41102 33.3983 8.41102 32.6719 9.13739Z" fill="#0B5FFF" />
</svg>