<svg fill="none" height="48" viewBox="0 0 48 48" width="48" xmlns="http://www.w3.org/2000/svg">
	<path d="M19.3599 21.8408L15.6899 25.5108L19.3599 29.1808" stroke="#0B5FFF" stroke-linecap="round" stroke-linejoin="round" stroke-width="2" />
	<path d="M28.9299 29.1808L32.5999 25.5108L28.9299 21.8408" stroke="#0B5FFF" stroke-linecap="round" stroke-linejoin="round" stroke-width="2" />
	<path d="M26.87 19.6309L21.74 31.4009" stroke="#0B5FFF" stroke-linecap="round" stroke-linejoin="round" stroke-width="2" />
	<path d="M6.80005 25.511C6.80005 35.181 14.64 43.011 24.3 43.011C29.13 43.011 33.51 41.051 36.68 37.881" stroke="#0B5FFF" stroke-linecap="round" stroke-linejoin="round" stroke-width="2" />
	<path d="M3.19995 24.3709L6.14995 19.2709C6.43995 18.7609 7.17995 18.7609 7.46995 19.2709L10.4199 24.3709C10.7099 24.8809 10.3499 25.5109 9.75995 25.5109H3.85995C3.26995 25.5109 2.90995 24.8809 3.19995 24.3709Z" fill="#0B5FFF" />
	<path d="M38.2 26.5309L41.15 31.6309C41.44 32.1409 42.18 32.1409 42.47 31.6309L45.42 26.5309C45.71 26.0209 45.35 25.3909 44.76 25.3909H38.87C38.28 25.3909 37.92 26.0209 38.21 26.5309H38.2Z" fill="#0B5FFF" />
	<path d="M41.8099 25.511C41.8099 15.841 33.9699 8.01099 24.3099 8.01099C19.4799 8.01099 15.0999 9.97099 11.9299 13.141" stroke="#0B5FFF" stroke-linecap="round" stroke-linejoin="round" stroke-width="2" />
</svg>