<svg fill="none" height="48" viewBox="0 0 48 48" width="48" xmlns="http://www.w3.org/2000/svg">
	<path clip-rule="evenodd" d="M42.45 31.411C42.45 36.0336 38.7026 39.781 34.08 39.781C29.4573 39.781 25.71 36.0336 25.71 31.411C25.71 26.7884 29.4573 23.041 34.08 23.041C38.7026 23.041 42.45 26.7884 42.45 31.411ZM38.31 32.4608L36.2 35.1708L34.08 37.8808L31.97 35.1708L29.85 32.4608H32.23V25.8008H35.94V32.4608H38.31Z" fill="#0B5FFF" fill-rule="evenodd" />
	<path d="M43.9601 27.5612C44.2901 24.9012 42.4601 22.2312 39.7501 21.5012C39.1701 21.3412 38.5501 21.3112 37.8801 21.2112C37.8301 20.7912 37.8001 20.4212 37.7401 20.0512C37.1301 16.3412 33.4501 13.6512 29.7601 14.3412C28.6701 14.5512 28.1301 14.2912 27.5601 13.4112C27.1001 12.7112 26.4301 12.1012 25.7401 11.6112C20.5801 7.90118 12.7801 10.7712 12.1701 18.4812V18.4912C11.7201 18.4912 11.3501 18.4912 10.9701 18.4912C6.53013 18.6012 3.33013 22.5012 4.12013 26.8512C4.76013 30.4212 7.66013 32.6812 11.6801 32.7112C16.2301 32.7312 18.46 32.7112 23 32.7112" stroke="#0B5FFF" stroke-linecap="round" stroke-width="2" />
</svg>