<svg fill="none" height="48" viewBox="0 0 48 48" width="48" xmlns="http://www.w3.org/2000/svg">
	<path d="M42.57 14.0909L40.61 13.6009C40.41 13.5509 40.26 13.3909 40.2 13.2009C39.99 12.4409 39.69 11.7309 39.31 11.0609C39.21 10.8809 39.21 10.6609 39.31 10.4909L40.35 8.76087C40.48 8.53087 40.45 8.25087 40.26 8.06087L39.71 7.51087L39.13 6.93087L38.58 6.38087C38.39 6.19087 38.11 6.16087 37.88 6.29087L36.15 7.33087C35.97 7.44087 35.76 7.43087 35.58 7.33087C34.91 6.95087 34.19 6.65087 33.44 6.44087C33.24 6.38087 33.09 6.23087 33.04 6.03087L32.55 4.07087C32.49 3.82087 32.26 3.64087 31.99 3.64087H29.6C29.34 3.64087 29.11 3.82087 29.04 4.07087L28.55 6.03087C28.5 6.23087 28.34 6.38087 28.15 6.44087C27.39 6.65087 26.68 6.95087 26.01 7.33087C25.83 7.43087 25.61 7.43087 25.44 7.33087L23.71 6.29087C23.48 6.16087 23.2 6.19087 23.01 6.38087L22.46 6.93087L21.88 7.51087L21.33 8.06087C21.14 8.25087 21.11 8.53087 21.24 8.76087L22.28 10.4909C22.39 10.6709 22.38 10.8809 22.28 11.0609C21.9 11.7309 21.6 12.4509 21.39 13.2009C21.33 13.4009 21.18 13.5509 20.98 13.6009L19.02 14.0909C18.77 14.1509 18.59 14.3809 18.59 14.6509V17.0409C18.59 17.3009 18.77 17.5309 19.02 17.6009L20.98 18.0909C21.18 18.1409 21.33 18.3009 21.39 18.4909C21.6 19.2509 21.9 19.9609 22.28 20.6309C22.38 20.8109 22.38 21.0309 22.28 21.2009L21.24 22.9309C21.11 23.1609 21.14 23.4409 21.33 23.6309L21.88 24.1809L22.46 24.7609L23.01 25.3109C23.2 25.5009 23.48 25.5309 23.71 25.4009L25.44 24.3609C25.62 24.2509 25.83 24.2609 26.01 24.3609C26.68 24.7409 27.4 25.0409 28.15 25.2509C28.35 25.3109 28.5 25.4609 28.55 25.6609L29.04 27.6209C29.1 27.8709 29.33 28.0509 29.6 28.0509H31.99C32.25 28.0509 32.48 27.8709 32.55 27.6209L33.04 25.6609C33.09 25.4609 33.25 25.3109 33.44 25.2509C34.2 25.0409 34.91 24.7409 35.58 24.3609C35.76 24.2609 35.98 24.2609 36.15 24.3609L37.88 25.4009C38.11 25.5309 38.39 25.5009 38.58 25.3109L39.13 24.7609L39.71 24.1809L40.26 23.6309C40.45 23.4409 40.48 23.1609 40.35 22.9309L39.31 21.2009C39.2 21.0209 39.21 20.8109 39.31 20.6309C39.69 19.9609 39.99 19.2409 40.2 18.4909C40.26 18.2909 40.41 18.1409 40.61 18.0909L42.57 17.6009C42.82 17.5409 43 17.3109 43 17.0409V14.6509C43 14.3909 42.82 14.1609 42.57 14.0909ZM34.33 16.6109L34.03 16.9109L30.78 20.1609L27.53 16.9109L27.23 16.6109C26.33 15.7109 26.33 14.2509 27.23 13.3609C28.13 12.4609 29.58 12.4609 30.48 13.3609L30.78 13.6609L31.08 13.3609C31.98 12.4609 33.43 12.4609 34.33 13.3609C35.23 14.2609 35.23 15.7109 34.33 16.6109Z" fill="#0B5FFF" />
	<path d="M7.5 26.501H17.5C20.26 26.501 22.5 28.741 22.5 31.501H31C32.38 31.501 33.5 32.621 33.5 34.001C33.5 35.381 32.38 36.501 31 36.501H19.5" stroke="#0B5FFF" stroke-linecap="round" stroke-miterlimit="10" stroke-width="2" />
	<path d="M33.6 33.911L34.5 33.501L43.47 29.421C44.61 28.901 45.95 29.381 46.5 30.491C47.06 31.611 46.63 32.961 45.54 33.561L26.27 44.071C25.78 44.341 25.21 44.391 24.68 44.211L7.5 38.481L7 38.251" stroke="#0B5FFF" stroke-miterlimit="10" stroke-width="2" />
	<path d="M6 24.001H4C2.89543 24.001 2 24.8964 2 26.001V39.001C2 40.1055 2.89543 41.001 4 41.001H6C7.10457 41.001 8 40.1055 8 39.001V26.001C8 24.8964 7.10457 24.001 6 24.001Z" fill="#0B5FFF" />
</svg>