<svg fill="none" height="48" viewBox="0 0 48 48" width="48" xmlns="http://www.w3.org/2000/svg">
	<g clip-path="url(#clip0_3272_7948)">
		<path d="M0.969971 10.6309H46.98" stroke="#0B5FFF" stroke-width="2" />
		<path d="M45.29 3.00098H2.65997C1.72661 3.00098 0.969971 3.75762 0.969971 4.69098V43.321C0.969971 44.2543 1.72661 45.011 2.65997 45.011H45.29C46.2233 45.011 46.98 44.2543 46.98 43.321V4.69098C46.98 3.75762 46.2233 3.00098 45.29 3.00098Z" stroke="#0B5FFF" stroke-width="2" />
		<path d="M5.95002 8.09103C6.63485 8.09103 7.19002 7.52243 7.19002 6.82103C7.19002 6.11962 6.63485 5.55103 5.95002 5.55103C5.26519 5.55103 4.71002 6.11962 4.71002 6.82103C4.71002 7.52243 5.26519 8.09103 5.95002 8.09103Z" fill="#0B5FFF" />
		<path d="M9.68 8.09103C10.3648 8.09103 10.92 7.52243 10.92 6.82103C10.92 6.11962 10.3648 5.55103 9.68 5.55103C8.99517 5.55103 8.44 6.11962 8.44 6.82103C8.44 7.52243 8.99517 8.09103 9.68 8.09103Z" fill="#0B5FFF" />
		<path d="M13.41 8.09103C14.0948 8.09103 14.65 7.52243 14.65 6.82103C14.65 6.11962 14.0948 5.55103 13.41 5.55103C12.7251 5.55103 12.17 6.11962 12.17 6.82103C12.17 7.52243 12.7251 8.09103 13.41 8.09103Z" fill="#0B5FFF" />
		<g clip-path="url(#clip1_3272_7948)">
			<path d="M36 15.001V39.001H12V15.001H36Z" fill="white" fill-opacity="0.01" />
			<path d="M16 21.001H26M21 19.001V21.001M24 21.001C24 25.001 21 29.001 16 31.001M18.559 24.001C19.544 26.629 21.796 29.025 25 30.562M23 35.001L27.5 25.001L32 35.001M24.35 32.001H30.65" stroke="#0B5FFF" stroke-linecap="round" stroke-linejoin="round" stroke-width="1.5" />
		</g>
	</g>
	<defs>
		<clipPath id="clip0_3272_7948">
			<rect fill="white" height="48" transform="translate(0 0.000976562)" width="48" />
		</clipPath>
		<clipPath id="clip1_3272_7948">
			<rect fill="white" height="24" transform="translate(12 15.001)" width="24" />
		</clipPath>
	</defs>
</svg>