<svg fill="none" height="48" viewBox="0 0 48 48" width="48" xmlns="http://www.w3.org/2000/svg">
	<path d="M14 4.22191C14 3.00398 14.9956 2.00098 16.2044 2.00098H43.7956C45.0044 2.00098 46 3.00398 46 4.22191V22.0132C46 23.2311 45.0044 24.2341 43.7956 24.2461C43.7956 24.2461 39.5289 24.2461 39.3867 24.27V30.8969C39.3867 32.1149 38.7348 32.3656 37.9289 31.4462L31.683 24.258C31.683 24.258 31.6474 24.2341 31.6237 24.2341C30.7822 24.2341 16.2044 24.2341 16.2044 24.2341C14.9956 24.2341 14 23.2311 14 22.0132V4.22191Z" fill="#0B5FFF" />
	<path d="M32 19.2195C32 18.0029 30.992 17.001 29.768 17.001H4.232C3.008 17.001 2 18.0029 2 19.2195V35.0238C2 36.2405 3.008 37.2424 4.232 37.2543C4.232 37.2543 8.552 37.2543 8.696 37.2782V43.8981C8.696 45.1147 9.356 45.3652 10.172 44.4468L16.496 37.2663C16.496 37.2663 16.532 37.2424 16.556 37.2424C17.408 37.2424 29.768 37.2424 29.768 37.2424C30.992 37.2424 32 36.2405 32 35.0238V19.2195Z" stroke="#0B5FFF" stroke-linejoin="round" stroke-width="2" />
</svg>