<svg fill="none" height="48" viewBox="0 0 48 48" width="48" xmlns="http://www.w3.org/2000/svg">
	<path d="M28.57 17.421C28.57 17.9733 29.0177 18.421 29.57 18.421C30.1223 18.421 30.57 17.9733 30.57 17.421H28.57ZM46.51 17.421H45.51C45.51 21.4736 42.1779 24.781 38.04 24.781V25.781V26.781C43.2578 26.781 47.51 22.6027 47.51 17.421H46.51ZM29.57 17.421H30.57C30.57 13.3685 33.9021 10.061 38.04 10.061V9.06104V8.06104C32.8222 8.06104 28.57 12.2394 28.57 17.421H29.57ZM38.04 9.06104V10.061C42.1779 10.061 45.51 13.3685 45.51 17.421H46.51H47.51C47.51 12.2394 43.2578 8.06104 38.04 8.06104V9.06104ZM38.04 25.781V24.781C36.1227 24.781 34.3777 24.0707 33.0562 22.9036L32.3942 23.6531L31.7323 24.4026C33.4075 25.8821 35.6196 26.781 38.04 26.781V25.781Z" fill="#0B5FFF" />
	<path d="M42.52 24.6709C42.52 24.6709 46.86 25.3009 47 31.4309V31.9209" stroke="#0B5FFF" stroke-linecap="round" stroke-width="2" />
	<path d="M17.44 17.3909C17.44 17.9432 17.8877 18.3909 18.44 18.3909C18.9923 18.3909 19.44 17.9432 19.44 17.3909H17.44ZM9.97 25.8609V24.8609C5.84443 24.8609 2.5 21.5165 2.5 17.3909H1.5H0.5C0.5 22.621 4.73986 26.8609 9.97 26.8609V25.8609ZM1.5 17.3909H2.5C2.5 13.2653 5.84443 9.9209 9.97 9.9209V8.9209V7.9209C4.73986 7.9209 0.5 12.1608 0.5 17.3909H1.5ZM9.97 8.9209V9.9209C14.0956 9.9209 17.44 13.2653 17.44 17.3909H18.44H19.44C19.44 12.1608 15.2001 7.9209 9.97 7.9209V8.9209ZM15.5 23.8067L14.8468 23.0495C13.5376 24.1789 11.8347 24.8609 9.97 24.8609V25.8609V26.8609C12.3323 26.8609 14.4947 25.9947 16.1532 24.5639L15.5 23.8067Z" fill="#0B5FFF" />
	<path d="M5.61 24.7407C5.61 24.7407 1.34 25.7807 1 31.6007C1 31.7607 1 32.0807 1 32.0807" stroke="#0B5FFF" stroke-linecap="round" stroke-width="2" />
	<path d="M24 32.7213C28.6779 32.7213 32.47 28.9291 32.47 24.2513C32.47 19.5734 28.6779 15.7812 24 15.7812C19.3222 15.7812 15.53 19.5734 15.53 24.2513C15.53 28.9291 19.3222 32.7213 24 32.7213Z" stroke="#0B5FFF" stroke-width="2" />
	<path d="M19.64 31.6011C19.64 31.6011 15.37 32.6411 15.03 38.4611C15.03 38.6211 15.03 38.9411 15.03 38.9411" stroke="#0B5FFF" stroke-linecap="round" stroke-width="2" />
	<path d="M28.48 31.6011C28.48 31.6011 32.82 32.2411 32.96 38.4511V38.9511" stroke="#0B5FFF" stroke-linecap="round" stroke-width="2" />
	<path d="M16.03 21.5112H22.08C22.59 21.5112 23 21.9212 23 22.4312V24.5012C23 25.5012 22.25 26.9912 19.76 26.9912C17.27 26.9912 16.52 25.9912 16.52 24.5012V21.5112" stroke="#0B5FFF" stroke-linecap="round" stroke-miterlimit="10" stroke-width="2" />
	<path d="M31.97 21.5112H25.92C25.41 21.5112 25 21.9212 25 22.4312V24.5012C25 25.5012 25.75 26.9912 28.24 26.9912C30.73 26.9912 31.48 25.9912 31.48 24.5012V21.5112" stroke="#0B5FFF" stroke-linecap="round" stroke-miterlimit="10" stroke-width="2" />
	<path d="M23.03 23.0712C23.03 23.0712 23.54 23.0112 24.03 23.0112C24.52 23.0112 25 23.0712 25 23.0712" stroke="#0B5FFF" stroke-linecap="round" stroke-miterlimit="10" stroke-width="2" />
</svg>