<svg fill="none" height="48" viewBox="0 0 48 48" width="48" xmlns="http://www.w3.org/2000/svg">
	<path d="M39.2402 23.1006H4V17.7803H39.2402V23.1006ZM7.81055 19.3008C7.28597 19.3008 6.86051 19.7255 6.86035 20.25C6.86035 20.7747 7.28588 21.2002 7.81055 21.2002C8.33502 21.2 8.75977 20.7745 8.75977 20.25C8.75961 19.7256 8.33492 19.301 7.81055 19.3008ZM10.6699 19.3008C10.1454 19.3008 9.71989 19.7255 9.71973 20.25C9.71973 20.7747 10.1453 21.2002 10.6699 21.2002C11.1946 21.2002 11.6201 20.7747 11.6201 20.25C11.62 19.7255 11.1945 19.3008 10.6699 19.3008ZM13.5205 19.3008C12.9959 19.3008 12.5705 19.7255 12.5703 20.25C12.5703 20.7747 12.9958 21.2002 13.5205 21.2002C14.045 21.2 14.4697 20.7745 14.4697 20.25C14.4696 19.7256 14.0449 19.301 13.5205 19.3008Z" fill="#0B5FFF" />
	<path d="M43.9998 9.70996H9.23999V4.37988H43.9998V9.70996ZM12.5701 5.91016C12.0454 5.91018 11.6199 6.3357 11.6199 6.86035C11.6201 7.3848 12.0456 7.80954 12.5701 7.80957C13.0946 7.80957 13.52 7.38482 13.5203 6.86035C13.5203 6.33568 13.0947 5.91016 12.5701 5.91016ZM15.4304 5.91016C14.9057 5.91016 14.4802 6.33568 14.4802 6.86035C14.4805 7.38482 14.9059 7.80957 15.4304 7.80957C15.9547 7.80933 16.3794 7.38467 16.3796 6.86035C16.3796 6.33583 15.9549 5.91039 15.4304 5.91016ZM18.2898 5.91016C17.7653 5.91031 17.3406 6.33578 17.3406 6.86035C17.3408 7.38472 17.7654 7.80941 18.2898 7.80957C18.8143 7.80957 19.2398 7.38482 19.24 6.86035C19.24 6.33568 18.8145 5.91016 18.2898 5.91016Z" fill="#0B5FFF" />
	<path d="M4.22 23.1001H39.24" stroke="#0B5FFF" stroke-width="2" />
	<path d="M37.63 17.3901H5.61C4.72082 17.3901 4 18.111 4 19.0001V43.3401C4 44.2293 4.72082 44.9501 5.61 44.9501H37.63C38.5192 44.9501 39.24 44.2293 39.24 43.3401V19.0001C39.24 18.111 38.5192 17.3901 37.63 17.3901Z" stroke="#0B5FFF" stroke-width="2" />
	<path d="M37.3 31.5599H10.37C9.48999 31.5599 8.75999 30.8399 8.75999 29.9499V24.9199" stroke="#0B5FFF" stroke-width="2" />
	<path d="M8.75999 15.6V5.61C8.75999 4.73 9.47999 4 10.37 4H42.39C43.27 4 44 4.72 44 5.61V29.96C44 30.84 43.28 31.57 42.39 31.57H41.04" stroke="#0B5FFF" stroke-width="2" />
	<path d="M8.91 9.70996H44" stroke="#0B5FFF" stroke-width="2" />
</svg>