<svg fill="none" height="120" viewBox="0 0 120 120" width="120" xmlns="http://www.w3.org/2000/svg">
	<g clip-path="url(#clip0_542_8729)">
		<rect fill="#F0F5FF" height="54.9394" rx="3.92424" width="91.8271" x="28.1729" y="45.2842" />
		<rect fill="white" height="0.981061" width="91.8271" x="28.1729" y="58.0376" />
		<rect fill="#B3CDFF" height="1.96212" width="51.6528" x="35.8252" y="51.1704" />
		<rect fill="white" height="0.981061" width="91.8271" x="28.1729" y="71.7729" />
		<rect fill="#B3CDFF" height="1.96212" width="25.8264" x="35.8252" y="64.9053" />
		<rect fill="white" height="0.981061" width="91.8271" x="28.1729" y="85.5078" />
		<rect fill="#B3CDFF" height="1.96212" width="66.9573" x="35.8252" y="78.6401" />
		<rect fill="#B3CDFF" height="1.96212" width="11.4784" x="35.8252" y="92.375" />
		<g filter="url(#filter0_d_542_8729)">
			<rect fill="white" height="17.6591" rx="3.92424" width="93.7402" x="3" y="27.625" />
			<rect height="17.6591" rx="3.92424" stroke="#0B5FFF" stroke-opacity="0.4" stroke-width="5.88636" width="93.7402" x="3" y="27.625" />
		</g>
		<rect fill="white" height="16.678" rx="3.43371" stroke="#0B5FFF" stroke-width="0.98106" width="92.7591" x="3.49053" y="28.1155" />
		<rect fill="#80ACFF" height="1.96212" width="53.5658" x="8.73901" y="35.4731" />
		<rect fill="#0B5FFF" height="2.94318" width="48.7832" x="3" y="19.7764" />
		<path d="M85.3842 35.3771L87.8367 38.0004C87.9992 38.1732 88.264 38.1732 88.4265 38.0004L90.8789 35.3771C91.1407 35.0962 90.9541 34.6147 90.584 34.6147H85.6791C85.309 34.6178 85.1224 35.0962 85.3842 35.3771V35.3771Z" fill="#80ACFF" />
	</g>
	<defs>
		<filter color-interpolation-filters="sRGB" filterUnits="userSpaceOnUse" height="39.2424" id="filter0_d_542_8729" width="115.323" x="-7.7916" y="20.7574">
			<feFlood flood-opacity="0" result="BackgroundImageFix" />
			<feColorMatrix in="SourceAlpha" result="hardAlpha" type="matrix" values="0 0 0 0 0 0 0 0 0 0 0 0 0 0 0 0 0 0 127 0" />
			<feOffset dy="3.92424" />
			<feGaussianBlur stdDeviation="3.92424" />
			<feColorMatrix type="matrix" values="0 0 0 0 0.152941 0 0 0 0 0.156863 0 0 0 0 0.2 0 0 0 0.12 0" />
			<feBlend in2="BackgroundImageFix" mode="normal" result="effect1_dropShadow_542_8729" />
			<feBlend in="SourceGraphic" in2="effect1_dropShadow_542_8729" mode="normal" result="shape" />
		</filter>
		<clipPath id="clip0_542_8729">
			<rect fill="white" height="120" width="120" />
		</clipPath>
	</defs>
</svg>