<svg fill="none" height="250" width="250" xmlns="http://www.w3.org/2000/svg">
	<g clip-path="url(#_Illustration/Content-Section__a)">
		<rect fill="#F0F5FF" height="114.667" rx="8" stroke="#5791FF" stroke-width="2" width="176" x="36" y="69" />
		<path d="M62.667 105H96v4H62.667z" fill="#B3CDFF" />
		<path d="M117.333 105H136v4h-18.667zm52 0H188v4h-18.667z" fill="#80ACFF" />
		<path d="M48 105h4v4h-4zm0 12h4v4h-4z" fill="#004AD7" opacity=".6" />
		<path d="M62.667 117h34.667v4H62.667z" fill="#B3CDFF" />
		<path d="M117.333 117h24v4h-24zm52 0h24v4h-24z" fill="#80ACFF" />
		<path d="M48 129h4v4h-4z" fill="#004AD7" opacity=".6" />
		<path d="M62.667 129H92v4H62.667z" fill="#B3CDFF" />
		<path d="M117.333 129H136v4h-18.667zm52 0H188v4h-18.667z" fill="#80ACFF" />
		<path d="M48 141h4v4h-4z" fill="#004AD7" opacity=".6" />
		<path d="M62.667 141H96v4H62.667z" fill="#B3CDFF" />
		<path d="M117.333 141H140v4h-22.667zm52 0H192v4h-22.667z" fill="#80ACFF" />
		<path d="M48 153h4v4h-4z" fill="#004AD7" opacity=".6" />
		<path d="M62.667 153h30.667v4H62.667zm54.666 0h21.333v4h-21.333zm52 0h21.333v4h-21.333z" fill="#B3CDFF" />
		<path d="M48 165h4v4h-4z" fill="#004AD7" opacity=".6" />
		<path d="M62.667 165H96v4H62.667zm54.666 0H140v4h-22.667zm52 0H192v4h-22.667z" fill="#B3CDFF" />
		<path d="M48 78.599h49v4H48zm69.333-.266h21.333v4h-21.333z" fill="#0B5FFF" opacity=".6" />
		<path d="M169.333 78.333h17.333v4h-17.333z" fill="#5791FF" opacity=".5" />
		<path d="M36 90.333h176v1.333H36z" fill="#B3CDFF" opacity=".3" />
		<path d="M153.333 69v114.667H152V69z" fill="#0B5FFF" opacity=".4" />
		<g filter="url(#_Illustration/Content-Section__b)">
			<rect fill="#fff" height="42.78" rx="5.333" width="153.333" x="84.667" y="102" />
			<rect height="42.78" rx="5.333" stroke="#0B5FFF" stroke-opacity=".4" stroke-width="8" width="153.333" x="84.667" y="102" />
		</g>
		<rect fill="#fff" height="42.78" rx="4" width="153.333" x="84.667" y="102" />
		<rect fill="#0B5FFF" height="32.085" rx="5.333" width="32" x="90" y="107.347" />
		<mask height="17" id="_Illustration/Content-Section__c" maskUnits="userSpaceOnUse" style="mask-type:alpha" width="17" x="97" y="115">
			<path clip-rule="evenodd" d="M97.96 129.405v-12.032c0-1.106.897-2.005 2-2.005h12.001c1.103 0 2 .899 2 2.005v12.032a2.005 2.005 0 0 1-2 2.006h-12c-1.104 0-2-.9-2-2.006Zm14.001 0v-12.032h-12v12.032h12Zm-2.5-4.01c.687 0 .656-1.003 0-1.003h-7c-.656 0-.656 1.003 0 1.003h7Zm-2 2.005h-5c-.688 0-.656-1.003 0-1.003h5c.625 0 .687 1.003 0 1.003Zm.5-5.013c1.104 0 2-.898 2-2.006a2.003 2.003 0 0 0-2-2.005c-1.105 0-2 .898-2 2.005 0 1.108.895 2.006 2 2.006Zm-4-4.011-2 4.011h4l-2-4.011Z" fill="#6B6C7E" fill-rule="evenodd" />
		</mask>
		<g mask="url(#_Illustration/Content-Section__c)">
			<path d="M97.961 115.368h16v16.043h-16z" fill="#F0F5FF" />
		</g>
		<path d="M127.333 116.706H174v5.348h-46.667z" fill="#80ACFF" />
		<path d="M127.333 127.401h80v2.674h-80z" fill="#80ACFF" opacity=".5" />
	</g>
	<defs>
		<clipPath id="_Illustration/Content-Section__a">
			<path d="M0 0h250v250H0z" fill="#fff" />
		</clipPath>
		<filter color-interpolation-filters="sRGB" filterUnits="userSpaceOnUse" height="72.113" id="_Illustration/Content-Section__b" width="182.667" x="70" y="92.667">
			<feFlood flood-opacity="0" result="BackgroundImageFix" />
			<feColorMatrix in="SourceAlpha" result="hardAlpha" values="0 0 0 0 0 0 0 0 0 0 0 0 0 0 0 0 0 0 127 0" />
			<feOffset dy="5.333" />
			<feGaussianBlur stdDeviation="5.333" />
			<feColorMatrix values="0 0 0 0 0.152941 0 0 0 0 0.156863 0 0 0 0 0.2 0 0 0 0.12 0" />
			<feBlend in2="BackgroundImageFix" result="effect1_dropShadow_1833_33562" />
			<feBlend in="SourceGraphic" in2="effect1_dropShadow_1833_33562" result="shape" />
		</filter>
	</defs>
</svg>