<svg fill="none" height="250" width="250" xmlns="http://www.w3.org/2000/svg">
	<rect fill="#F0F5FF" height="114.973" rx="8" stroke="#5791FF" stroke-width="2" width="176.471" x="36" y="68.379" />
	<path d="M62.738 104.476H96.16v4.011H62.738z" fill="#B3CDFF" />
	<path d="M117.551 104.476h18.717v4.011h-18.717zm52.139 0h18.717v4.011H169.69z" fill="#80ACFF" />
	<path d="M48.032 104.476h4.011v4.011h-4.011zm0 12.032h4.011v4.011h-4.011z" fill="#B3CDFF" opacity=".5" />
	<path d="M62.738 116.508h34.759v4.011H62.738z" fill="#B3CDFF" />
	<path d="M117.551 116.508h24.064v4.011h-24.064zm52.139 0h24.064v4.011H169.69z" fill="#80ACFF" />
	<path d="M48.032 128.54h4.011v4.011h-4.011z" fill="#B3CDFF" opacity=".5" />
	<path d="M62.738 128.54H92.15v4.011H62.738z" fill="#B3CDFF" />
	<path d="M117.551 128.54h18.717v4.011h-18.717zm52.139 0h18.717v4.011H169.69z" fill="#80ACFF" />
	<path d="M48.032 140.572h4.011v4.011h-4.011z" fill="#B3CDFF" opacity=".5" />
	<path d="M62.738 140.572H96.16v4.011H62.738z" fill="#B3CDFF" />
	<path d="M117.551 140.572h22.727v4.011h-22.727zm52.139 0h22.727v4.011H169.69z" fill="#80ACFF" />
	<path d="M48.032 152.604h4.011v4.011h-4.011z" fill="#B3CDFF" opacity=".5" />
	<path d="M62.738 152.604h30.749v4.011H62.738zm54.813 0h21.39v4.011h-21.39zm52.139 0h21.39v4.011h-21.39z" fill="#B3CDFF" />
	<path d="M48.032 164.636h4.011v4.011h-4.011z" fill="#B3CDFF" opacity=".5" />
	<path d="M62.738 164.636H96.16v4.011H62.738zm54.813 0h22.727v4.011h-22.727zm52.139 0h22.727v4.011H169.69z" fill="#B3CDFF" />
	<path d="M62.738 77.738h34.759v4.011H62.738zm54.813 0h21.39v4.011h-21.39zm52.139 0h17.38v4.011h-17.38z" fill="#B3CDFF" opacity=".5" />
	<path d="M36 89.77h176.471v1.337H36z" fill="#B3CDFF" opacity=".3" />
	<path d="M153.647 68.38v114.972h-1.337V68.38z" fill="#0B5FFF" opacity=".4" />
	<rect fill="#0B5FFF" height="32.086" rx="5.348" width="32.086" x="53.802" y="161.962" />
	<mask height="18" id="_Illustration/All-Section__a" maskUnits="userSpaceOnUse" style="mask-type:alpha" width="13" x="63" y="169">
		<path d="M72.062 169.985h-6.768c-.831 0-1.504.673-1.504 1.504v13.035c0 .831.673 1.504 1.504 1.504h9.024c.831 0 1.504-.673 1.504-1.504v-10.779l-3.76-3.76Zm-4.512 6.016c.414 0 .752.338.752.752a.754.754 0 0 1-.752.752.754.754 0 0 1-.752-.752c0-.414.338-.752.752-.752Zm-1.504 5.264 2.256-3.008 1.504 1.504 1.504-2.256 2.256 3.76h-7.52Z" fill="#000" />
	</mask>
	<g mask="url(#_Illustration/All-Section__a)">
		<path d="M61.784 169.984h16.043v16.043H61.784z" fill="#F0F5FF" />
	</g>
	<rect fill="#0B5FFF" height="32.086" rx="5.348" width="32.086" x="137.385" y="51" />
	<mask height="17" id="_Illustration/All-Section__b" maskUnits="userSpaceOnUse" style="mask-type:alpha" width="13" x="147" y="59">
		<path d="M155.645 59.022h-6.768c-.832 0-1.504.673-1.504 1.504V73.56c0 .831.672 1.504 1.504 1.504h9.024c.831 0 1.504-.673 1.504-1.504V62.782l-3.76-3.76Zm-4.136 11.618V64.7l4.473 2.97-4.473 2.97Z" fill="#000" />
	</mask>
	<g mask="url(#_Illustration/All-Section__b)">
		<path d="M145.367 59.021h16.043v16.043h-16.043z" fill="#F0F5FF" />
	</g>
	<rect fill="#0B5FFF" height="32.086" rx="5.348" width="32.086" x="15" y="100.465" />
	<mask height="17" id="_Illustration/All-Section__c" maskUnits="userSpaceOnUse" style="mask-type:alpha" width="18" x="22" y="108">
		<path clip-rule="evenodd" d="M22.982 122.524v-12.032c0-1.106.9-2.006 2.006-2.006H37.02c1.106 0 2.005.9 2.005 2.006v12.032a2.007 2.007 0 0 1-2.005 2.005H24.988a2.007 2.007 0 0 1-2.006-2.005Zm14.038 0v-12.032H24.988v12.032H37.02Zm-2.507-4.011c.69 0 .658-1.003 0-1.003h-7.019c-.658 0-.658 1.003 0 1.003h7.019Zm-2.005 2.005h-5.014c-.69 0-.658-1.002 0-1.002h5.014c.626 0 .689 1.002 0 1.002Zm.501-5.013a2.005 2.005 0 1 0 0-4.01 2.005 2.005 0 0 0 0 4.01Zm-4.01-4.011-2.006 4.011h4.01l-2.005-4.011Z" fill="#6B6C7E" fill-rule="evenodd" />
	</mask>
	<g mask="url(#_Illustration/All-Section__c)">
		<path d="M22.982 108.486h16.043v16.043H22.982z" fill="#F0F5FF" />
	</g>
	<g filter="url(#_Illustration/All-Section__d)">
		<rect fill="#fff" height="42.781" rx="5.348" width="153.743" x="84.246" y="102" />
		<rect height="42.781" rx="5.348" stroke="#0B5FFF" stroke-opacity=".4" stroke-width="8.021" width="153.743" x="84.246" y="102" />
	</g>
	<rect fill="#fff" height="42.781" rx="4" width="153.743" x="84.246" y="102" />
	<rect fill="#F0F5FF" height="21.39" rx="5.348" width="21.39" x="94.941" y="112.695" />
	<mask height="11" id="_Illustration/All-Section__e" maskUnits="userSpaceOnUse" style="mask-type:alpha" width="9" x="101" y="118">
		<path clip-rule="evenodd" d="M107.114 118.043h-4.512c-.554 0-1.003.448-1.003 1.003v8.689c0 .555.449 1.003 1.003 1.003h6.016c.554 0 1.003-.448 1.003-1.003v-7.185l-2.507-2.507Zm1.17 5.013c0 .185-.15.334-.334.334h-4.679a.334.334 0 1 1 0-.668h4.679c.184 0 .334.15.334.334Zm-.334 1.003h-4.679a.335.335 0 1 0 0 .668h4.679a.334.334 0 1 0 0-.668Zm-4.679 1.337h2.005a.334.334 0 1 1 0 .668h-2.005a.334.334 0 1 1 0-.668Z" fill="#000" fill-rule="evenodd" />
	</mask>
	<g mask="url(#_Illustration/All-Section__e)">
		<path d="M100.263 118.043h10.695v10.695h-10.695z" fill="#0B5FFF" />
	</g>
	<path d="M127.027 116.706h46.791v5.348h-46.791z" fill="#80ACFF" />
	<path d="M127.027 127.401h80.214v2.674h-80.214z" fill="#80ACFF" opacity=".5" />
	<defs>
		<filter color-interpolation-filters="sRGB" filterUnits="userSpaceOnUse" height="66.802" id="_Illustration/All-Section__d" width="177.765" x="72.235" y="93.989">
			<feFlood flood-opacity="0" result="BackgroundImageFix" />
			<feColorMatrix in="SourceAlpha" result="hardAlpha" values="0 0 0 0 0 0 0 0 0 0 0 0 0 0 0 0 0 0 127 0" />
			<feOffset dy="4" />
			<feGaussianBlur stdDeviation="4" />
			<feColorMatrix values="0 0 0 0 0.152941 0 0 0 0 0.156863 0 0 0 0 0.2 0 0 0 0.12 0" />
			<feBlend in2="BackgroundImageFix" result="effect1_dropShadow_1833_33106" />
			<feBlend in="SourceGraphic" in2="effect1_dropShadow_1833_33106" result="shape" />
		</filter>
	</defs>
</svg>