<svg fill="none" height="250" viewBox="0 0 251 250" width="251" xmlns="http://www.w3.org/2000/svg">
	<path d="M77.3261 93.8817L51.5566 103.261C48.3914 104.413 46.7623 107.907 47.9144 111.072L64.5887 156.884C65.7408 160.05 69.2343 161.679 72.3996 160.527L106.759 148.021C109.924 146.869 111.553 143.375 110.401 140.21L96.8532 102.987L77.3261 93.8817Z" fill="#F1F2F5" />
	<path d="M77.3261 93.8817L51.5566 103.261C48.3914 104.413 46.7623 107.907 47.9144 111.072L64.5887 156.884C65.7408 160.05 69.2343 161.679 72.3996 160.527L106.759 148.021C109.924 146.869 111.553 143.375 110.401 140.21L96.8532 102.987L77.3261 93.8817ZM84.3685 139.957L70.0521 145.168L69.01 142.305L83.3264 137.094L84.3685 139.957ZM95.5584 126.157L66.9257 136.578L65.8835 133.715L94.5163 123.293L95.5584 126.157ZM92.432 117.567L63.7992 127.988L62.7571 125.125L91.3899 114.704L92.432 117.567Z" fill="#B3CDFF" />
	<path d="M190.853 100.312L165.084 90.9327C161.919 89.7806 158.425 91.4097 157.273 94.5749L140.599 140.387C139.447 143.553 141.076 147.046 144.241 148.198L178.6 160.704C181.766 161.856 185.259 160.227 186.411 157.062L199.959 119.839L190.853 100.312Z" fill="#F1F2F5" />
	<path d="M190.854 100.312L199.959 119.839L186.412 157.062C185.259 160.227 181.766 161.856 178.601 160.704L144.242 148.198C141.076 147.046 139.447 143.552 140.599 140.387L157.273 94.5744C158.425 91.4094 161.919 89.7806 165.085 90.9326L190.854 100.312ZM159.611 114.881L151.273 137.787L179.906 148.209L188.244 125.302L159.611 114.881ZM163.766 139.092L155.176 135.965L160.386 121.649L168.977 124.776L163.766 139.092ZM178.079 144.301L166.627 140.132L168.711 134.406L180.163 138.574L178.079 144.301ZM181.205 135.711L169.753 131.543L171.837 125.817L183.29 129.985L181.205 135.711Z" fill="#B3CDFF" />
	<path d="M137.473 85.6117L102.214 85.6117C97.8833 85.6117 94.3789 89.1162 94.3789 93.447L94.3789 156.129C94.3789 160.46 97.8833 163.964 102.214 163.964L149.226 163.964C153.556 163.964 157.061 160.46 157.061 156.129L157.061 105.2L137.473 85.6117Z" fill="#F1F2F5" />
	<path d="M137.473 85.6117L102.214 85.6117C97.8833 85.6117 94.3789 89.1162 94.3789 93.447L94.3789 156.129C94.3789 160.46 97.8833 163.964 102.214 163.964L149.226 163.964C153.556 163.964 157.061 160.46 157.061 156.129L157.061 105.2L137.473 85.6117ZM113.967 116.953C116.125 116.953 117.885 118.713 117.885 120.87C117.885 123.028 116.125 124.788 113.967 124.788C111.809 124.788 110.049 123.028 110.049 120.87C110.049 118.713 111.809 116.953 113.967 116.953ZM106.132 144.376L117.885 128.706L125.72 136.541L133.555 124.788L145.308 144.376L106.132 144.376Z" fill="#0B5FFF" />
</svg>