<svg fill="none" height="928" width="1450" xmlns="http://www.w3.org/2000/svg">
	<path d="M0 0h1450v928H0z" fill="#F1F2F5" />
	<rect fill="#fff" height="71" rx="35.5" width="263" x="145.5" y="289.5" />
	<rect height="71" rx="35.5" stroke="#B3CDFF" stroke-width="5" width="263" x="145.5" y="289.5" />
	<path d="M180 309.5c8.56 0 15.5 6.94 15.5 15.5 0 8.56-6.94 15.5-15.5 15.5-8.56 0-15.5-6.94-15.5-15.5 0-8.56 6.94-15.5 15.5-15.5Z" fill="#0B5FFF" />
	<path d="M180 309.5c8.56 0 15.5 6.94 15.5 15.5 0 8.56-6.94 15.5-15.5 15.5-8.56 0-15.5-6.94-15.5-15.5 0-8.56 6.94-15.5 15.5-15.5Z" stroke="#E2E4EA" />
	<path d="M213.217 320.5v-9.864h2.023l2.967 7.588h.116l2.96-7.588h2.024v9.864h-1.586v-7.014h-.123l-2.735 7.014h-1.203l-2.734-7.014h-.116v7.014h-1.593Zm14.383.123c-1.422 0-2.454-.875-2.454-2.235v-.014c0-1.333 1.018-2.112 2.836-2.222l1.921-.116v-.642c0-.746-.485-1.156-1.401-1.156-.779 0-1.285.281-1.456.773l-.007.027h-1.606l.006-.061c.165-1.258 1.368-2.092 3.145-2.092 1.921 0 3.001.929 3.001 2.509v5.106h-1.682v-1.025h-.116c-.41.724-1.203 1.148-2.187 1.148Zm-.773-2.317c0 .635.54 1.011 1.292 1.011 1.026 0 1.784-.67 1.784-1.558v-.602l-1.681.11c-.951.061-1.395.41-1.395 1.025v.014Zm9.277 2.344c-1.682 0-2.543-1.011-2.543-2.789v-4.833h1.702v4.444c0 1.155.43 1.743 1.456 1.743 1.1 0 1.688-.711 1.688-1.832v-4.355h1.702v7.472h-1.702v-1.135h-.116c-.349.8-1.107 1.285-2.187 1.285Zm6.084-.15v-7.472h1.702v1.149h.116c.253-.8.936-1.272 1.921-1.272.26 0 .526.034.69.082v1.525a4.267 4.267 0 0 0-.847-.096c-1.135 0-1.88.677-1.88 1.743v4.341h-1.702Zm8.832.15c-2.222 0-3.569-1.49-3.569-3.869v-.007c0-2.351 1.361-3.889 3.487-3.889 2.125 0 3.438 1.49 3.438 3.746v.56h-5.223c.021 1.34.745 2.12 1.901 2.12.923 0 1.449-.465 1.613-.807l.021-.048h1.62l-.021.062c-.239.963-1.237 2.132-3.267 2.132Zm-.062-6.432c-.95 0-1.661.642-1.791 1.832h3.548c-.116-1.224-.807-1.832-1.757-1.832Zm8.319 6.432c-2.221 0-3.568-1.49-3.568-3.869v-.007c0-2.351 1.36-3.889 3.486-3.889 2.126 0 3.439 1.49 3.439 3.746v.56h-5.223c.021 1.34.745 2.12 1.901 2.12.922 0 1.449-.465 1.613-.807l.02-.048h1.62l-.02.062c-.239.963-1.237 2.132-3.268 2.132Zm-.061-6.432c-.95 0-1.661.642-1.791 1.832h3.548c-.117-1.224-.807-1.832-1.757-1.832Zm5.12 6.282v-7.472h1.702v1.142h.116c.356-.8 1.074-1.285 2.154-1.285 1.668 0 2.577 1.005 2.577 2.782v4.833h-1.702v-4.437c0-1.162-.472-1.75-1.504-1.75-1.012 0-1.641.711-1.641 1.833v4.354h-1.702Zm12.469 0v-9.864h1.763v4.101h4.799v-4.101h1.757v9.864h-1.757v-4.279h-4.799v4.279h-1.763Zm12.619.123c-1.422 0-2.454-.875-2.454-2.235v-.014c0-1.333 1.018-2.112 2.837-2.222l1.921-.116v-.642c0-.746-.486-1.156-1.402-1.156-.779 0-1.285.281-1.456.773l-.007.027h-1.606l.007-.061c.164-1.258 1.367-2.092 3.144-2.092 1.921 0 3.001.929 3.001 2.509v5.106h-1.681v-1.025h-.117c-.41.724-1.203 1.148-2.187 1.148Zm-.773-2.317c0 .635.54 1.011 1.292 1.011 1.026 0 1.785-.67 1.785-1.558v-.602l-1.682.11c-.95.061-1.395.41-1.395 1.025v.014Zm6.87 2.194v-10.363h1.703V320.5h-1.703Zm3.924 0v-10.363h1.702V320.5h-1.702Z" fill="#111116" />
	<path d="M217.021 339.711c-2.396 0-3.884-1.699-3.884-4.43v-.011c0-2.743 1.482-4.436 3.879-4.436 1.922 0 3.38 1.219 3.58 2.947v.047h-1.483l-.006-.023c-.216-1.002-1.025-1.664-2.091-1.664-1.436 0-2.332 1.201-2.332 3.123v.011c0 1.928.896 3.129 2.337 3.129 1.073 0 1.87-.597 2.086-1.529l.006-.029h1.483v.041c-.223 1.693-1.623 2.824-3.575 2.824Zm7.875-.082c-1.921 0-3.082-1.254-3.082-3.328v-.012c0-2.057 1.178-3.316 3.082-3.316 1.911 0 3.083 1.254 3.083 3.316v.012c0 2.074-1.167 3.328-3.083 3.328Zm0-1.184c1.014 0 1.588-.791 1.588-2.138v-.012c0-1.348-.58-2.145-1.588-2.145-1.013 0-1.593.797-1.593 2.145v.012c0 1.347.58 2.138 1.593 2.138Zm4.547 1.055v-6.404h1.459v.978h.1c.305-.685.92-1.101 1.846-1.101 1.429 0 2.209.861 2.209 2.384v4.143h-1.459v-3.803c0-.996-.405-1.5-1.289-1.5-.868 0-1.407.61-1.407 1.571v3.732h-1.459Zm9.856.029c-1.471 0-2.074-.492-2.074-1.728v-3.574h-.996v-1.131h.996v-1.571h1.482v1.571h1.354v1.131h-1.354v3.228c0 .639.252.908.861.908.205 0 .317-.006.493-.023v1.125a4.164 4.164 0 0 1-.762.064Zm4.898.1c-1.904 0-3.058-1.277-3.058-3.317v-.005c0-2.016 1.166-3.334 2.988-3.334s2.947 1.277 2.947 3.211v.48h-4.476c.017 1.148.638 1.816 1.629 1.816.791 0 1.242-.398 1.382-.691l.018-.041h1.389l-.018.053c-.205.826-1.06 1.828-2.801 1.828Zm-.052-5.514c-.815 0-1.424.551-1.536 1.571h3.041c-.099-1.049-.691-1.571-1.505-1.571Zm4.388 5.385v-6.404h1.459v.978h.1c.304-.685.92-1.101 1.846-1.101 1.429 0 2.208.861 2.208 2.384v4.143h-1.458v-3.803c0-.996-.405-1.5-1.29-1.5-.867 0-1.406.61-1.406 1.571v3.732h-1.459Zm9.856.029c-1.471 0-2.075-.492-2.075-1.728v-3.574h-.996v-1.131h.996v-1.571h1.483v1.571h1.353v1.131h-1.353v3.228c0 .639.252.908.861.908.205 0 .317-.006.492-.023v1.125c-.211.041-.48.064-.761.064Zm5.566-.029v-8.455h3.416c1.817 0 2.906 1.014 2.906 2.625v.012c0 1.119-.591 2.045-1.593 2.408l1.845 3.41h-1.728l-1.658-3.182h-1.676v3.182h-1.512Zm1.512-4.342h1.746c.955 0 1.512-.533 1.512-1.441v-.012c0-.885-.58-1.435-1.541-1.435h-1.717v2.888Zm9.035 4.471c-1.904 0-3.059-1.277-3.059-3.317v-.005c0-2.016 1.166-3.334 2.989-3.334 1.822 0 2.947 1.277 2.947 3.211v.48h-4.477c.018 1.148.639 1.816 1.629 1.816.791 0 1.242-.398 1.383-.691l.018-.041h1.388l-.017.053c-.205.826-1.061 1.828-2.801 1.828Zm-.053-5.514c-.814 0-1.424.551-1.535 1.571h3.041c-.1-1.049-.691-1.571-1.506-1.571Zm5.959 5.385-2.279-6.404h1.559l1.482 4.98h.1l1.47-4.98h1.535l-2.267 6.404h-1.6Zm5.848-7.477a.864.864 0 0 1-.873-.861c0-.474.392-.861.873-.861.474 0 .867.387.867.861a.864.864 0 0 1-.867.861Zm-.733 7.477v-6.404h1.459v6.404h-1.459Zm5.995.129c-1.905 0-3.059-1.277-3.059-3.317v-.005c0-2.016 1.166-3.334 2.988-3.334 1.823 0 2.948 1.277 2.948 3.211v.48h-4.477c.018 1.148.639 1.816 1.629 1.816.791 0 1.242-.398 1.383-.691l.017-.041h1.389l-.018.053c-.205.826-1.06 1.828-2.8 1.828Zm-.053-5.514c-.815 0-1.424.551-1.535 1.571h3.041c-.1-1.049-.692-1.571-1.506-1.571Zm5.525 5.385-1.734-6.404h1.465l1.066 4.81h.1l1.23-4.81h1.389l1.242 4.81h.1l1.06-4.81h1.447l-1.734 6.404h-1.529l-1.248-4.641h-.1l-1.242 4.641h-1.512Zm11.121.129c-1.904 0-3.058-1.277-3.058-3.317v-.005c0-2.016 1.166-3.334 2.988-3.334s2.947 1.277 2.947 3.211v.48h-4.476c.017 1.148.638 1.816 1.629 1.816.791 0 1.242-.398 1.382-.691l.018-.041h1.389l-.018.053c-.205.826-1.06 1.828-2.801 1.828Zm-.052-5.514c-.815 0-1.424.551-1.536 1.571h3.041c-.099-1.049-.691-1.571-1.505-1.571Zm4.388 5.385v-6.404h1.459v.984h.1c.217-.685.803-1.09 1.646-1.09.223 0 .452.03.592.071v1.306a3.66 3.66 0 0 0-.726-.082c-.973 0-1.612.58-1.612 1.494v3.721h-1.459Z" fill="#6B6C7E" />
	<path d="M460 125v64c0 8.837-7.163 16-16 16H236c-8.837 0-16 7.163-16 16v68m240-123v79c0 8.837 7.163 16 16 16h127c8.837 0 16 7.163 16 16v22.5" stroke="#80ACFF" stroke-dasharray="7 4" stroke-width="2" />
	<rect fill="#0B5FFF" height="40" rx="8" width="267" x="326" y="85" />
	<path d="M343.758 111V99.727h2.015V111h-2.015Zm4.594 0v-8.539h1.945v1.305h.133c.406-.914 1.226-1.469 2.461-1.469 1.906 0 2.945 1.148 2.945 3.18V111h-1.945v-5.07c0-1.328-.539-2-1.719-2-1.156 0-1.875.812-1.875 2.093V111h-1.945Zm11.812 0-3.039-8.539h2.078l1.977 6.641h.132l1.961-6.641h2.047L362.297 111h-2.133Zm7.797-9.969a1.153 1.153 0 0 1-1.164-1.148c0-.633.523-1.149 1.164-1.149.633 0 1.156.516 1.156 1.149 0 .64-.523 1.148-1.156 1.148Zm-.977 9.969v-8.539h1.946V111h-1.946Zm7.696.039c-1.961 0-2.766-.656-2.766-2.305v-4.765h-1.328v-1.508h1.328v-2.094h1.977v2.094h1.804v1.508h-1.804v4.304c0 .852.336 1.211 1.148 1.211.273 0 .422-.007.656-.031v1.5c-.281.055-.64.086-1.015.086Zm6.531.133c-2.539 0-4.078-1.703-4.078-4.422v-.008c0-2.687 1.555-4.445 3.984-4.445 2.43 0 3.93 1.703 3.93 4.281v.641h-5.969c.024 1.531.852 2.422 2.172 2.422 1.055 0 1.656-.532 1.844-.922l.023-.055h1.852l-.024.07c-.273 1.102-1.414 2.438-3.734 2.438Zm-.07-7.352c-1.086 0-1.899.735-2.047 2.094h4.054c-.132-1.398-.921-2.094-2.007-2.094Zm10.117 7.18v-8.539h1.945v1.328h.133c.367-.953 1.226-1.492 2.344-1.492 1.156 0 2 .594 2.367 1.539h.133c.414-.93 1.398-1.539 2.586-1.539 1.718 0 2.75 1.055 2.75 2.828V111h-1.946v-5.398c0-1.11-.508-1.672-1.547-1.672-1.015 0-1.671.758-1.671 1.734V111h-1.946v-5.539c0-.945-.586-1.531-1.539-1.531-.961 0-1.664.812-1.664 1.875V111h-1.945Zm18.219.172c-2.539 0-4.079-1.703-4.079-4.422v-.008c0-2.687 1.555-4.445 3.985-4.445 2.429 0 3.929 1.703 3.929 4.281v.641h-5.968c.023 1.531.851 2.422 2.172 2.422 1.054 0 1.656-.532 1.843-.922l.024-.055h1.851l-.023.07c-.273 1.102-1.414 2.438-3.734 2.438Zm-.071-7.352c-1.086 0-1.898.735-2.047 2.094h4.055c-.133-1.398-.922-2.094-2.008-2.094Zm5.852 7.18v-8.539h1.945v1.328h.133c.367-.953 1.226-1.492 2.344-1.492 1.156 0 2 .594 2.367 1.539h.133c.414-.93 1.398-1.539 2.586-1.539 1.718 0 2.75 1.055 2.75 2.828V111h-1.946v-5.398c0-1.11-.508-1.672-1.547-1.672-1.015 0-1.671.758-1.671 1.734V111h-1.946v-5.539c0-.945-.586-1.531-1.539-1.531-.961 0-1.664.812-1.664 1.875V111h-1.945Zm19.312.141c-1.195 0-2.125-.547-2.593-1.477h-.133V111h-1.946V99.156h1.946v4.664h.133c.445-.922 1.421-1.5 2.593-1.5 2.164 0 3.508 1.688 3.508 4.407v.015c0 2.703-1.367 4.399-3.508 4.399Zm-.609-1.641c1.328 0 2.133-1.039 2.133-2.758v-.015c0-1.719-.805-2.766-2.133-2.766-1.32 0-2.141 1.055-2.141 2.766v.015c0 1.711.821 2.758 2.141 2.758Zm9.719 1.672c-2.539 0-4.078-1.703-4.078-4.422v-.008c0-2.687 1.554-4.445 3.984-4.445 2.43 0 3.93 1.703 3.93 4.281v.641h-5.969c.023 1.531.851 2.422 2.172 2.422 1.054 0 1.656-.532 1.843-.922l.024-.055h1.852l-.024.07c-.273 1.102-1.414 2.438-3.734 2.438Zm-.071-7.352c-1.086 0-1.898.735-2.047 2.094h4.055c-.133-1.398-.922-2.094-2.008-2.094Zm5.852 7.18v-8.539h1.945v1.312h.133c.289-.914 1.07-1.453 2.195-1.453.297 0 .602.039.789.094v1.742a4.93 4.93 0 0 0-.968-.109c-1.297 0-2.149.773-2.149 1.992V111h-1.945Zm9.695.172c-2.172 0-3.484-1-3.648-2.445v-.016h1.93l.007.016c.203.593.774 1.007 1.743 1.007.968 0 1.64-.437 1.64-1.078v-.015c0-.5-.375-.829-1.312-1.039l-1.383-.313c-1.625-.359-2.399-1.125-2.399-2.383v-.008c0-1.539 1.407-2.601 3.422-2.601 2.078 0 3.321 1.031 3.446 2.414v.016h-1.829l-.007-.024c-.141-.539-.704-.976-1.618-.976-.867 0-1.492.421-1.492 1.062v.008c0 .5.36.805 1.282 1.015l1.382.305c1.672.375 2.461 1.086 2.461 2.328v.016c0 1.625-1.523 2.711-3.625 2.711Zm13.211-.133c-1.961 0-2.765-.656-2.765-2.305v-4.765h-1.329v-1.508h1.329v-2.094h1.976v2.094h1.805v1.508h-1.805v4.304c0 .852.336 1.211 1.149 1.211.273 0 .421-.007.656-.031v1.5a5.512 5.512 0 0 1-1.016.086Zm6.563.133c-2.563 0-4.11-1.672-4.11-4.438v-.015c0-2.742 1.571-4.422 4.11-4.422 2.547 0 4.109 1.672 4.109 4.422v.015c0 2.766-1.555 4.438-4.109 4.438Zm0-1.578c1.351 0 2.117-1.055 2.117-2.852v-.015c0-1.797-.774-2.86-2.117-2.86-1.352 0-2.125 1.063-2.125 2.86v.015c0 1.797.773 2.852 2.125 2.852Zm13.992 1.578c-2.57 0-4.086-1.664-4.086-4.453v-.016c0-2.758 1.508-4.406 4.078-4.406 2.195 0 3.508 1.219 3.727 2.984v.031h-1.836l-.008-.023c-.18-.828-.813-1.422-1.875-1.422-1.328 0-2.11 1.047-2.11 2.836v.016c0 1.812.79 2.875 2.11 2.875 1.008 0 1.625-.461 1.867-1.36l.016-.031 1.836-.008-.016.063c-.281 1.75-1.539 2.914-3.703 2.914Zm9.258 0c-2.563 0-4.11-1.672-4.11-4.438v-.015c0-2.742 1.571-4.422 4.11-4.422 2.547 0 4.109 1.672 4.109 4.422v.015c0 2.766-1.555 4.438-4.109 4.438Zm0-1.578c1.351 0 2.117-1.055 2.117-2.852v-.015c0-1.797-.774-2.86-2.117-2.86-1.352 0-2.125 1.063-2.125 2.86v.015c0 1.797.773 2.852 2.125 2.852Zm6.14 1.406V99.156h1.946V111h-1.946Zm4.485 0V99.156h1.945V111h-1.945Zm6.734.141c-1.625 0-2.805-1-2.805-2.555v-.016c0-1.523 1.164-2.414 3.243-2.539l2.195-.133v-.734c0-.852-.555-1.32-1.602-1.32-.89 0-1.468.32-1.664.883l-.008.031h-1.836l.008-.07c.188-1.438 1.563-2.391 3.594-2.391 2.195 0 3.43 1.062 3.43 2.867V111h-1.922v-1.172h-.133c-.469.828-1.375 1.313-2.5 1.313Zm-.883-2.649c0 .727.617 1.156 1.477 1.156 1.172 0 2.039-.765 2.039-1.781v-.687l-1.922.125c-1.086.07-1.594.468-1.594 1.172v.015Zm12.524 2.649c-1.196 0-2.125-.547-2.594-1.477h-.133V111h-1.945V99.156h1.945v4.664h.133c.445-.922 1.422-1.5 2.594-1.5 2.164 0 3.508 1.688 3.508 4.407v.015c0 2.703-1.368 4.399-3.508 4.399Zm-.61-1.641c1.328 0 2.133-1.039 2.133-2.758v-.015c0-1.719-.805-2.766-2.133-2.766-1.32 0-2.14 1.055-2.14 2.766v.015c0 1.711.82 2.758 2.14 2.758Zm9.75 1.672c-2.562 0-4.109-1.672-4.109-4.438v-.015c0-2.742 1.57-4.422 4.109-4.422 2.547 0 4.11 1.672 4.11 4.422v.015c0 2.766-1.555 4.438-4.11 4.438Zm0-1.578c1.352 0 2.118-1.055 2.118-2.852v-.015c0-1.797-.774-2.86-2.118-2.86-1.351 0-2.125 1.063-2.125 2.86v.015c0 1.797.774 2.852 2.125 2.852Zm6.063 1.406v-8.539h1.945v1.312h.133c.289-.914 1.07-1.453 2.195-1.453.297 0 .602.039.789.094v1.742a4.94 4.94 0 0 0-.968-.109c-1.297 0-2.149.773-2.149 1.992V111h-1.945Zm8.875.141c-1.625 0-2.805-1-2.805-2.555v-.016c0-1.523 1.164-2.414 3.242-2.539l2.196-.133v-.734c0-.852-.555-1.32-1.602-1.32-.891 0-1.469.32-1.664.883l-.008.031h-1.836l.008-.07c.188-1.438 1.563-2.391 3.594-2.391 2.195 0 3.429 1.062 3.429 2.867V111h-1.921v-1.172h-.133c-.469.828-1.375 1.313-2.5 1.313Zm-.883-2.649c0 .727.617 1.156 1.477 1.156 1.171 0 2.039-.765 2.039-1.781v-.687l-1.922.125c-1.086.07-1.594.468-1.594 1.172v.015Zm11.133 2.547c-1.961 0-2.766-.656-2.766-2.305v-4.765h-1.328v-1.508h1.328v-2.094h1.977v2.094h1.804v1.508h-1.804v4.304c0 .852.336 1.211 1.148 1.211.274 0 .422-.007.656-.031v1.5c-.281.055-.64.086-1.015.086Zm6.531.133c-2.539 0-4.078-1.703-4.078-4.422v-.008c0-2.687 1.555-4.445 3.984-4.445 2.43 0 3.93 1.703 3.93 4.281v.641h-5.969c.024 1.531.852 2.422 2.172 2.422 1.055 0 1.656-.532 1.844-.922l.023-.055h1.852l-.024.07c-.273 1.102-1.414 2.438-3.734 2.438Zm-.07-7.352c-1.086 0-1.899.735-2.047 2.094h4.055c-.133-1.398-.922-2.094-2.008-2.094Z" fill="#fff" />
	<path d="M261.707 596.707a.999.999 0 0 0 0-1.414l-6.364-6.364a.999.999 0 1 0-1.414 1.414l5.657 5.657-5.657 5.657a.999.999 0 1 0 1.414 1.414l6.364-6.364ZM217 360h-1v3.5h2V360h-1Zm0 7.5h-1v7h2v-7h-1Zm0 11h-1v7h2v-7h-1Zm0 11h-1v7h2v-7h-1Zm0 11h-1v7h2v-7h-1Zm0 11h-1v7h2v-7h-1Zm0 11h-1v7h2v-7h-1Zm0 11h-1v7h2v-7h-1Zm0 11h-1v7h2v-7h-1Zm0 11h-1v7h2v-7h-1Zm0 11h-1v7h2v-7h-1Zm0 11h-1v7h2v-7h-1Zm0 11h-1v7h2v-7h-1Zm0 11h-1v7h2v-7h-1Zm0 11h-1v7h2v-7h-1Zm0 11h-1v7h2v-7h-1Zm0 11h-1v7h2v-7h-1Zm0 11h-1v7h2v-7h-1Zm0 11h-1v7h2v-7h-1Zm0 11h-1v7h2v-7h-1Zm0 11h-1v3.5h2v-3.5h-1Zm0 3.5h-1c0 1.45.182 2.859.524 4.205l.969-.247.969-.246A15.075 15.075 0 0 1 218 580h-1Zm2.238 8.165-.86.512a17.075 17.075 0 0 0 5.945 5.945l.512-.86.511-.859a15.076 15.076 0 0 1-5.249-5.249l-.859.511Zm9.804 7.342-.247.969c1.346.342 2.755.524 4.205.524v-2c-1.282 0-2.526-.161-3.711-.462l-.247.969ZM233 596v1h2.97v-2H233v1Zm6.364 0v1h5.939v-2h-5.939v1Zm9.333 0v1h5.939v-2h-5.939v1Zm9.333 0v1H261v-2h-2.97v1Zm360.263-126.293a.999.999 0 0 0 1.414 0l6.364-6.364a.999.999 0 1 0-1.414-1.414L619 467.586l-5.657-5.657a.999.999 0 1 0-1.414 1.414l6.364 6.364ZM619 297h-1v3.42h2V297h-1Zm0 7.33h-1v6.84h2v-6.84h-1Zm0 10.75h-1v6.84h2v-6.84h-1Zm0 10.75h-1v6.84h2v-6.84h-1Zm0 10.75h-1v6.84h2v-6.84h-1Zm0 10.75h-1v6.84h2v-6.84h-1Zm0 10.75h-1v6.84h2v-6.84h-1Zm0 10.75h-1v6.84h2v-6.84h-1Zm0 10.75h-1v6.84h2v-6.84h-1Zm0 10.75h-1v6.84h2v-6.84h-1Zm0 10.75h-1v6.84h2v-6.84h-1Zm0 10.75h-1v6.84h2v-6.84h-1Zm0 10.75h-1v6.84h2v-6.84h-1Zm0 10.75h-1v6.84h2v-6.84h-1Zm0 10.75h-1v6.84h2v-6.84h-1Zm0 10.75h-1v6.84h2v-6.84h-1Zm0 10.75h-1V469h2v-3.42h-1Z" fill="#80ACFF" />
	<rect height="67" rx="33.5" stroke="#0B5FFF" width="258" x="148.5" y="291.5" />
	<rect fill="#fff" height="65" rx="32.5" width="249" x="494.5" y="227.5" />
	<rect height="65" rx="32.5" stroke="#CDCED9" width="249" x="494.5" y="227.5" />
	<path d="M526 244.5c8.56 0 15.5 6.94 15.5 15.5 0 8.56-6.94 15.5-15.5 15.5-8.56 0-15.5-6.94-15.5-15.5 0-8.56 6.94-15.5 15.5-15.5Z" fill="#FFC933" />
	<path d="M526 244.5c8.56 0 15.5 6.94 15.5 15.5 0 8.56-6.94 15.5-15.5 15.5-8.56 0-15.5-6.94-15.5-15.5 0-8.56 6.94-15.5 15.5-15.5Z" stroke="#E2E4EA" />
	<path d="M562.642 255.746c-2.29 0-3.746-1.128-3.87-2.83l-.006-.096h1.709l.006.069c.082.827.964 1.374 2.215 1.374 1.19 0 2.024-.588 2.024-1.436v-.007c0-.711-.513-1.141-1.784-1.415l-1.06-.218c-2.017-.424-2.892-1.368-2.892-2.837v-.007c0-1.764 1.518-2.953 3.651-2.953 2.187 0 3.548 1.196 3.671 2.782l.006.089h-1.688l-.014-.082c-.123-.766-.854-1.313-1.982-1.306-1.094 0-1.873.513-1.873 1.354v.006c0 .698.499 1.135 1.729 1.395l1.06.226c2.078.437 2.946 1.271 2.946 2.761v.007c0 1.921-1.483 3.124-3.848 3.124Zm7.622-.123c-1.422 0-2.454-.875-2.454-2.235v-.014c0-1.333 1.018-2.112 2.836-2.222l1.921-.116v-.642c0-.746-.485-1.156-1.401-1.156-.779 0-1.285.281-1.456.773l-.007.027h-1.606l.007-.061c.164-1.258 1.367-2.092 3.144-2.092 1.921 0 3.001.929 3.001 2.509v5.106h-1.682v-1.025h-.116c-.41.724-1.203 1.148-2.187 1.148Zm-.773-2.317c0 .635.54 1.011 1.292 1.011 1.026 0 1.784-.67 1.784-1.558v-.602l-1.681.11c-.95.061-1.395.41-1.395 1.025v.014Zm6.802 2.194v-7.472h1.702v1.162h.116c.322-.834 1.074-1.305 2.051-1.305 1.012 0 1.75.519 2.071 1.346h.117c.362-.813 1.223-1.346 2.262-1.346 1.504 0 2.407.923 2.407 2.474v5.141h-1.703v-4.724c0-.97-.444-1.463-1.353-1.463-.889 0-1.463.664-1.463 1.518v4.669h-1.702v-4.847c0-.827-.513-1.34-1.347-1.34-.841 0-1.456.711-1.456 1.641v4.546h-1.702Zm14.779.123c-1.422 0-2.454-.875-2.454-2.235v-.014c0-1.333 1.019-2.112 2.837-2.222l1.921-.116v-.642c0-.746-.485-1.156-1.401-1.156-.78 0-1.286.281-1.456.773l-.007.027h-1.607l.007-.061c.164-1.258 1.367-2.092 3.145-2.092 1.921 0 3.001.929 3.001 2.509v5.106h-1.682v-1.025h-.116c-.41.724-1.203 1.148-2.188 1.148Zm-.772-2.317c0 .635.54 1.011 1.292 1.011 1.025 0 1.784-.67 1.784-1.558v-.602l-1.682.11c-.95.061-1.394.41-1.394 1.025v.014Zm6.802 2.194v-7.472h1.702v1.142h.116c.355-.8 1.073-1.285 2.153-1.285 1.668 0 2.577 1.005 2.577 2.782v4.833h-1.702v-4.437c0-1.162-.471-1.75-1.504-1.75-1.011 0-1.64.711-1.64 1.833v4.354h-1.702Zm11.498.034c-1.716 0-2.42-.574-2.42-2.016v-4.17h-1.162v-1.32h1.162v-1.832h1.729v1.832h1.579v1.32h-1.579v3.766c0 .745.294 1.06 1.005 1.06.239 0 .369-.007.574-.028v1.313c-.246.048-.56.075-.888.075Zm2.652-.034v-10.363h1.702v4.033h.116c.356-.8 1.074-1.285 2.154-1.285 1.668 0 2.577 1.005 2.577 2.782v4.833h-1.702v-4.437c0-1.162-.472-1.75-1.504-1.75-1.012 0-1.641.711-1.641 1.833v4.354h-1.702Zm10.596.123c-1.422 0-2.454-.875-2.454-2.235v-.014c0-1.333 1.018-2.112 2.836-2.222l1.921-.116v-.642c0-.746-.485-1.156-1.401-1.156-.779 0-1.285.281-1.456.773l-.007.027h-1.606l.007-.061c.164-1.258 1.367-2.092 3.144-2.092 1.921 0 3.001.929 3.001 2.509v5.106h-1.682v-1.025h-.116c-.41.724-1.203 1.148-2.187 1.148Zm-.773-2.317c0 .635.54 1.011 1.292 1.011 1.026 0 1.784-.67 1.784-1.558v-.602l-1.681.11c-.95.061-1.395.41-1.395 1.025v.014Zm14.827 2.44c-2.796 0-4.532-1.982-4.532-5.168v-.014c0-3.199 1.73-5.174 4.526-5.174 2.242 0 3.944 1.422 4.176 3.438v.055h-1.729l-.007-.028c-.253-1.168-1.196-1.941-2.44-1.941-1.675 0-2.721 1.401-2.721 3.644v.013c0 2.249 1.046 3.651 2.727 3.651 1.251 0 2.181-.698 2.434-1.784l.007-.035h1.729v.048c-.26 1.976-1.893 3.295-4.17 3.295Zm6.03-.246v-10.363h1.702v4.033h.116c.355-.8 1.073-1.285 2.153-1.285 1.668 0 2.577 1.005 2.577 2.782v4.833h-1.702v-4.437c0-1.162-.471-1.75-1.504-1.75-1.011 0-1.64.711-1.64 1.833v4.354h-1.702Zm8.558 0v-7.472h1.702v1.149h.117c.253-.8.936-1.272 1.92-1.272.26 0 .527.034.691.082v1.525a4.277 4.277 0 0 0-.848-.096c-1.134 0-1.88.677-1.88 1.743v4.341h-1.702Zm6.699-8.723a1.01 1.01 0 0 1-1.018-1.005c0-.553.458-1.004 1.018-1.004.554 0 1.012.451 1.012 1.004 0 .561-.458 1.005-1.012 1.005Zm-.854 8.723v-7.472h1.702v7.472h-1.702Zm6.617.15c-1.9 0-3.049-.875-3.192-2.139v-.014h1.688l.007.014c.178.519.677.882 1.524.882.848 0 1.436-.383 1.436-.944v-.013c0-.438-.328-.725-1.148-.91l-1.21-.273c-1.422-.315-2.099-.984-2.099-2.085v-.007c0-1.347 1.23-2.276 2.994-2.276 1.819 0 2.905.902 3.015 2.112v.014h-1.6l-.007-.021c-.123-.471-.615-.854-1.415-.854-.758 0-1.305.369-1.305.929v.007c0 .438.314.704 1.121.889l1.21.267c1.463.328 2.153.95 2.153 2.037v.013c0 1.422-1.333 2.372-3.172 2.372Zm7.773-.116c-1.716 0-2.42-.574-2.42-2.016v-4.17h-1.162v-1.32h1.162v-1.832h1.729v1.832h1.579v1.32h-1.579v3.766c0 .745.294 1.06 1.005 1.06.239 0 .369-.007.574-.028v1.313c-.246.048-.56.075-.888.075Zm5.714.116c-2.221 0-3.568-1.49-3.568-3.869v-.007c0-2.351 1.36-3.889 3.486-3.889 2.126 0 3.439 1.49 3.439 3.746v.56h-5.223c.021 1.34.745 2.12 1.901 2.12.922 0 1.449-.465 1.613-.807l.02-.048h1.621l-.021.062c-.239.963-1.237 2.132-3.268 2.132Zm-.061-6.432c-.95 0-1.661.642-1.791 1.832h3.548c-.116-1.224-.807-1.832-1.757-1.832Zm5.12 6.282v-7.472h1.702v1.142h.116c.356-.8 1.074-1.285 2.154-1.285 1.668 0 2.577 1.005 2.577 2.782v4.833h-1.702v-4.437c0-1.162-.472-1.75-1.504-1.75-1.012 0-1.641.711-1.641 1.833v4.354h-1.702Zm11.382.15c-1.901 0-3.049-.875-3.192-2.139v-.014h1.688l.007.014c.178.519.677.882 1.524.882.848 0 1.436-.383 1.436-.944v-.013c0-.438-.328-.725-1.149-.91l-1.21-.273c-1.422-.315-2.098-.984-2.098-2.085v-.007c0-1.347 1.23-2.276 2.994-2.276 1.818 0 2.905.902 3.015 2.112v.014h-1.6l-.007-.021c-.123-.471-.615-.854-1.415-.854-.759 0-1.306.369-1.306.929v.007c0 .438.315.704 1.121.889l1.21.267c1.463.328 2.154.95 2.154 2.037v.013c0 1.422-1.333 2.372-3.172 2.372Zm8.087 0c-2.222 0-3.569-1.49-3.569-3.869v-.007c0-2.351 1.361-3.889 3.487-3.889 2.126 0 3.438 1.49 3.438 3.746v.56h-5.222c.02 1.34.745 2.12 1.9 2.12.923 0 1.449-.465 1.613-.807l.021-.048h1.62l-.021.062c-.239.963-1.237 2.132-3.267 2.132Zm-.062-6.432c-.95 0-1.661.642-1.791 1.832h3.548c-.116-1.224-.807-1.832-1.757-1.832Zm5.12 6.282v-7.472h1.703v1.142h.116c.355-.8 1.073-1.285 2.153-1.285 1.668 0 2.577 1.005 2.577 2.782v4.833h-1.702v-4.437c0-1.162-.472-1.75-1.504-1.75-1.012 0-1.64.711-1.64 1.833v4.354h-1.703Z" fill="#111116" />
	<path d="M562.422 274.711c-1.963 0-3.211-.967-3.317-2.426l-.005-.082h1.464l.006.059c.071.709.826 1.177 1.899 1.177 1.019 0 1.734-.503 1.734-1.23v-.006c0-.609-.439-.978-1.529-1.213l-.908-.187c-1.729-.364-2.479-1.172-2.479-2.432v-.006c0-1.511 1.301-2.531 3.129-2.531 1.875 0 3.041 1.025 3.146 2.385l.006.076h-1.447l-.012-.07c-.105-.657-.732-1.125-1.699-1.12-.937 0-1.605.44-1.605 1.161v.005c0 .598.427.973 1.482 1.196l.908.193c1.782.375 2.526 1.09 2.526 2.367v.006c0 1.647-1.272 2.678-3.299 2.678Zm4.846 1.916v-8.531h1.459v1.002h.099c.352-.698 1.049-1.108 1.945-1.108 1.606 0 2.631 1.278 2.631 3.305v.012c0 2.039-1.007 3.298-2.631 3.298-.878 0-1.611-.433-1.945-1.125h-.099v3.147h-1.459Zm3.046-3.252c.997 0 1.6-.785 1.6-2.068v-.012c0-1.289-.603-2.074-1.6-2.074-.99 0-1.605.785-1.605 2.068v.012c0 1.283.615 2.074 1.605 2.074Zm6.305 1.23c-1.219 0-2.103-.75-2.103-1.916v-.011c0-1.143.873-1.811 2.431-1.905l1.647-.099v-.551c0-.639-.416-.99-1.201-.99-.668 0-1.102.24-1.248.662l-.006.023h-1.377l.006-.052c.14-1.078 1.171-1.793 2.695-1.793 1.646 0 2.572.797 2.572 2.15v4.377h-1.441v-.879h-.1c-.351.621-1.031.984-1.875.984Zm-.662-1.986c0 .545.463.867 1.107.867.879 0 1.53-.574 1.53-1.336v-.515l-1.442.094c-.814.052-1.195.351-1.195.878v.012Zm8.578 2.01c-1.928 0-3.064-1.248-3.064-3.34v-.012c0-2.068 1.131-3.304 3.058-3.304 1.647 0 2.631.914 2.795 2.238v.023h-1.377l-.006-.017c-.134-.621-.609-1.067-1.406-1.067-.996 0-1.582.786-1.582 2.127v.012c0 1.359.592 2.156 1.582 2.156.756 0 1.219-.345 1.401-1.019l.011-.024 1.377-.006-.012.047c-.21 1.313-1.154 2.186-2.777 2.186Zm6.92 0c-1.904 0-3.059-1.277-3.059-3.317v-.005c0-2.016 1.166-3.334 2.989-3.334 1.822 0 2.947 1.277 2.947 3.211v.48h-4.477c.018 1.148.639 1.816 1.629 1.816.791 0 1.243-.398 1.383-.691l.018-.041h1.388l-.017.053c-.205.826-1.061 1.828-2.801 1.828Zm-.053-5.514c-.814 0-1.423.551-1.535 1.571h3.041c-.099-1.049-.691-1.571-1.506-1.571Zm7.741 5.385v-8.455h1.734l2.543 6.504h.1l2.537-6.504h1.734v8.455h-1.359v-6.012h-.106l-2.344 6.012h-1.031l-2.344-6.012h-.099v6.012h-1.365Zm13.324.129c-1.905 0-3.059-1.277-3.059-3.317v-.005c0-2.016 1.166-3.334 2.988-3.334 1.823 0 2.948 1.277 2.948 3.211v.48h-4.477c.018 1.148.639 1.816 1.629 1.816.791 0 1.242-.398 1.383-.691l.017-.041h1.389l-.017.053c-.206.826-1.061 1.828-2.801 1.828Zm-.053-5.514c-.814 0-1.424.551-1.535 1.571h3.041c-.1-1.049-.691-1.571-1.506-1.571Zm4.389 5.385v-6.404h1.459v.996h.099c.276-.715.92-1.119 1.758-1.119.867 0 1.5.445 1.776 1.154h.099c.311-.697 1.049-1.154 1.94-1.154 1.289 0 2.062.791 2.062 2.121v4.406h-1.459v-4.049c0-.832-.381-1.254-1.16-1.254-.762 0-1.254.569-1.254 1.301v4.002h-1.459v-4.154c0-.709-.439-1.149-1.154-1.149-.721 0-1.248.61-1.248 1.407v3.896h-1.459Zm14.484.105c-.896 0-1.594-.41-1.945-1.107h-.1v1.002h-1.459v-8.883h1.459v3.498h.1c.334-.691 1.066-1.125 1.945-1.125 1.623 0 2.631 1.266 2.631 3.305v.012c0 2.027-1.025 3.298-2.631 3.298Zm-.457-1.23c.996 0 1.6-.779 1.6-2.068v-.012c0-1.289-.604-2.074-1.6-2.074-.99 0-1.605.791-1.605 2.074v.012c0 1.283.615 2.068 1.605 2.068Zm7.289 1.254c-1.904 0-3.058-1.277-3.058-3.317v-.005c0-2.016 1.166-3.334 2.988-3.334s2.947 1.277 2.947 3.211v.48h-4.476c.017 1.148.638 1.816 1.628 1.816.791 0 1.243-.398 1.383-.691l.018-.041h1.389l-.018.053c-.205.826-1.061 1.828-2.801 1.828Zm-.053-5.514c-.814 0-1.423.551-1.535 1.571h3.041c-.099-1.049-.691-1.571-1.506-1.571Zm4.389 5.385v-6.404h1.459v.984h.1c.216-.685.802-1.09 1.646-1.09.223 0 .451.03.592.071v1.306a3.67 3.67 0 0 0-.727-.082c-.972 0-1.611.58-1.611 1.494v3.721h-1.459Z" fill="#6B6C7E" />
	<g filter="url(#illustration-spaces-02c__a)">
		<rect fill="#fff" height="364" rx="12" width="600" x="262" y="472" />
		<path d="M288 578.5h454a3.5 3.5 0 0 1 3.5 3.5v32a3.5 3.5 0 0 1-3.5 3.5H288a3.5 3.5 0 0 1-3.5-3.5v-32a3.5 3.5 0 0 1 3.5-3.5Z" fill="#F1F2F5" />
		<path d="M288 578.5h454a3.5 3.5 0 0 1 3.5 3.5v32a3.5 3.5 0 0 1-3.5 3.5H288a3.5 3.5 0 0 1-3.5-3.5v-32a3.5 3.5 0 0 1 3.5-3.5Z" stroke="#E7E7ED" />
		<mask height="12" id="illustration-spaces-02c__b" maskUnits="userSpaceOnUse" style="mask-type:alpha" width="8" x="718" y="592">
			<path d="m722.358 592.66 2.991 3.204c.321.343.094.93-.359.93h-5.982c-.452 0-.679-.587-.359-.93l2.99-3.204a.484.484 0 0 1 .719 0Zm-.719 10.681-2.99-3.205c-.32-.343-.093-.929.359-.929h5.982c.453 0 .68.586.359.929l-2.991 3.205a.486.486 0 0 1-.719 0Z" fill="#6B6C7E" />
		</mask>
		<g mask="url(#illustration-spaces-02c__b)">
			<path d="M713.999 590H730v16h-16.001z" fill="#6B6C7E" />
		</g>
		<mask height="15" id="illustration-spaces-02c__c" maskUnits="userSpaceOnUse" style="mask-type:alpha" width="15" x="814" y="497">
			<path d="m823.407 504.002 5.281-5.282c.938-.938-.469-2.349-1.408-1.407l-5.281 5.281-5.281-5.281c-.939-.942-2.349.469-1.408 1.407l5.282 5.282-5.282 5.281c-.941.942.466 2.349 1.408 1.408l5.281-5.282 5.281 5.282c.942.941 2.349-.466 1.408-1.408l-5.281-5.281Z" fill="#000" />
		</mask>
		<g mask="url(#illustration-spaces-02c__c)">
			<path d="M814 496h16v16h-16z" fill="#6B6C7E" />
		</g>
		<path d="M762 582a4 4 0 0 1 4-4h68a4 4 0 0 1 4 4v32a4 4 0 0 1-4 4h-68a4 4 0 0 1-4-4v-32Z" fill="#0B5FFF" />
		<path d="M779.672 604v-11.273h2.016V604h-2.016Zm4.594 0v-8.539h1.945v1.305h.133c.406-.914 1.226-1.469 2.461-1.469 1.906 0 2.945 1.148 2.945 3.18V604h-1.945v-5.07c0-1.328-.539-2-1.719-2-1.156 0-1.875.812-1.875 2.093V604h-1.945Zm11.812 0-3.039-8.539h2.078l1.977 6.641h.133l1.961-6.641h2.046L798.211 604h-2.133Zm7.797-9.969a1.153 1.153 0 0 1-1.164-1.148c0-.633.523-1.149 1.164-1.149.633 0 1.156.516 1.156 1.149 0 .64-.523 1.148-1.156 1.148Zm-.977 9.969v-8.539h1.946V604h-1.946Zm7.696.039c-1.961 0-2.766-.656-2.766-2.305v-4.765H806.5v-1.508h1.328v-2.094h1.977v2.094h1.804v1.508h-1.804v4.304c0 .852.336 1.211 1.148 1.211.274 0 .422-.007.656-.031v1.5c-.281.055-.64.086-1.015.086Zm6.531.133c-2.539 0-4.078-1.703-4.078-4.422v-.008c0-2.687 1.555-4.445 3.984-4.445 2.43 0 3.93 1.703 3.93 4.281v.641h-5.969c.024 1.531.852 2.422 2.172 2.422 1.055 0 1.656-.532 1.844-.922l.023-.055h1.852l-.024.07c-.273 1.102-1.414 2.438-3.734 2.438Zm-.07-7.352c-1.086 0-1.899.735-2.047 2.094h4.054c-.132-1.398-.921-2.094-2.007-2.094Z" fill="#fff" />
		<path d="M262 536h600v1H262z" fill="#E7E7ED" />
		<path d="M286 504a5 5 0 0 1 5-5h118a5 5 0 0 1 0 10H291a5 5 0 0 1-5-5Zm0 143a5 5 0 0 1 5-5h16a5 5 0 0 1 0 10h-16a5 5 0 0 1-5-5Zm42-1a5 5 0 0 1 5-5h88a5 5 0 0 1 0 10h-88a5 5 0 0 1-5-5Z" fill="#CDCED9" />
		<path d="M286 565a5 5 0 0 1 5-5h118a5 5 0 0 1 0 10H291a5 5 0 0 1-5-5Z" fill="#E7E7ED" />
		<path d="M298 668.5c6.351 0 11.5 5.149 11.5 11.5s-5.149 11.5-11.5 11.5-11.5-5.149-11.5-11.5 5.149-11.5 11.5-11.5Z" fill="#FF4D4D" />
		<path d="M298 668.5c6.351 0 11.5 5.149 11.5 11.5s-5.149 11.5-11.5 11.5-11.5-5.149-11.5-11.5 5.149-11.5 11.5-11.5Z" stroke="#E2E4EA" />
		<path d="M318 680a5 5 0 0 1 5-5h96a5 5 0 0 1 0 10h-96a5 5 0 0 1-5-5Z" fill="#E7E7ED" />
		<path d="M652 680a5.234 5.234 0 0 1 5.234-5.234h101.532a5.234 5.234 0 0 1 0 10.468H657.234A5.234 5.234 0 0 1 652 680Z" fill="#CDCED9" />
		<mask height="6" id="illustration-spaces-02c__d" maskUnits="userSpaceOnUse" style="mask-type:alpha" width="9" x="787" y="677">
			<path d="m788.169 678.584 3.418 3.732a.553.553 0 0 0 .823 0l3.418-3.732c.365-.399.105-1.084-.411-1.084h-6.837c-.516.004-.776.685-.411 1.084Z" fill="#6B6C7E" />
		</mask>
		<g mask="url(#illustration-spaces-02c__d)">
			<path d="M784 672h16v16h-16z" fill="#6B6C7E" />
		</g>
		<mask height="12" id="illustration-spaces-02c__e" maskUnits="userSpaceOnUse" style="mask-type:alpha" width="12" x="820" y="674">
			<path clip-rule="evenodd" d="M826 674c-3.309 0-6 2.691-6 6s2.691 6 6 6 6-2.691 6-6-2.691-6-6-6Zm3.445 9.445a4.855 4.855 0 0 1-3.445 1.43 4.855 4.855 0 0 1-3.445-1.43 4.852 4.852 0 0 1-1.43-3.445 4.852 4.852 0 0 1 1.43-3.445 4.853 4.853 0 0 1 3.445-1.43 4.855 4.855 0 0 1 3.445 1.43 4.852 4.852 0 0 1 1.43 3.445 4.852 4.852 0 0 1-1.43 3.445Zm-.787-5.048-1.592 1.591 1.615 1.615a.751.751 0 0 1-1.062 1.062l-1.615-1.615-1.59 1.591a.751.751 0 0 1-1.062-1.061l1.591-1.592-1.591-1.591a.751.751 0 0 1 1.062-1.062l1.59 1.591 1.592-1.591a.75.75 0 0 1 1.062 0 .751.751 0 0 1 0 1.062Z" fill="#6B6C7E" fill-rule="evenodd" />
		</mask>
		<g mask="url(#illustration-spaces-02c__e)">
			<path d="M820 674h12v12h-12z" fill="#6B6C7E" />
		</g>
		<path d="M298 708.5c6.351 0 11.5 5.149 11.5 11.5s-5.149 11.5-11.5 11.5-11.5-5.149-11.5-11.5 5.149-11.5 11.5-11.5Z" fill="#0B5FFF" />
		<path d="M298 708.5c6.351 0 11.5 5.149 11.5 11.5s-5.149 11.5-11.5 11.5-11.5-5.149-11.5-11.5 5.149-11.5 11.5-11.5Z" stroke="#E2E4EA" />
		<path d="M318 720a5 5 0 0 1 5-5h55a5 5 0 0 1 0 10h-55a5 5 0 0 1-5-5Z" fill="#E7E7ED" />
		<path d="M652 720a5.234 5.234 0 0 1 5.234-5.234h101.532a5.234 5.234 0 0 1 0 10.468H657.234A5.234 5.234 0 0 1 652 720Z" fill="#CDCED9" />
		<mask height="6" id="illustration-spaces-02c__f" maskUnits="userSpaceOnUse" style="mask-type:alpha" width="9" x="787" y="717">
			<path d="m788.169 718.584 3.418 3.732a.553.553 0 0 0 .823 0l3.418-3.732c.365-.399.105-1.084-.411-1.084h-6.837c-.516.004-.776.685-.411 1.084Z" fill="#6B6C7E" />
		</mask>
		<g mask="url(#illustration-spaces-02c__f)">
			<path d="M784 712h16v16h-16z" fill="#6B6C7E" />
		</g>
		<mask height="12" id="illustration-spaces-02c__g" maskUnits="userSpaceOnUse" style="mask-type:alpha" width="12" x="820" y="714">
			<path clip-rule="evenodd" d="M826 714c-3.309 0-6 2.691-6 6s2.691 6 6 6 6-2.691 6-6-2.691-6-6-6Zm3.445 9.445a4.855 4.855 0 0 1-3.445 1.43 4.855 4.855 0 0 1-3.445-1.43 4.852 4.852 0 0 1-1.43-3.445 4.852 4.852 0 0 1 1.43-3.445 4.853 4.853 0 0 1 3.445-1.43 4.855 4.855 0 0 1 3.445 1.43 4.852 4.852 0 0 1 1.43 3.445 4.852 4.852 0 0 1-1.43 3.445Zm-.787-5.048-1.592 1.591 1.615 1.615a.751.751 0 0 1-1.062 1.062l-1.615-1.615-1.59 1.591a.751.751 0 0 1-1.062-1.061l1.591-1.592-1.591-1.591a.751.751 0 0 1 1.062-1.062l1.59 1.591 1.592-1.591a.75.75 0 0 1 1.062 0 .751.751 0 0 1 0 1.062Z" fill="#6B6C7E" fill-rule="evenodd" />
		</mask>
		<g mask="url(#illustration-spaces-02c__g)">
			<path d="M820 714h12v12h-12z" fill="#6B6C7E" />
		</g>
		<path d="M298 749.5c6.351 0 11.5 5.149 11.5 11.5s-5.149 11.5-11.5 11.5-11.5-5.149-11.5-11.5 5.149-11.5 11.5-11.5Z" fill="#FFC933" />
		<path d="M298 749.5c6.351 0 11.5 5.149 11.5 11.5s-5.149 11.5-11.5 11.5-11.5-5.149-11.5-11.5 5.149-11.5 11.5-11.5Z" stroke="#E2E4EA" />
		<path d="M318 761a5 5 0 0 1 5-5h126a5 5 0 0 1 0 10H323a5 5 0 0 1-5-5Z" fill="#E7E7ED" />
		<path d="M587 761a5 5 0 0 1 5-5h167a5 5 0 0 1 0 10H592a5 5 0 0 1-5-5Z" fill="#CDCED9" />
		<mask height="6" id="illustration-spaces-02c__h" maskUnits="userSpaceOnUse" style="mask-type:alpha" width="9" x="787" y="758">
			<path d="m788.169 759.584 3.418 3.732a.553.553 0 0 0 .823 0l3.418-3.732c.365-.399.105-1.084-.411-1.084h-6.837c-.516.004-.776.685-.411 1.084Z" fill="#6B6C7E" />
		</mask>
		<g mask="url(#illustration-spaces-02c__h)">
			<path d="M784 753h16v16h-16z" fill="#6B6C7E" />
		</g>
		<mask height="12" id="illustration-spaces-02c__i" maskUnits="userSpaceOnUse" style="mask-type:alpha" width="12" x="820" y="755">
			<path clip-rule="evenodd" d="M826 755c-3.309 0-6 2.691-6 6s2.691 6 6 6 6-2.691 6-6-2.691-6-6-6Zm3.445 9.445a4.855 4.855 0 0 1-3.445 1.43 4.855 4.855 0 0 1-3.445-1.43 4.852 4.852 0 0 1-1.43-3.445 4.852 4.852 0 0 1 1.43-3.445 4.853 4.853 0 0 1 3.445-1.43 4.855 4.855 0 0 1 3.445 1.43 4.852 4.852 0 0 1 1.43 3.445 4.852 4.852 0 0 1-1.43 3.445Zm-.787-5.048-1.592 1.591 1.615 1.615a.751.751 0 0 1-1.062 1.062l-1.615-1.615-1.59 1.591a.751.751 0 0 1-1.062-1.061l1.591-1.592-1.591-1.591a.751.751 0 0 1 1.062-1.062l1.59 1.591 1.592-1.591a.75.75 0 0 1 1.062 0 .751.751 0 0 1 0 1.062Z" fill="#6B6C7E" fill-rule="evenodd" />
		</mask>
		<g mask="url(#illustration-spaces-02c__i)">
			<path d="M820 755h12v12h-12z" fill="#6B6C7E" />
		</g>
		<path d="M298 789.5c6.351 0 11.5 5.149 11.5 11.5s-5.149 11.5-11.5 11.5-11.5-5.149-11.5-11.5 5.149-11.5 11.5-11.5Z" fill="#fff" />
		<path d="M298 789.5c6.351 0 11.5 5.149 11.5 11.5s-5.149 11.5-11.5 11.5-11.5-5.149-11.5-11.5 5.149-11.5 11.5-11.5Z" stroke="#E2E4EA" />
		<mask height="13" id="illustration-spaces-02c__j" maskUnits="userSpaceOnUse" style="mask-type:alpha" width="13" x="291" y="795">
			<path d="M294.262 797.231a2.24 2.24 0 0 1 4.047-1.311c-1.17.459-2.206 1.913-1.763 3.538a.15.15 0 0 0-.021.002l-.021.003a2.236 2.236 0 0 1-2.242-2.232Zm7.496 1.5a2.236 2.236 0 0 1-2.241 2.232 2.236 2.236 0 0 1-2.241-2.232 2.236 2.236 0 0 1 2.241-2.232c1.238 0 2.241.999 2.241 2.232Z" fill="#000" />
			<path d="M304 805.05c0 2.602-8.961 2.602-8.961 0 0-4.6 8.961-4.554 8.961 0Z" fill="#000" />
			<path d="M296.806 800.133c-4.139-.565-6.799 4.218-2.915 5.034.038-2.197 1.714-3.533 3.765-4.026a3.02 3.02 0 0 1-.85-1.008Z" fill="#000" />
		</mask>
		<g mask="url(#illustration-spaces-02c__j)">
			<path d="M292 795h12v12h-12z" fill="#6B6C7E" />
		</g>
		<path d="M319.217 805.5v-9.864h2.023l2.967 7.588h.116l2.96-7.588h2.024v9.864h-1.586v-7.014h-.123l-2.735 7.014h-1.203l-2.734-7.014h-.116v7.014h-1.593Zm14.383.123c-1.422 0-2.454-.875-2.454-2.235v-.014c0-1.333 1.018-2.112 2.836-2.222l1.921-.116v-.642c0-.746-.485-1.156-1.401-1.156-.779 0-1.285.281-1.456.773l-.007.027h-1.606l.006-.061c.165-1.258 1.368-2.092 3.145-2.092 1.921 0 3.001.929 3.001 2.509v5.106h-1.682v-1.025h-.116c-.41.724-1.203 1.148-2.187 1.148Zm-.773-2.317c0 .635.54 1.011 1.292 1.011 1.026 0 1.784-.67 1.784-1.558v-.602l-1.681.11c-.951.061-1.395.41-1.395 1.025v.014Zm6.802 2.194v-7.472h1.702v1.149h.116c.253-.8.937-1.272 1.921-1.272.26 0 .527.034.691.082v1.525a4.277 4.277 0 0 0-.848-.096c-1.135 0-1.88.677-1.88 1.743v4.341h-1.702Zm5.892 0v-10.363h1.703v5.954h.116l2.755-3.063h1.968l-3.007 3.159 3.213 4.313h-2.051l-2.4-3.233-.594.608v2.625h-1.703Zm10.842.15c-2.221 0-3.568-1.49-3.568-3.869v-.007c0-2.351 1.36-3.889 3.486-3.889 2.126 0 3.439 1.49 3.439 3.746v.56h-5.223c.021 1.34.745 2.12 1.9 2.12.923 0 1.45-.465 1.614-.807l.02-.048h1.62l-.02.062c-.239.963-1.237 2.132-3.268 2.132Zm-.061-6.432c-.95 0-1.661.642-1.791 1.832h3.548c-.117-1.224-.807-1.832-1.757-1.832Zm8.059 6.316c-1.715 0-2.42-.574-2.42-2.016v-4.17h-1.162v-1.32h1.162v-1.832h1.73v1.832h1.579v1.32h-1.579v3.766c0 .745.294 1.06 1.005 1.06.239 0 .369-.007.574-.028v1.313a4.838 4.838 0 0 1-.889.075Zm3.459-8.757a1.01 1.01 0 0 1-1.018-1.005c0-.553.458-1.004 1.018-1.004.554 0 1.012.451 1.012 1.004 0 .561-.458 1.005-1.012 1.005Zm-.854 8.723v-7.472h1.702v7.472h-1.702Zm3.794 0v-7.472h1.702v1.142h.116c.356-.8 1.073-1.285 2.153-1.285 1.668 0 2.578 1.005 2.578 2.782v4.833h-1.703v-4.437c0-1.162-.471-1.75-1.503-1.75-1.012 0-1.641.711-1.641 1.833v4.354h-1.702Zm11.771 2.625c-1.969 0-3.151-.841-3.322-2.099l.007-.02h1.702l.007.02c.116.479.683.814 1.634.814 1.162 0 1.838-.54 1.838-1.497v-1.429h-.116c-.43.8-1.244 1.237-2.276 1.237-1.894 0-3.069-1.463-3.069-3.582v-.013c0-2.16 1.175-3.651 3.103-3.651 1.032 0 1.839.506 2.263 1.354h.089v-1.231h1.702v7.287c0 1.723-1.381 2.81-3.562 2.81Zm0-4.327c1.183 0 1.894-.909 1.894-2.229v-.013c0-1.32-.718-2.236-1.894-2.236-1.182 0-1.852.916-1.852 2.236v.013c0 1.32.67 2.229 1.852 2.229Zm11.065 3.811c-1.143-1.517-1.664-3.287-1.664-5.466 0-2.174.515-3.95 1.664-5.467h.855c-.849 1.084-1.482 3.433-1.482 5.467 0 2.05.633 4.382 1.482 5.466h-.855Zm2.443-2.109v-.727l2.859-3.093c1.079-1.166 1.395-1.606 1.395-2.344v-.012c0-.89-.604-1.558-1.6-1.558-1.013 0-1.687.662-1.687 1.658l-.006.012-1.008-.006-.012-.006c.006-1.5 1.166-2.578 2.784-2.578 1.476 0 2.607 1.002 2.607 2.367v.012c0 .966-.416 1.67-1.945 3.246l-1.922 1.986v.094h4.008v.949h-5.473Zm10.072.199c-1.869 0-2.982-1.705-2.982-4.424v-.011c0-2.719 1.113-4.418 2.982-4.418 1.869 0 2.994 1.699 2.994 4.418v.011c0 2.719-1.125 4.424-2.994 4.424Zm0-.92c1.213 0 1.934-1.347 1.934-3.504v-.011c0-2.157-.721-3.493-1.934-3.493s-1.922 1.336-1.922 3.493v.011c0 2.157.709 3.504 1.922 3.504Zm8.11.721v-6.316h1.019v.961h.094c.281-.68.879-1.073 1.705-1.073.856 0 1.453.451 1.746 1.108h.094c.34-.668 1.06-1.108 1.933-1.108 1.29 0 2.01.739 2.01 2.063v4.365h-1.019v-4.131c0-.931-.428-1.394-1.319-1.394-.879 0-1.459.662-1.459 1.464v4.061h-1.019v-4.289c0-.75-.516-1.236-1.313-1.236-.826 0-1.453.72-1.453 1.611v3.914h-1.019Zm13.019.111c-1.804 0-2.894-1.265-2.894-3.246v-.006c0-1.951 1.113-3.287 2.83-3.287s2.76 1.278 2.76 3.164v.399h-4.547c.029 1.306.75 2.068 1.875 2.068.855 0 1.382-.404 1.552-.785l.024-.053h1.019l-.011.047c-.217.856-1.119 1.699-2.608 1.699Zm-.07-5.631c-.938 0-1.652.639-1.764 1.84h3.492c-.105-1.248-.796-1.84-1.728-1.84Zm4.348 5.52v-6.316h1.019v.961h.094c.281-.68.879-1.073 1.705-1.073.855 0 1.453.451 1.746 1.108h.094c.34-.668 1.06-1.108 1.933-1.108 1.289 0 2.01.739 2.01 2.063v4.365H439.1v-4.131c0-.931-.428-1.394-1.319-1.394-.879 0-1.459.662-1.459 1.464v4.061h-1.019v-4.289c0-.75-.516-1.236-1.313-1.236-.826 0-1.453.72-1.453 1.611v3.914h-1.019Zm13.582.111c-.879 0-1.582-.416-1.969-1.119h-.094v1.008h-1.019v-8.824h1.019v3.504h.094c.346-.674 1.101-1.108 1.969-1.108 1.605 0 2.648 1.283 2.648 3.264v.012c0 1.968-1.049 3.263-2.648 3.263Zm-.235-.902c1.155 0 1.84-.891 1.84-2.361v-.012c0-1.471-.685-2.361-1.84-2.361-1.148 0-1.851.902-1.851 2.361v.012c0 1.459.703 2.361 1.851 2.361Zm7.043.902c-1.804 0-2.894-1.265-2.894-3.246v-.006c0-1.951 1.113-3.287 2.83-3.287s2.76 1.278 2.76 3.164v.399h-4.547c.029 1.306.75 2.068 1.875 2.068.855 0 1.382-.404 1.552-.785l.024-.053h1.019l-.011.047c-.217.856-1.12 1.699-2.608 1.699Zm-.07-5.631c-.938 0-1.652.639-1.764 1.84h3.492c-.105-1.248-.796-1.84-1.728-1.84Zm4.348 5.52v-6.316h1.019v.937h.094c.24-.662.832-1.049 1.687-1.049.194 0 .41.024.51.041v.991a3.583 3.583 0 0 0-.627-.059c-.973 0-1.664.615-1.664 1.541v3.914h-1.019Zm6.621.111c-1.407 0-2.373-.679-2.491-1.722h1.043c.17.527.674.873 1.483.873.849 0 1.453-.405 1.453-.979v-.012c0-.427-.322-.726-1.102-.914l-.978-.234c-1.184-.281-1.717-.797-1.717-1.705v-.006c0-1.049 1.008-1.84 2.35-1.84 1.324 0 2.244.662 2.384 1.694h-1.002c-.134-.498-.626-.844-1.388-.844-.75 0-1.301.387-1.301.943v.012c0 .428.316.697 1.061.879l.972.234c1.19.287 1.764.803 1.764 1.705v.012c0 1.125-1.096 1.904-2.531 1.904Zm4.664 1.998h-.856c.85-1.084 1.483-3.416 1.483-5.466 0-2.034-.633-4.383-1.483-5.467h.856c1.148 1.517 1.664 3.293 1.664 5.467 0 2.179-.522 3.949-1.664 5.466Z" fill="#272833" />
		<path d="M649 801a5 5 0 0 1 5-5h105a5 5 0 0 1 0 10H654a5 5 0 0 1-5-5Z" fill="#CDCED9" />
		<mask height="6" id="illustration-spaces-02c__k" maskUnits="userSpaceOnUse" style="mask-type:alpha" width="9" x="787" y="798">
			<path d="m788.169 799.584 3.418 3.732a.553.553 0 0 0 .823 0l3.418-3.732c.365-.399.105-1.084-.411-1.084h-6.837c-.516.004-.776.685-.411 1.084Z" fill="#6B6C7E" />
		</mask>
		<g mask="url(#illustration-spaces-02c__k)">
			<path d="M784 793h16v16h-16z" fill="#6B6C7E" />
		</g>
		<mask height="12" id="illustration-spaces-02c__l" maskUnits="userSpaceOnUse" style="mask-type:alpha" width="12" x="820" y="795">
			<path clip-rule="evenodd" d="M826 795c-3.309 0-6 2.691-6 6s2.691 6 6 6 6-2.691 6-6-2.691-6-6-6Zm3.445 9.445a4.855 4.855 0 0 1-3.445 1.43 4.855 4.855 0 0 1-3.445-1.43 4.852 4.852 0 0 1-1.43-3.445 4.852 4.852 0 0 1 1.43-3.445 4.853 4.853 0 0 1 3.445-1.43 4.855 4.855 0 0 1 3.445 1.43 4.852 4.852 0 0 1 1.43 3.445 4.852 4.852 0 0 1-1.43 3.445Zm-.787-5.048-1.592 1.591 1.615 1.615a.751.751 0 0 1-1.062 1.062l-1.615-1.615-1.59 1.591a.751.751 0 0 1-1.062-1.061l1.591-1.592-1.591-1.591a.751.751 0 0 1 1.062-1.062l1.59 1.591 1.592-1.591a.75.75 0 0 1 1.062 0 .751.751 0 0 1 0 1.062Z" fill="#6B6C7E" fill-rule="evenodd" />
		</mask>
		<g mask="url(#illustration-spaces-02c__l)">
			<path d="M820 795h12v12h-12z" fill="#6B6C7E" />
		</g>
	</g>
	<defs>
		<filter color-interpolation-filters="sRGB" filterUnits="userSpaceOnUse" height="396" id="illustration-spaces-02c__a" width="632" x="246" y="464">
			<feFlood flood-opacity="0" result="BackgroundImageFix" />
			<feColorMatrix in="SourceAlpha" result="hardAlpha" values="0 0 0 0 0 0 0 0 0 0 0 0 0 0 0 0 0 0 127 0" />
			<feOffset dy="8" />
			<feGaussianBlur stdDeviation="8" />
			<feColorMatrix values="0 0 0 0 0.152941 0 0 0 0 0.156863 0 0 0 0 0.2 0 0 0 0.16 0" />
			<feBlend in2="BackgroundImageFix" result="effect1_dropShadow_2293_18978" />
			<feBlend in="SourceGraphic" in2="effect1_dropShadow_2293_18978" result="shape" />
		</filter>
	</defs>
</svg>