<svg width="130" height="95" viewBox="0 0 130 95" fill="none" xmlns="http://www.w3.org/2000/svg">
<g filter="url(#filter0_d_2126_14497)">
<rect x="11" y="7" width="108" height="24" rx="4" fill="white"/>
<rect x="11" y="7" width="108" height="24" rx="4" stroke="#0B5FFF" stroke-opacity="0.4" stroke-width="6"/>
</g>
<g filter="url(#filter1_d_2126_14497)">
<rect x="11" y="43" width="108" height="24" rx="4" fill="white"/>
<rect x="11" y="43" width="108" height="24" rx="4" stroke="#0B5FFF" stroke-opacity="0.4" stroke-width="6"/>
</g>
<rect x="11.5" y="7.5" width="107" height="23" rx="3.5" fill="white" stroke="#0B5FFF"/>
<rect x="11.5" y="7.5" width="107" height="23" rx="3.5" fill="white" stroke="#0B5FFF"/>
<rect x="16" y="12" width="14" height="14" rx="2" fill="#0B5FFF"/>
<path d="M19 19L21.5 21.5L27 16" stroke="white" stroke-width="2" stroke-linecap="round" stroke-linejoin="round"/>
<rect x="34" y="17" width="61" height="4" fill="#0B5FFF"/>
<rect x="16" y="48" width="14" height="14" rx="2" fill="#0B5FFF"/>
<path d="M19 55L21.5 57.5L27 52" stroke="white" stroke-width="2" stroke-linecap="round" stroke-linejoin="round"/>
<rect x="34" y="53" width="61" height="4" fill="#0B5FFF"/>
<rect x="17" y="82" width="12" height="12" rx="1" stroke="#80ACFF" stroke-width="2"/>
<rect x="34" y="86" width="61" height="4" fill="#80ACFF"/>
<defs>
<filter id="filter0_d_2126_14497" x="0" y="0" width="130" height="46" filterUnits="userSpaceOnUse" color-interpolation-filters="sRGB">
<feFlood flood-opacity="0" result="BackgroundImageFix"/>
<feColorMatrix in="SourceAlpha" type="matrix" values="0 0 0 0 0 0 0 0 0 0 0 0 0 0 0 0 0 0 127 0" result="hardAlpha"/>
<feOffset dy="4"/>
<feGaussianBlur stdDeviation="4"/>
<feColorMatrix type="matrix" values="0 0 0 0 0.152941 0 0 0 0 0.156863 0 0 0 0 0.2 0 0 0 0.12 0"/>
<feBlend mode="normal" in2="BackgroundImageFix" result="effect1_dropShadow_2126_14497"/>
<feBlend mode="normal" in="SourceGraphic" in2="effect1_dropShadow_2126_14497" result="shape"/>
</filter>
<filter id="filter1_d_2126_14497" x="0" y="36" width="130" height="46" filterUnits="userSpaceOnUse" color-interpolation-filters="sRGB">
<feFlood flood-opacity="0" result="BackgroundImageFix"/>
<feColorMatrix in="SourceAlpha" type="matrix" values="0 0 0 0 0 0 0 0 0 0 0 0 0 0 0 0 0 0 127 0" result="hardAlpha"/>
<feOffset dy="4"/>
<feGaussianBlur stdDeviation="4"/>
<feColorMatrix type="matrix" values="0 0 0 0 0.152941 0 0 0 0 0.156863 0 0 0 0 0.2 0 0 0 0.12 0"/>
<feBlend mode="normal" in2="BackgroundImageFix" result="effect1_dropShadow_2126_14497"/>
<feBlend mode="normal" in="SourceGraphic" in2="effect1_dropShadow_2126_14497" result="shape"/>
</filter>
</defs>
</svg>
