<svg fill="none" height="48" viewBox="0 0 48 48" width="48" xmlns="http://www.w3.org/2000/svg">
	<g clip-path="url(#clip0_241_35321)">
		<path d="M42.4658 22.4363L35.259 29.6431" stroke="#1514A4" stroke-width="2" />
		<path d="M5.53516 22.4363L12.796 29.6971" stroke="#1514A4" stroke-width="2" />
		<path d="M32.8172 32.9277L34.1786 34.2891C34.9565 35.0671 36.1991 35.0671 36.977 34.2891C37.755 33.522 37.755 32.2686 36.977 31.4907L25.2646 19.7783" stroke="#1514A4" stroke-linecap="round" stroke-width="2" />
		<path d="M32.3528 32.4631L34.1788 34.2891C34.9567 35.0671 34.9567 36.3096 34.1788 37.0876C33.4116 37.8547 32.1583 37.8547 31.3804 37.0876L28.5603 34.2675" stroke="#1514A4" stroke-linecap="round" stroke-width="2" />
		<path d="M23.9033 40.8044L24.476 41.3771C25.2539 42.155 26.4965 42.155 27.2744 41.3771C28.0416 40.6099 28.0524 39.3566 27.2744 38.5786L26.4316 37.7358" stroke="#1514A4" stroke-width="2" />
		<path d="M28.3766 34.0839L30.8833 36.5906C31.6612 37.3685 31.6612 38.6111 30.8833 39.389C30.1161 40.1561 28.8628 40.1561 28.0848 39.389L25.9131 37.2064" stroke="#1514A4" stroke-linecap="round" stroke-width="2" />
		<path d="M12.3855 30.1293C13.1527 29.3622 14.406 29.3622 15.184 30.1293C15.9619 30.8964 15.9511 32.1498 15.184 32.9277L13.8226 34.2892C13.0446 35.0671 11.8021 35.0671 11.0241 34.2892C10.2462 33.522 10.2462 32.2687 11.0241 31.4907L12.3855 30.1293V30.1293Z" stroke="#1514A4" stroke-width="2" />
		<path d="M19.4407 34.2567C20.2187 33.4788 20.2187 32.2362 19.4407 31.4583C18.6736 30.6911 17.4202 30.6911 16.6423 31.4583L13.8222 34.2783C13.0443 35.0563 13.0443 36.2988 13.8222 37.0768C14.5894 37.8439 15.8427 37.8439 16.6207 37.0768L19.4407 34.2567V34.2567Z" stroke="#1514A4" stroke-width="2" />
		<path d="M22.088 37.2173C22.8552 36.4502 24.1085 36.4502 24.8865 37.2173C25.6536 37.9845 25.6536 39.2378 24.8865 40.0158L23.5251 41.3772C22.7471 42.1551 21.5046 42.1551 20.7266 41.3772C19.9595 40.61 19.9487 39.3567 20.7266 38.5787L22.088 37.2173V37.2173Z" stroke="#1514A4" stroke-width="2" />
		<path d="M22.7364 36.569C23.5143 35.8019 23.5143 34.5485 22.7364 33.7706C21.9692 32.9926 20.7159 32.9926 19.9379 33.7706L17.1179 36.5906C16.3399 37.3686 16.3399 38.6111 17.1179 39.3891C17.885 40.1562 19.1384 40.1562 19.9163 39.3891L22.7364 36.569V36.569Z" stroke="#1514A4" stroke-width="2" />
		<path d="M32.5469 12.4851L30.2563 14.7757H23.5573L15.7563 22.5552C15.2376 23.0738 15.3565 23.9598 16.0048 24.3055C17.7984 25.2456 20.0674 24.9646 21.5692 23.4628L25.2429 19.7891" stroke="#1514A4" stroke-linecap="round" stroke-width="2" />
		<path d="M15.5081 12.4851L17.7879 14.7649H17.8527H24.4868" stroke="#1514A4" stroke-width="2" />
		<path d="M12.1351 7.92909L1.40837 18.6558C0.623537 19.4407 0.623537 20.7131 1.40837 21.498L3.24964 23.3392C4.03447 24.1241 5.30694 24.1241 6.09177 23.3392L16.8185 12.6125C17.6034 11.8277 17.6034 10.5552 16.8185 9.77036L14.9772 7.92909C14.1924 7.14426 12.92 7.14426 12.1351 7.92909Z" fill="#00C2FB" />
		<path d="M33.0099 7.92199L31.1686 9.76326C30.3838 10.5481 30.3838 11.8206 31.1686 12.6054L41.8954 23.3321C42.6802 24.117 43.9527 24.117 44.7375 23.3321L46.5788 21.4909C47.3636 20.706 47.3636 19.4336 46.5788 18.6487L35.852 7.92199C35.0672 7.13716 33.7947 7.13716 33.0099 7.92199Z" fill="#00C2FB" />
	</g>
	<defs>
		<clipPath id="clip0_241_35321">
			<rect fill="white" height="48" width="48" />
		</clipPath>
	</defs>
</svg>