<svg fill="none" height="48" viewBox="0 0 48 48" width="48" xmlns="http://www.w3.org/2000/svg">
	<path d="M13 3V45" stroke="#1514A4" stroke-width="2" />
	<path clip-rule="evenodd" d="M24 2H10C7.79086 2 6 3.79086 6 6V42C6 44.2091 7.79086 46 10 46H38C40.2091 46 42 44.2091 42 42V6C42 3.79086 40.2091 2 38 2V4C39.1046 4 40 4.89543 40 6V42C40 43.1046 39.1046 44 38 44H10C8.89543 44 8 43.1046 8 42V6C8 4.89543 8.89543 4 10 4H24V2ZM37 4H25V2H37V4Z" fill="#1514A4" fill-rule="evenodd" />
	<path d="M25 1V32L31 29L37 32V2C37 1.44772 36.5523 1 36 1H25Z" fill="#00C2FB" />
</svg>