<svg fill="none" height="48" viewBox="0 0 48 48" width="48" xmlns="http://www.w3.org/2000/svg">
	<path d="M3.5 29.71V9.17998C3.5 7.95998 4.51 6.97998 5.75 6.97998H36.56C37.8 6.97998 38.81 7.96998 38.81 9.17998V22.5" stroke="#1514A4" stroke-miterlimit="10" stroke-width="2" />
	<path d="M25.21 29.8799H17.08C16.8867 29.8799 16.73 30.0366 16.73 30.2299C16.73 30.4232 16.8867 30.5799 17.08 30.5799H25.21C25.4033 30.5799 25.56 30.4232 25.56 30.2299C25.56 30.0366 25.4033 29.8799 25.21 29.8799Z" fill="#1514A4" stroke="#1514A4" stroke-miterlimit="10" stroke-width="2" />
	<path clip-rule="evenodd" d="M31.17 23.54H40.99C41.7632 23.54 42.39 24.1668 42.39 24.94V26.318C42.8828 25.6234 43.6935 25.17 44.61 25.17H45.05C46.5522 25.17 47.77 26.3878 47.77 27.89V33.27C47.77 34.7723 46.5522 35.99 45.05 35.99H44.61C43.6935 35.99 42.8828 35.5367 42.39 34.842V38.97C42.39 39.7432 41.7632 40.37 40.99 40.37H31.17C30.3968 40.37 29.77 39.7432 29.77 38.97V24.94C29.77 24.1668 30.3968 23.54 31.17 23.54ZM42.89 27.89C42.89 26.9401 43.6601 26.17 44.61 26.17H45.05C45.9999 26.17 46.77 26.9401 46.77 27.89V33.27C46.77 34.22 45.9999 34.99 45.05 34.99H44.61C43.6601 34.99 42.89 34.22 42.89 33.27V27.89Z" fill="#00C2FB" fill-rule="evenodd" />
	<path d="M35.34 20.2901C35.34 18.4401 37.19 18.4401 37.19 16.5901C37.19 14.7401 34.42 15.6701 34.42 13.8201C34.42 11.9701 37.19 10.1201 37.19 10.1201" stroke="#00C2FB" stroke-linecap="round" stroke-linejoin="round" stroke-width="2" />
	<path clip-rule="evenodd" d="M28.77 32.95V34.95H3.53C1.74772 34.95 0.300003 33.5023 0.300003 31.72V30.08C0.300003 29.2277 0.99772 28.53 1.85 28.53H28.77V30.53H2.3V31.72C2.3 32.3977 2.85229 32.95 3.53 32.95H28.77Z" fill="#1514A4" fill-rule="evenodd" />
	<path d="M17.0483 19.9188H25.2763L26.7083 14.908H15.975" fill="#00C2FB" />
	<path d="M17.0483 19.9188H25.2763L26.7083 14.908H15.975" stroke="#00C2FB" stroke-linejoin="round" />
	<path d="M18.4804 25.0578C19.0732 25.0578 19.5538 24.5773 19.5538 23.9845C19.5538 23.3917 19.0732 22.9111 18.4804 22.9111C17.8876 22.9111 17.4071 23.3917 17.4071 23.9845C17.4071 24.5773 17.8876 25.0578 18.4804 25.0578Z" fill="#00C2FB" />
	<path d="M23.4883 25.0578C24.0811 25.0578 24.5617 24.5773 24.5617 23.9845C24.5617 23.3917 24.0811 22.9111 23.4883 22.9111C22.8955 22.9111 22.415 23.3917 22.415 23.9845C22.415 24.5773 22.8955 25.0578 23.4883 25.0578Z" fill="#00C2FB" />
	<path d="M24.5617 22.0655H17.4071L15.4383 12.9421H13.2917" stroke="#00C2FB" stroke-linecap="round" stroke-linejoin="round" />
</svg>