<svg fill="none" height="48" viewBox="0 0 48 48" width="48" xmlns="http://www.w3.org/2000/svg">
	<path d="M3.67147 24.2494L10.2431 21.3274C10.9591 21.004 11.7791 21.0271 12.4836 21.3967L17.8656 24.1916C18.778 24.6651 19.8868 24.5496 20.6952 23.9029L29.8769 16.4882C30.7662 15.7721 31.9905 15.7144 32.9375 16.3381L44.764 24.157C45.5263 24.6651 45.9998 25.5429 45.9998 26.4899V30.8787H2.05457V26.7902C2.05457 25.6815 2.68978 24.6882 3.67147 24.2494Z" fill="#2EB7FF" />
	<path d="M14.6896 15.4833C16.2077 15.4833 17.4384 14.2527 17.4384 12.7346C17.4384 11.2165 16.2077 9.98584 14.6896 9.98584C13.1715 9.98584 11.9409 11.2165 11.9409 12.7346C11.9409 14.2527 13.1715 15.4833 14.6896 15.4833Z" fill="#2EB7FF" />
	<path d="M2.03162 31.0518H45.9769" stroke="#0011A8" stroke-linecap="round" stroke-linejoin="round" stroke-width="2" />
	<path d="M43.6554 4.67322H4.32989C3.05418 4.67322 2.02002 5.70738 2.02002 6.98309V34.228C2.02002 35.5037 3.05418 36.5379 4.32989 36.5379H43.6554C44.9311 36.5379 45.9653 35.5037 45.9653 34.228V6.98309C45.9653 5.70738 44.9311 4.67322 43.6554 4.67322Z" stroke="#0011A8" stroke-linecap="round" stroke-miterlimit="10" stroke-width="2" />
	<path d="M32.8106 45.3269H15.1286L21.3191 36.5378H26.6202L32.8106 45.3269Z" stroke="#0011A8" stroke-linecap="round" stroke-linejoin="round" stroke-width="2" />
</svg>