<svg fill="none" height="32" viewBox="0 0 32 32" width="32" xmlns="http://www.w3.org/2000/svg">
	<path d="M12.3393 15.9748C13.0528 15.9748 13.6474 16.5546 13.6474 17.2505V27.2243C13.6474 27.9201 13.0528 28.5 12.3393 28.5H3.97513C3.2616 28.5 2.66699 27.9201 2.66699 27.2243V17.2505C2.66699 16.5546 3.2616 15.9748 3.97513 15.9748H12.3393Z" fill="#1AA0E8" />
	<path d="M28.0258 8.92931C28.7393 8.92931 29.3339 9.48741 29.3339 10.1571V27.2722C29.3339 27.9419 28.7393 28.5 28.0258 28.5H19.6616C18.9481 28.5 18.3535 27.9419 18.3535 27.2722V10.1571C18.3535 9.48741 18.9481 8.92931 19.6616 8.92931H28.0258Z" fill="#1AA0E8" />
	<path d="M20.182 2.66667C20.8956 2.66667 21.4902 3.22183 21.4902 3.88802V27.2787C21.4902 27.9449 20.8956 28.5 20.182 28.5H11.8179C11.1044 28.5 10.5098 27.9449 10.5098 27.2787V3.88802C10.5098 3.22183 11.1044 2.66667 11.8179 2.66667H20.182Z" fill="#0B63CE" />
	<path d="M10.55 15.9754H12.3197C12.3197 15.9754 13.647 15.8982 13.647 17.4046V27.4472C13.647 27.4472 13.647 28.49 12.0784 28.49C12.0784 28.49 10.7511 28.6832 10.5098 27.3699V15.9754H10.55Z" fill="#134194" />
	<path d="M19.6808 8.92995C19.6808 8.92995 18.3535 8.85557 18.3535 10.3059V17.8177V19.9745V27.4864C18.3535 27.4864 18.3535 28.4904 19.9221 28.4904C19.9221 28.4904 21.2494 28.6764 21.4908 27.412V19.9002V16.4418V8.92995H19.6808Z" fill="#134194" />
</svg>