<svg fill="none" height="32" viewBox="0 0 34 32" width="34" xmlns="http://www.w3.org/2000/svg">
	<path d="M12.7919 5.85039L20.3256 12.3057C21.2424 13.1425 21.362 14.5771 20.5249 15.4936L11.6758 25.7743C11.2873 26.2404 10.7471 26.4983 10.1847 26.5479C10.0965 26.5632 9.99553 26.5712 9.88211 26.5712L3.14564 26.4915C2.30856 26.4915 1.47149 25.7743 1.3519 24.9375L0.322011 18.5695C0.210426 17.8414 0.227444 17.0019 0.753995 16.3702L9.60308 6.08947C10.4003 5.13313 11.8353 5.05343 12.7919 5.85039Z" fill="#1AA0E8" />
	<path d="M20.4852 25.6149L12.9913 19.1596C12.0347 18.3626 11.9151 16.9281 12.7522 15.9717L21.6012 5.691C22.1166 5.07277 22.7991 4.90853 23.6454 4.93536L30.1713 4.97374C31.0084 4.97374 31.8455 5.69099 31.965 6.5278L33.0413 13.1824C33.0558 13.2838 33.0627 13.3764 33.0624 13.4599C33.0972 14.032 32.9174 14.622 32.5231 15.0951L23.674 25.3758C22.8768 26.3322 21.4418 26.4119 20.4852 25.6149Z" fill="#0B63CE" />
	<path d="M17.783 10.127L20.3257 12.3057C21.2425 13.1425 21.3621 14.5771 20.525 15.4936L15.5054 21.3252L12.9913 19.1596C12.0347 18.3626 11.9151 16.9281 12.7522 15.9717L17.783 10.127Z" fill="#134194" />
</svg>