<svg fill="none" height="32" viewBox="0 0 32 32" width="32" xmlns="http://www.w3.org/2000/svg">
	<path d="M10.4393 3.78368C14.6406 0.504302 22.8314 1.50437 27.4854 5.7044C37.0736 14.3421 25.2433 35.2764 13.5626 28.3791C17.0081 27.2944 20.391 25.0857 22.6355 22.5918L22.6382 22.5888C25.2023 19.7138 26.3709 16.8295 26.4151 14.1513C26.4594 11.4705 25.3747 9.10526 23.6371 7.28665C20.5503 4.05573 15.357 2.49164 10.4393 3.78368Z" fill="#004AD7" />
	<path d="M12.5669 27.7216L12.5664 27.7218C12.4547 27.6421 12.3432 27.5624 12.2316 27.4805C12.0456 27.3439 11.8596 27.2011 11.6734 27.0414C8.12707 23.9731 5.21591 19.7093 7.52748 9.45237C7.68151 8.76872 7.85879 8.05844 8.06065 7.32012L8.06082 7.31958C8.24675 6.61294 8.56286 6.00392 8.9238 5.43558C8.97534 5.35439 9.02783 5.27403 9.08099 5.19434C10.3401 4.67898 11.6391 4.38277 12.9292 4.28049C21.9597 3.56456 30.5509 12.3511 21.9597 21.9837C19.6646 24.5338 16.0944 26.7864 12.5669 27.7216Z" fill="#004AD7" />
	<path d="M3.17284 9.91233C4.48504 8.14086 5.99983 6.82514 7.61937 5.90653C7.44608 6.26874 7.29482 6.65913 7.18274 7.08387C5.54406 13.0799 5.46821 17.3682 6.36049 20.6247C7.25931 23.9051 9.11001 26.0258 11.0788 27.7292L11.082 27.7319C11.1851 27.8203 11.2879 27.9038 11.3894 27.9833C9.24323 28.3625 7.15794 28.1825 5.4681 27.2117C0.665078 24.5339 -0.525052 15.0129 3.17284 9.91233Z" fill="#004AD7" />
</svg>