<svg fill="none" height="48" viewBox="0 0 48 48" width="48" xmlns="http://www.w3.org/2000/svg">
	<rect fill="#E7EFFF" height="48" rx="10" width="48" />
	<path d="M15.75 8.25V39.75" stroke="#0B5FFF" stroke-width="2"/>
	<path fill-rule="evenodd" clip-rule="evenodd" d="M24 7.5H13.5C11.8431 7.5 10.5 8.84314 10.5 10.5V37.5C10.5 39.1568 11.8431 40.5 13.5 40.5H34.5C36.1568 40.5 37.5 39.1568 37.5 37.5V10.5C37.5 8.84314 36.1568 7.5 34.5 7.5V9C35.3284 9 36 9.67157 36 10.5V37.5C36 38.3284 35.3284 39 34.5 39H13.5C12.6716 39 12 38.3284 12 37.5V10.5C12 9.67157 12.6716 9 13.5 9H24V7.5ZM33.75 9H24.75V7.5H33.75V9Z" fill="#0B5FFF"/>
	<path d="M24.75 6.75V30L29.25 27.75L33.75 30V7.5C33.75 7.08579 33.4142 6.75 33 6.75H24.75Z" fill="#0B5FFF" />
</svg>