<svg fill="none" height="48" viewBox="0 0 48 48" width="48" xmlns="http://www.w3.org/2000/svg">
	<rect fill="#E7EFFF" height="48" rx="10" width="48" />
	<g clip-path="url(#clip0_2219_4358)">
		<path d="M14.25 24.5H29.25" stroke="#0B5FFF" stroke-width="2" stroke-linecap="round"/>
		<path d="M14.25 28.25H29.25" stroke="#0B5FFF" stroke-width="2" stroke-linecap="round"/>
		<path d="M16.9951 20.645H26.7451" stroke="#0B5FFF" stroke-width="2" stroke-linecap="round"/>
		<path fill-rule="evenodd" clip-rule="evenodd" d="M32.3701 29.81C32.3701 27.5318 34.2169 25.685 36.4951 25.685C38.7732 25.685 40.6201 27.5318 40.6201 29.81C40.6201 31.3195 39.8092 32.6397 38.5993 33.3587C38.5806 33.3657 38.5623 33.3741 38.5449 33.384C37.9793 33.7054 37.3328 33.9057 36.6498 33.9321C36.5985 33.934 36.5469 33.935 36.4951 33.935C36.399 33.935 36.3037 33.9317 36.2093 33.9252C35.5733 33.8811 34.9743 33.6906 34.4481 33.3857C34.4298 33.375 34.4106 33.366 34.3909 33.3586C33.1809 32.6397 32.3701 31.3195 32.3701 29.81ZM33.8701 33.9186C32.517 33.0523 31.6201 31.5359 31.6201 29.81C31.6201 27.1176 33.8027 24.935 36.4951 24.935C39.1875 24.935 41.3701 27.1176 41.3701 29.81C41.3701 31.5359 40.4732 33.0523 39.1201 33.9186V38.7726C39.1201 38.9243 39.0288 39.061 38.8886 39.1191C38.7485 39.1771 38.5872 39.145 38.4799 39.0378L36.4951 37.053L34.5102 39.0378C34.403 39.145 34.2417 39.1771 34.1016 39.1191C33.9615 39.061 33.8701 38.9243 33.8701 38.7726V33.9186Z" fill="#0B5FFF"/>
		<path fill-rule="evenodd" clip-rule="evenodd" d="M8.50512 9.48505C7.36793 9.48505 6.49512 10.4318 6.49512 11.54V32.9225C6.49512 34.0337 7.37828 34.9775 8.50512 34.9775H33.0001C33.041 34.9775 33.0811 34.9743 33.1201 34.968V34.3103C32.7943 34.0655 32.4958 33.7862 32.2303 33.4775H8.50512C8.25195 33.4775 7.99511 33.2513 7.99511 32.9225V11.54C7.99511 11.2083 8.2473 10.985 8.50512 10.985H11.2276H35.2351C35.4883 10.985 35.7451 11.2113 35.7451 11.54V24.125C35.7451 24.1619 35.7478 24.1981 35.7529 24.2335C35.9958 24.2015 36.2435 24.185 36.4951 24.185C36.7467 24.185 36.9945 24.2015 37.2373 24.2335C37.2424 24.1981 37.2451 24.1619 37.2451 24.125V11.54C37.2451 10.4288 36.3619 9.48505 35.2351 9.48505H11.2276H8.50512Z" fill="#0B5FFF"/>
		<path fill-rule="evenodd" clip-rule="evenodd" d="M40.9951 29.81C40.9951 32.2953 38.9804 34.31 36.4951 34.31C34.0098 34.31 31.9951 32.2953 31.9951 29.81C31.9951 27.3246 34.0098 25.31 36.4951 25.31C38.9804 25.31 40.9951 27.3246 40.9951 29.81ZM38.7129 29.178C39.0058 28.885 39.0058 28.4102 38.7129 28.1172C38.4201 27.8244 37.9452 27.8244 37.6523 28.1172L35.9326 29.8369L35.3379 29.2422C35.0451 28.9494 34.5702 28.9494 34.2773 29.2422C33.9843 29.5352 33.9843 30.01 34.2773 30.303L35.4023 31.428C35.6952 31.7208 36.1701 31.7208 36.4629 31.428L38.7129 29.178Z" fill="#0B5FFF"/>
		<path d="M23.8501 13.385C23.3776 12.9125 22.7176 12.6125 21.9976 12.6125C21.2776 12.6125 20.6176 12.905 20.1451 13.385C19.6726 13.8575 19.3726 14.5175 19.3726 15.2375C19.3726 15.9575 19.6651 16.6175 20.1451 17.09C20.6176 17.5625 21.2776 17.8625 21.9976 17.8625C22.7176 17.8625 23.3776 17.57 23.8501 17.09C24.3226 16.6175 24.6226 15.9575 24.6226 15.2375C24.6226 14.5175 24.3301 13.8575 23.8501 13.385Z" fill="#0B5FFF" />
	</g>
	<defs>
		<clipPath id="clip0_2219_4358">
			<rect fill="white" height="31" transform="translate(6 9)" width="36" />
		</clipPath>
	</defs>
</svg>