<svg fill="none" height="28" viewBox="0 0 28 28" width="28" xmlns="http://www.w3.org/2000/svg">
	<path d="M7.58337 1.75V26.25" stroke="#0B5FFF" stroke-width="1.55556" />
	<path clip-rule="evenodd" d="M14 1.16667H5.83333C4.54467 1.16667 3.5 2.21133 3.5 3.5V24.5C3.5 25.7886 4.54467 26.8333 5.83333 26.8333H22.1667C23.4553 26.8333 24.5 25.7886 24.5 24.5V3.5C24.5 2.21133 23.4553 1.16667 22.1667 1.16667V2.33333C22.811 2.33333 23.3333 2.85567 23.3333 3.5V24.5C23.3333 25.1444 22.811 25.6667 22.1667 25.6667H5.83333C5.189 25.6667 4.66667 25.1444 4.66667 24.5V3.5C4.66667 2.85567 5.189 2.33333 5.83333 2.33333H14V1.16667ZM21.5833 2.33333H14.5833V1.16667H21.5833V2.33333Z" fill="#0B5FFF" fill-rule="evenodd" />
	<path d="M14.5834 0.583334V18.6667L18.0834 16.9167L21.5834 18.6667V1.16667C21.5834 0.844504 21.3222 0.583334 21 0.583334H14.5834Z" fill="#0B5FFF" />
</svg>