<svg fill="none" height="48" viewBox="0 0 48 48" width="48" xmlns="http://www.w3.org/2000/svg">
	<rect fill="#E7EFFF" height="48" rx="10" width="48" />
	<path fill-rule="evenodd" clip-rule="evenodd" d="M32.9323 13.4173L39.4048 17.0773C39.8623 17.3323 39.8698 17.9923 39.4123 18.2623L33.0073 22.0348C32.5498 22.3048 31.9723 21.9748 31.9723 21.4498L31.9573 19.7998C29.0194 20.1136 27.2466 21.3192 25.2418 24.3372C24.8869 23.8333 24.5277 23.2751 24.1573 22.6575C23.7169 21.9223 23.2746 21.2656 22.826 20.6794C25.0372 17.8215 27.6449 16.0755 31.9273 15.6973L31.9123 14.0173C31.9048 13.4923 32.4748 13.1548 32.9323 13.4173ZM20.8378 23.6595C18.3928 27.6394 16.4619 28.2823 11.6848 28.2823H9.77234C9.39734 28.2823 9.08984 28.5898 9.08984 28.9648V31.6948C9.08984 32.0698 9.39734 32.3773 9.77234 32.3773H11.6848C16.7954 32.3773 20.1747 31.547 23.2942 27.3347C22.5988 26.4615 21.9436 25.473 21.2848 24.375C21.1343 24.1245 20.9856 23.8863 20.8378 23.6595Z" fill="#0B5FFF"/>
	<path d="M11.6773 16.3651C17.2798 16.3651 20.5348 17.3326 23.8348 22.8451C26.3473 27.0301 28.3723 28.5676 31.8673 28.9426L32.6923 29.0326V28.2076L32.7148 26.6701L38.9323 30.3301L32.6548 33.8926L32.6698 32.3176V31.6276L31.9873 31.5676C26.7298 31.1026 24.2023 28.5151 21.6148 24.1951C18.9373 19.7326 16.7848 18.9751 11.6848 18.9751H9.83234V16.3726H11.6848M11.6848 15.6226H9.77234C9.39734 15.6226 9.08984 15.9301 9.08984 16.3051V19.0351C9.08984 19.4101 9.39734 19.7176 9.77234 19.7176H11.6848C16.5448 19.7176 18.4648 20.3851 20.9773 24.5701C23.6698 29.0626 26.4073 31.8226 31.9273 32.3026L31.9123 33.9826C31.9123 34.3876 32.2423 34.6726 32.6023 34.6726C32.7148 34.6726 32.8273 34.6426 32.9398 34.5826L39.4123 30.9226C39.8698 30.6601 39.8773 30.0001 39.4198 29.7376L33.0148 25.9651C32.9023 25.8976 32.7823 25.8676 32.6698 25.8676C32.3173 25.8676 31.9873 26.1526 31.9798 26.5501L31.9648 28.2001C28.6648 27.8476 26.8348 26.3626 24.4948 22.4626C21.0223 16.6801 17.4598 15.6226 11.6923 15.6226H11.6848Z" fill="#0B5FFF" />
	<path d="M11.6773 16.3651C17.2798 16.3651 20.5348 17.3326 23.8348 22.8451C26.3473 27.0301 28.3723 28.5676 31.8673 28.9426L32.6923 29.0326V28.2076L32.7148 26.6701L38.9323 30.3301L32.6548 33.8926L32.6698 32.3176V31.6276L31.9873 31.5676C26.7298 31.1026 24.2023 28.5151 21.6148 24.1951C18.9373 19.7326 16.7848 18.9751 11.6848 18.9751H9.83234V16.3726H11.6848M11.6848 15.6226H9.77234C9.39734 15.6226 9.08984 15.9301 9.08984 16.3051V19.0351C9.08984 19.4101 9.39734 19.7176 9.77234 19.7176H11.6848C16.5448 19.7176 18.4648 20.3851 20.9773 24.5701C23.6698 29.0626 26.4073 31.8226 31.9273 32.3026L31.9123 33.9826C31.9123 34.3876 32.2423 34.6726 32.6023 34.6726C32.7148 34.6726 32.8273 34.6426 32.9398 34.5826L39.4123 30.9226C39.8698 30.6601 39.8773 30.0001 39.4198 29.7376L33.0148 25.9651C32.9023 25.8976 32.7823 25.8676 32.6698 25.8676C32.3173 25.8676 31.9873 26.1526 31.9798 26.5501L31.9648 28.2001C28.6648 27.8476 26.8348 26.3626 24.4948 22.4626C21.0223 16.6801 17.4598 15.6226 11.6923 15.6226H11.6848Z" stroke="#0B5FFF" />
</svg>