<svg fill="none" height="68" viewBox="0 0 68 68" width="68" xmlns="http://www.w3.org/2000/svg">
	<path d="M18.4165 4.25V63.75" stroke="white" stroke-width="2"></path>
	<path clip-rule="evenodd" d="M34 2.83325H14.1667C11.0371 2.83325 8.5 5.3703 8.5 8.49992V59.4999C8.5 62.6295 11.0371 65.1666 14.1667 65.1666H53.8333C56.9629 65.1666 59.5 62.6295 59.5 59.4999V8.49992C59.5 5.3703 56.9629 2.83325 53.8333 2.83325V5.66659C55.3982 5.66659 56.6667 6.93511 56.6667 8.49992V59.4999C56.6667 61.0648 55.3982 62.3333 53.8333 62.3333H14.1667C12.6019 62.3333 11.3333 61.0648 11.3333 59.4999V8.49992C11.3333 6.93511 12.6019 5.66659 14.1667 5.66659H34V2.83325ZM52.4167 5.66659H35.4167V2.83325H52.4167V5.66659Z" fill="white" fill-rule="evenodd"></path>
	<path d="M35.4165 1.41675V45.3334L43.9165 41.0834L52.4165 45.3334V2.83341C52.4165 2.05102 51.7823 1.41675 50.9998 1.41675H35.4165Z" fill="white"></path>
</svg>