<svg fill="none" height="68" viewBox="0 0 68 68" width="68" xmlns="http://www.w3.org/2000/svg">
	<path d="M21.25 4.25C24.0833 4.25 25.5 5.66667 25.5 8.5" stroke="white" stroke-miterlimit="10" stroke-width="2"></path>
	<path d="M49.5833 35.4167H29.75" stroke="white" stroke-linecap="round" stroke-linejoin="round" stroke-width="2"></path>
	<path d="M49.5833 25.5H29.75" stroke="white" stroke-linecap="round" stroke-linejoin="round" stroke-width="2"></path>
	<path d="M49.5833 45.3333H29.75" stroke="white" stroke-linecap="round" stroke-linejoin="round" stroke-width="2"></path>
	<path d="M23.3748 52.4167H19.1248C18.7337 52.4167 18.4165 52.7339 18.4165 53.1251V57.3751C18.4165 57.7662 18.7337 58.0834 19.1248 58.0834H23.3748C23.766 58.0834 24.0832 57.7662 24.0832 57.3751V53.1251C24.0832 52.7339 23.766 52.4167 23.3748 52.4167Z" fill="white"></path>
	<path d="M18.4165 44.625L20.3007 46.75L24.0832 42.5" stroke="white" stroke-linecap="round" stroke-linejoin="round" stroke-width="2"></path>
	<path d="M18.4165 34.7083L20.3007 36.8333L24.0832 32.5833" stroke="white" stroke-linecap="round" stroke-linejoin="round" stroke-width="2"></path>
	<path d="M56.6668 16.0225V10.88C56.6668 9.5625 55.5618 8.5 54.2018 8.5H13.7985C12.4385 8.5 11.3335 9.57667 11.3335 10.88V61.37C11.3335 62.6875 12.4385 63.75 13.7985 63.75H54.1877C55.5477 63.75 56.6527 62.6733 56.6527 61.37V16.0225H56.6668Z" stroke="white" stroke-linecap="round" stroke-linejoin="round" stroke-width="2"></path>
	<path d="M22.6667 12.75V19.8333C22.6667 21.25 22.6667 24.0833 19.8333 24.0833C17 24.0833 17 21.25 17 19.8333V8.5C17 5.66667 18.4167 4.25 21.25 4.25" stroke="white" stroke-linecap="round" stroke-miterlimit="10" stroke-width="2"></path>
	<path d="M49.5833 55.25H29.75" stroke="white" stroke-linecap="round" stroke-linejoin="round" stroke-width="2"></path>
</svg>