<svg fill="none" height="68" viewBox="0 0 68 68" width="68" xmlns="http://www.w3.org/2000/svg">
	<path clip-rule="evenodd" d="M50.8723 14.0106L63.0981 20.9239C63.9623 21.4056 63.9764 22.6522 63.1123 23.1622L51.0139 30.2881C50.1498 30.7981 49.0589 30.1747 49.0589 29.1831L49.0306 26.0664C43.4811 26.6591 40.1325 28.9363 36.3456 34.6369C35.6754 33.6852 34.9968 32.6308 34.2973 31.4642C33.4653 30.0756 32.6298 28.8351 31.7825 27.7279C35.9593 22.3295 40.8849 19.0317 48.9739 18.3172L48.9456 15.1439C48.9314 14.1522 50.0081 13.5147 50.8723 14.0106ZM28.0271 33.357C23.4086 40.8745 19.7614 42.0889 10.7381 42.0889H7.12559C6.41726 42.0889 5.83643 42.6697 5.83643 43.3781V48.5347C5.83643 49.2431 6.41726 49.8239 7.12559 49.8239H10.7381C20.3914 49.8239 26.7745 48.2555 32.6668 40.2989C31.3533 38.6497 30.1158 36.7823 28.8714 34.7083C28.5871 34.2353 28.3062 33.7852 28.0271 33.357Z" fill="white" fill-rule="evenodd"></path>
	<path d="M10.7239 19.5783C21.3064 19.5783 27.4548 21.4058 33.6881 31.8183C38.4339 39.7233 42.2589 42.6274 48.8606 43.3358L50.4189 43.5058V41.9474L50.4614 39.0433L62.2056 45.9566L50.3481 52.6858L50.3764 49.7108V48.4074L49.0873 48.2941C39.1564 47.4158 34.3823 42.5283 29.4948 34.3683C24.4373 25.9391 20.3714 24.5083 10.7381 24.5083H7.23893V19.5924H10.7381M10.7381 18.1758H7.12559C6.41726 18.1758 5.83643 18.7566 5.83643 19.4649V24.6216C5.83643 25.3299 6.41726 25.9108 7.12559 25.9108H10.7381C19.9181 25.9108 23.5448 27.1716 28.2906 35.0766C33.3764 43.5624 38.5473 48.7758 48.9739 49.6824L48.9456 52.8558C48.9456 53.6208 49.5689 54.1591 50.2489 54.1591C50.4614 54.1591 50.6739 54.1024 50.8864 53.9891L63.1123 47.0758C63.9764 46.5799 63.9906 45.3333 63.1264 44.8374L51.0281 37.7116C50.8156 37.5841 50.5889 37.5274 50.3764 37.5274C49.7106 37.5274 49.0873 38.0658 49.0731 38.8166L49.0448 41.9333C42.8114 41.2674 39.3548 38.4624 34.9348 31.0958C28.3756 20.1733 21.6464 18.1758 10.7523 18.1758H10.7381Z" fill="white"></path>
	<path d="M10.7239 19.5783C21.3064 19.5783 27.4548 21.4058 33.6881 31.8183C38.4339 39.7233 42.2589 42.6274 48.8606 43.3358L50.4189 43.5058V41.9474L50.4614 39.0433L62.2056 45.9566L50.3481 52.6858L50.3764 49.7108V48.4074L49.0873 48.2941C39.1564 47.4158 34.3823 42.5283 29.4948 34.3683C24.4373 25.9391 20.3714 24.5083 10.7381 24.5083H7.23893V19.5924H10.7381M10.7381 18.1758H7.12559C6.41726 18.1758 5.83643 18.7566 5.83643 19.4649V24.6216C5.83643 25.3299 6.41726 25.9108 7.12559 25.9108H10.7381C19.9181 25.9108 23.5448 27.1716 28.2906 35.0766C33.3764 43.5624 38.5473 48.7758 48.9739 49.6824L48.9456 52.8558C48.9456 53.6208 49.5689 54.1591 50.2489 54.1591C50.4614 54.1591 50.6739 54.1024 50.8864 53.9891L63.1123 47.0758C63.9764 46.5799 63.9906 45.3333 63.1264 44.8374L51.0281 37.7116C50.8156 37.5841 50.5889 37.5274 50.3764 37.5274C49.7106 37.5274 49.0873 38.0658 49.0731 38.8166L49.0448 41.9333C42.8114 41.2674 39.3548 38.4624 34.9348 31.0958C28.3756 20.1733 21.6464 18.1758 10.7523 18.1758H10.7381Z" stroke="white"></path>
</svg>