<svg fill="none" height="68" viewBox="0 0 68 68" width="68" xmlns="http://www.w3.org/2000/svg">
	<path d="M16.0652 34.0276H44.3985" stroke="white" stroke-linecap="round" stroke-width="2"></path>
	<path d="M16.0652 41.111H44.3985" stroke="white" stroke-linecap="round" stroke-width="2"></path>
	<path d="M21.25 26.7465H39.6667" stroke="white" stroke-linecap="round" stroke-width="2"></path>
	<path clip-rule="evenodd" d="M50.2917 44.0578C50.2917 39.7545 53.7801 36.2661 58.0833 36.2661C62.3865 36.2661 65.875 39.7545 65.875 44.0578C65.875 46.9091 64.3433 49.4027 62.0579 50.7609C62.0225 50.774 61.9881 50.79 61.9551 50.8087C60.8868 51.4158 59.6656 51.794 58.3756 51.844C58.2787 51.8476 58.1812 51.8494 58.0833 51.8494C57.9019 51.8494 57.7218 51.8432 57.5434 51.831C56.3421 51.7476 55.2108 51.3879 54.2168 50.8119C54.1821 50.7917 54.146 50.7746 54.1087 50.7607C51.8232 49.4027 50.2917 46.9091 50.2917 44.0578ZM53.125 51.8184C50.569 50.1822 48.875 47.3178 48.875 44.0578C48.875 38.9721 52.9976 34.8494 58.0833 34.8494C63.1689 34.8494 67.2917 38.9721 67.2917 44.0578C67.2917 47.3178 65.5975 50.1822 63.0417 51.8184V60.9872C63.0417 61.2737 62.8691 61.5319 62.6043 61.6416C62.3397 61.7512 62.035 61.6906 61.8324 61.488L58.0833 57.7389L54.3341 61.488C54.1315 61.6906 53.827 61.7512 53.5622 61.6416C53.2976 61.5319 53.125 61.2737 53.125 60.9872V51.8184Z" fill="white" fill-rule="evenodd"></path>
	<path clip-rule="evenodd" d="M5.21329 5.66669C3.06527 5.66669 1.41663 7.45496 1.41663 9.54835V49.9375C1.41663 52.0364 3.08482 53.8192 5.21329 53.8192H51.4817C51.5589 53.8192 51.6345 53.8131 51.7083 53.8012V52.5588C51.0929 52.0965 50.5291 51.5688 50.0275 50.9859H5.21329C4.73509 50.9859 4.24995 50.5586 4.24995 49.9375V9.54835C4.24995 8.92176 4.72631 8.50002 5.21329 8.50002H10.3558H55.7033C56.1815 8.50002 56.6667 8.92733 56.6667 9.54835V33.32C56.6667 33.3896 56.6716 33.458 56.6813 33.5249C57.1401 33.4644 57.608 33.4332 58.0833 33.4332C58.5585 33.4332 59.0265 33.4644 59.4853 33.5249C59.4949 33.458 59.5 33.3896 59.5 33.32V9.54835C59.5 7.44938 57.8317 5.66669 55.7033 5.66669H10.3558H5.21329Z" fill="white" fill-rule="evenodd"></path>
	<path clip-rule="evenodd" d="M66.5834 44.0578C66.5834 48.7522 62.7778 52.5578 58.0834 52.5578C53.389 52.5578 49.5834 48.7522 49.5834 44.0578C49.5834 39.3632 53.389 35.5578 58.0834 35.5578C62.7778 35.5578 66.5834 39.3632 66.5834 44.0578ZM62.2726 42.864C62.8258 42.3106 62.8258 41.4137 62.2726 40.8604C61.7194 40.3072 60.8224 40.3072 60.2692 40.8604L57.0209 44.1087L55.8976 42.9854C55.3444 42.4322 54.4474 42.4322 53.8942 42.9854C53.3408 43.5387 53.3408 44.4356 53.8942 44.989L56.0192 47.114C56.5724 47.6672 57.4694 47.6672 58.0226 47.114L62.2726 42.864Z" fill="white" fill-rule="evenodd"></path>
	<path d="M34.1986 13.0332C33.3061 12.1407 32.0594 11.574 30.6994 11.574C29.3394 11.574 28.0928 12.1265 27.2003 13.0332C26.3078 13.9257 25.7411 15.1724 25.7411 16.5324C25.7411 17.8923 26.2936 19.139 27.2003 20.0315C28.0928 20.924 29.3394 21.4907 30.6994 21.4907C32.0594 21.4907 33.3061 20.9382 34.1986 20.0315C35.0911 19.139 35.6578 17.8923 35.6578 16.5324C35.6578 15.1724 35.1053 13.9257 34.1986 13.0332Z" fill="white"></path>
</svg>