<svg fill="none" height="48" viewBox="0 0 48 48" width="48" xmlns="http://www.w3.org/2000/svg">
	<rect fill="#E7EFFF" height="48" rx="10" width="48" />
	<g clip-path="url(#clip0_6488_4296)">
		<mask height="36" id="mask0_6488_4296" maskUnits="userSpaceOnUse" style="mask-type:luminance" width="36" x="6" y="6">
			<path d="M42 6H6V42H42V6Z" fill="white" />
		</mask>
		<g mask="url(#mask0_6488_4296)">
			<mask height="36" id="mask1_6488_4296" maskUnits="userSpaceOnUse" style="mask-type:luminance" width="36" x="6" y="6">
				<path d="M42 6H6V42H42V6Z" fill="white" />
			</mask>
			<g mask="url(#mask1_6488_4296)">
				<path clip-rule="evenodd" d="M8.25 37.75C8.25 38.4375 8.82375 39 9.525 39H25.1696C25.3305 39.2604 25.5061 39.5108 25.6952 39.75H9.525C8.42361 39.75 7.5 38.8657 7.5 37.75V34C7.5 28.8264 10.5154 24.3554 14.9022 22.174C13.4776 20.6975 12.6 18.7007 12.6 16.5C12.6 11.9297 16.3749 8.25 21 8.25C25.6251 8.25 29.4 11.9297 29.4 16.5C29.4 18.7146 28.5113 20.7228 27.0707 22.202C29.2208 23.3105 31.0147 24.9909 32.3003 27.0114C32.1595 27.0038 32.0177 27 31.875 27C31.7165 27 31.5591 27.0047 31.4029 27.014C30.1587 25.206 28.4749 23.7186 26.486 22.7477C26.2345 22.625 25.9783 22.5105 25.7174 22.4047C25.9391 22.2341 26.151 22.0519 26.3521 21.8588C27.7701 20.4974 28.65 18.5995 28.65 16.5C28.65 12.3579 25.225 9 21 9C16.775 9 13.35 12.3579 13.35 16.5C13.35 18.5896 14.2217 20.4796 15.6279 21.8396C15.8291 22.0342 16.0414 22.218 16.2635 22.3899C16.0001 22.4932 15.7411 22.6048 15.4867 22.7244C11.2049 24.7381 8.25 29.0298 8.25 34V37.75Z" fill="#0B5FFF" fill-rule="evenodd" />
				<path d="M25.1696 39L25.4888 38.803L25.3788 38.625H25.1696V39ZM25.6952 39.75V40.125H26.4697L25.9893 39.5174L25.6952 39.75ZM14.9022 22.174L15.0691 22.5098L15.5274 22.282L15.172 21.9137L14.9022 22.174ZM27.0707 22.202L26.8021 21.9403L26.4487 22.3032L26.8989 22.5353L27.0707 22.202ZM32.3003 27.0114L32.2802 27.3859L33.0079 27.4249L32.6167 26.8101L32.3003 27.0114ZM31.4029 27.014L31.0939 27.2266L31.2139 27.4009L31.4251 27.3883L31.4029 27.014ZM25.7174 22.4047L25.4888 22.1074L24.9701 22.5062L25.5764 22.7522L25.7174 22.4047ZM16.2635 22.3899L16.4003 22.7391L17.0158 22.4979L16.4931 22.0933L16.2635 22.3899ZM9.525 38.625C9.02382 38.625 8.625 38.2235 8.625 37.75H7.875C7.875 38.6516 8.62368 39.375 9.525 39.375V38.625ZM25.1696 38.625H9.525V39.375H25.1696V38.625ZM25.9893 39.5174C25.8091 39.2895 25.6419 39.051 25.4888 38.803L24.8506 39.197C25.0191 39.4698 25.2029 39.7321 25.401 39.9826L25.9893 39.5174ZM9.525 40.125H25.6952V39.375H9.525V40.125ZM7.125 37.75C7.125 39.0805 8.22433 40.125 9.525 40.125V39.375C8.62288 39.375 7.875 38.6508 7.875 37.75H7.125ZM7.125 34V37.75H7.875V34H7.125ZM14.7353 21.8383C10.2285 24.0793 7.125 28.6758 7.125 34H7.875C7.875 28.9769 10.8023 24.6315 15.0691 22.5098L14.7353 21.8383ZM12.225 16.5C12.225 18.8027 13.1438 20.8916 14.6323 22.4345L15.172 21.9137C13.8114 20.5034 12.975 18.5986 12.975 16.5H12.225ZM21 7.875C16.175 7.875 12.225 11.7154 12.225 16.5H12.975C12.975 12.144 16.5748 8.625 21 8.625V7.875ZM29.775 16.5C29.775 11.7154 25.825 7.875 21 7.875V8.625C25.4252 8.625 29.025 12.144 29.025 16.5H29.775ZM27.3394 22.4636C28.8446 20.918 29.775 18.8173 29.775 16.5H29.025C29.025 18.6118 28.178 20.5275 26.8021 21.9403L27.3394 22.4636ZM32.6167 26.8101C31.2971 24.7362 29.4543 23.009 27.2425 21.8686L26.8989 22.5353C28.9873 23.612 30.7324 25.2457 31.984 27.2127L32.6167 26.8101ZM31.875 27.375C32.011 27.375 32.146 27.3787 32.2802 27.3859L32.3204 26.6369C32.1729 26.629 32.0244 26.625 31.875 26.625V27.375ZM31.4251 27.3883C31.5739 27.3795 31.7239 27.375 31.875 27.375V26.625C31.709 26.625 31.5442 26.6299 31.3806 26.6397L31.4251 27.3883ZM26.3215 23.0847C28.2497 24.0259 29.8846 25.4693 31.0939 27.2266L31.7118 26.8014C30.4327 24.9428 28.7002 23.4112 26.6505 22.4107L26.3215 23.0847ZM25.5764 22.7522C25.8293 22.8548 26.0777 22.9657 26.3215 23.0847L26.6505 22.4107C26.3915 22.2842 26.1273 22.1663 25.8584 22.0571L25.5764 22.7522ZM26.0924 21.5883C25.9012 21.7719 25.6996 21.9452 25.4888 22.1074L25.946 22.7019C26.1786 22.5231 26.4008 22.3319 26.6118 22.1294L26.0924 21.5883ZM28.275 16.5C28.275 18.4921 27.4406 20.2939 26.0924 21.5883L26.6118 22.1294C28.0995 20.701 29.025 18.7069 29.025 16.5H28.275ZM21 9.375C25.0249 9.375 28.275 12.5719 28.275 16.5H29.025C29.025 12.144 25.4252 8.625 21 8.625V9.375ZM13.725 16.5C13.725 12.5719 16.9751 9.375 21 9.375V8.625C16.5748 8.625 12.975 12.144 12.975 16.5H13.725ZM15.8886 21.57C14.5515 20.2769 13.725 18.4827 13.725 16.5H12.975C12.975 18.6965 13.8917 20.6822 15.3672 22.1091L15.8886 21.57ZM16.4931 22.0933C16.2817 21.9298 16.08 21.7551 15.8886 21.57L15.3672 22.1091C15.5783 22.3133 15.801 22.5062 16.034 22.6865L16.4931 22.0933ZM15.6463 23.0638C15.8932 22.9476 16.1446 22.8393 16.4003 22.7391L16.1267 22.0408C15.8556 22.147 15.5889 22.2619 15.3271 22.385L15.6463 23.0638ZM8.625 34C8.625 29.1833 11.4884 25.0192 15.6463 23.0638L15.3271 22.385C10.9215 24.4571 7.875 28.8763 7.875 34H8.625ZM8.625 37.75V34H7.875V37.75H8.625Z" fill="#0B5FFF" />
			</g>
			<path clip-rule="evenodd" d="M37.7606 32.44L32.4189 37.7346C32.2347 37.9172 31.9693 37.9916 31.717 37.9315C31.5356 37.8882 31.3795 37.7797 31.2756 37.6308L29.1991 35.5389C28.9073 35.2449 28.9091 34.7701 29.2031 34.4783C29.497 34.1864 29.9719 34.1881 30.2637 34.4822L31.9032 36.1338L36.9899 31.0919C36.795 30.8265 36.5808 30.5761 36.3455 30.3408C35.19 29.2012 33.6122 28.5 31.875 28.5C28.3608 28.5 25.5 31.3608 25.5 34.875C25.5 38.3892 28.3608 41.25 31.875 41.25C35.3892 41.25 38.25 38.3892 38.25 34.875C38.25 34.0129 38.0759 33.1923 37.7606 32.44Z" fill="#0B5FFF" fill-rule="evenodd" />
		</g>
	</g>
	<defs>
		<clipPath id="clip0_6488_4296">
			<rect fill="white" height="36" transform="translate(6 6)" width="36" />
		</clipPath>
	</defs>
</svg>