<svg fill="none" height="18" viewBox="0 0 18 18" width="18" xmlns="http://www.w3.org/2000/svg">
	<g clip-path="url(#clip0_13816_35480)">
		<path d="M17.25 9.05042C17.25 4.46622 13.5564 0.75 9 0.75C4.44365 0.75 0.75 4.46622 0.75 9.05042C0.75 13.1933 3.76689 16.6273 7.71094 17.25V11.4498H5.61621V9.05042H7.71094V7.22173C7.71094 5.14144 8.94264 3.99235 10.8271 3.99235C11.7294 3.99235 12.6738 4.15447 12.6738 4.15447V6.19715H11.6336C10.6088 6.19715 10.2891 6.83703 10.2891 7.49409V9.05042H12.5771L12.2114 11.4498H10.2891V17.25C14.2331 16.6273 17.25 13.1933 17.25 9.05042Z" fill="#3F404B" />
	</g>
	<defs>
		<clipPath id="clip0_13816_35480">
			<rect fill="white" height="16.5" transform="translate(0.75 0.75)" width="16.5" />
		</clipPath>
	</defs>
</svg>