<svg fill="none" height="18" viewBox="0 0 18 18" width="18" xmlns="http://www.w3.org/2000/svg">
	<path clip-rule="evenodd" d="M9.015 0.812012C4.46768 0.812012 0.780273 4.5616 0.780273 9.18733C0.780273 12.8878 3.13977 16.0273 6.41168 17.1348C6.82323 17.2123 6.97432 16.9531 6.97432 16.7319C6.97432 16.5321 6.96668 15.8724 6.96314 15.1725C4.67223 15.6792 4.18882 14.1843 4.18882 14.1843C3.81423 13.2162 3.2745 12.9588 3.2745 12.9588C2.52736 12.439 3.33082 12.4497 3.33082 12.4497C4.15773 12.5086 4.59314 13.3128 4.59314 13.3128C5.32759 14.5932 6.51955 14.223 6.98946 14.009C7.06336 13.4678 7.27677 13.0981 7.51227 12.8891C5.68323 12.6773 3.7605 11.9591 3.7605 8.74988C3.7605 7.83547 4.08218 7.08833 4.60896 6.50179C4.52346 6.2907 4.24159 5.43898 4.68873 4.28533C4.68873 4.28533 5.38023 4.06023 6.95386 5.14384C7.61073 4.95827 8.31518 4.8652 9.015 4.86201C9.71482 4.8652 10.4198 4.95827 11.0779 5.14384C12.6496 4.06023 13.3402 4.28533 13.3402 4.28533C13.7884 5.43898 13.5064 6.2907 13.4209 6.50179C13.9489 7.08833 14.2684 7.83547 14.2684 8.74988C14.2684 11.9668 12.342 12.6751 10.5083 12.8824C10.8037 13.1423 11.0669 13.652 11.0669 14.4334C11.0669 15.5539 11.0573 16.4559 11.0573 16.7319C11.0573 16.9547 11.2055 17.2159 11.623 17.1337C14.8931 16.0249 17.2496 12.8866 17.2496 9.18733C17.2496 4.5616 13.5627 0.812012 9.015 0.812012Z" fill="#3F404B" fill-rule="evenodd" />
	<path clip-rule="evenodd" d="M3.89918 12.8372C3.88105 12.8789 3.81668 12.8913 3.75805 12.8627C3.69832 12.8354 3.66477 12.7787 3.68414 12.7369C3.70186 12.6941 3.76636 12.6823 3.82595 12.7107C3.88582 12.7382 3.91991 12.7955 3.89918 12.8372Z" fill="#3F404B" fill-rule="evenodd" />
	<path clip-rule="evenodd" d="M4.23273 13.2156C4.19346 13.2526 4.11668 13.2354 4.06459 13.1769C4.01073 13.1185 4.00064 13.0404 4.04046 13.0028C4.08096 12.9658 4.15541 12.9831 4.20941 13.0415C4.26327 13.1006 4.27377 13.1781 4.23273 13.2156Z" fill="#3F404B" fill-rule="evenodd" />
	<path clip-rule="evenodd" d="M4.55741 13.6979C4.50696 13.7336 4.42446 13.7002 4.37346 13.6257C4.323 13.5512 4.323 13.4619 4.37455 13.4261C4.42568 13.3903 4.50696 13.4225 4.55864 13.4964C4.60896 13.572 4.60896 13.6615 4.55741 13.6979Z" fill="#3F404B" fill-rule="evenodd" />
	<path clip-rule="evenodd" d="M5.00223 14.1639C4.95709 14.2146 4.86096 14.201 4.79059 14.1319C4.71859 14.0644 4.69855 13.9685 4.74382 13.9179C4.7895 13.8671 4.88618 13.8814 4.95709 13.9499C5.02855 14.0173 5.05036 14.1139 5.00223 14.1639Z" fill="#3F404B" fill-rule="evenodd" />
	<path clip-rule="evenodd" d="M5.61586 14.4345C5.59596 14.5001 5.50336 14.53 5.41009 14.5021C5.31696 14.4734 5.256 14.3965 5.27482 14.3302C5.29418 14.2642 5.38718 14.2332 5.48114 14.263C5.57414 14.2915 5.63523 14.3678 5.61586 14.4345Z" fill="#3F404B" fill-rule="evenodd" />
	<path clip-rule="evenodd" d="M6.28977 14.4847C6.29209 14.5538 6.213 14.6111 6.11509 14.6122C6.01664 14.6146 5.937 14.5587 5.93591 14.4907C5.93591 14.4209 6.01323 14.3642 6.11168 14.3626C6.20959 14.3606 6.28977 14.4161 6.28977 14.4847Z" fill="#3F404B" fill-rule="evenodd" />
	<path clip-rule="evenodd" d="M6.91691 14.3761C6.92864 14.4436 6.86059 14.5128 6.76336 14.5311C6.66777 14.549 6.57927 14.5073 6.56714 14.4405C6.55527 14.3714 6.62455 14.3022 6.72 14.2843C6.81736 14.2671 6.9045 14.3076 6.91691 14.3761Z" fill="#3F404B" fill-rule="evenodd" />
</svg>