<svg fill="none" height="18" viewBox="0 0 18 18" width="18" xmlns="http://www.w3.org/2000/svg">
	<g clip-path="url(#clip0_13816_35482)">
		<path d="M9 2.85059C11.0039 2.85059 11.2412 2.85937 12.0293 2.89453C12.7617 2.92676 13.1572 3.0498 13.4209 3.15234C13.7695 3.28711 14.0215 3.45117 14.2822 3.71191C14.5459 3.97559 14.707 4.22461 14.8418 4.57324C14.9443 4.83691 15.0674 5.23535 15.0996 5.96484C15.1348 6.75586 15.1436 6.99316 15.1436 8.99414C15.1436 10.998 15.1348 11.2354 15.0996 12.0234C15.0674 12.7559 14.9443 13.1514 14.8418 13.415C14.707 13.7637 14.543 14.0156 14.2822 14.2764C14.0186 14.54 13.7695 14.7012 13.4209 14.8359C13.1572 14.9385 12.7588 15.0615 12.0293 15.0937C11.2383 15.1289 11.001 15.1377 9 15.1377C6.99609 15.1377 6.75879 15.1289 5.9707 15.0937C5.23828 15.0615 4.84277 14.9385 4.5791 14.8359C4.23047 14.7012 3.97852 14.5371 3.71777 14.2764C3.4541 14.0127 3.29297 13.7637 3.1582 13.415C3.05566 13.1514 2.93262 12.7529 2.90039 12.0234C2.86523 11.2324 2.85645 10.9951 2.85645 8.99414C2.85645 6.99023 2.86523 6.75293 2.90039 5.96484C2.93262 5.23242 3.05566 4.83691 3.1582 4.57324C3.29297 4.22461 3.45703 3.97266 3.71777 3.71191C3.98145 3.44824 4.23047 3.28711 4.5791 3.15234C4.84277 3.0498 5.24121 2.92676 5.9707 2.89453C6.75879 2.85937 6.99609 2.85059 9 2.85059ZM9 1.5C6.96387 1.5 6.70898 1.50879 5.90918 1.54395C5.1123 1.5791 4.56445 1.70801 4.08984 1.89258C3.59473 2.08594 3.17578 2.34082 2.75977 2.75977C2.34082 3.17578 2.08594 3.59473 1.89258 4.08691C1.70801 4.56445 1.5791 5.10937 1.54395 5.90625C1.50879 6.70898 1.5 6.96387 1.5 9C1.5 11.0361 1.50879 11.291 1.54395 12.0908C1.5791 12.8877 1.70801 13.4355 1.89258 13.9102C2.08594 14.4053 2.34082 14.8242 2.75977 15.2402C3.17578 15.6562 3.59473 15.9141 4.08691 16.1045C4.56445 16.2891 5.10937 16.418 5.90625 16.4531C6.70605 16.4883 6.96094 16.4971 8.99707 16.4971C11.0332 16.4971 11.2881 16.4883 12.0879 16.4531C12.8848 16.418 13.4326 16.2891 13.9072 16.1045C14.3994 15.9141 14.8184 15.6562 15.2344 15.2402C15.6504 14.8242 15.9082 14.4053 16.0986 13.9131C16.2832 13.4355 16.4121 12.8906 16.4473 12.0937C16.4824 11.2939 16.4912 11.0391 16.4912 9.00293C16.4912 6.9668 16.4824 6.71191 16.4473 5.91211C16.4121 5.11523 16.2832 4.56738 16.0986 4.09277C15.9141 3.59473 15.6592 3.17578 15.2402 2.75977C14.8242 2.34375 14.4053 2.08594 13.9131 1.89551C13.4355 1.71094 12.8906 1.58203 12.0937 1.54687C11.291 1.50879 11.0361 1.5 9 1.5Z" fill="#3F404B" />
		<path d="M9 5.14746C6.87305 5.14746 5.14746 6.87305 5.14746 9C5.14746 11.127 6.87305 12.8525 9 12.8525C11.127 12.8525 12.8525 11.127 12.8525 9C12.8525 6.87305 11.127 5.14746 9 5.14746ZM9 11.499C7.62012 11.499 6.50098 10.3799 6.50098 9C6.50098 7.62012 7.62012 6.50098 9 6.50098C10.3799 6.50098 11.499 7.62012 11.499 9C11.499 10.3799 10.3799 11.499 9 11.499Z" fill="#3F404B" />
		<path d="M13.9043 4.99487C13.9043 5.49292 13.5 5.89429 13.0049 5.89429C12.5068 5.89429 12.1055 5.48999 12.1055 4.99487C12.1055 4.49683 12.5098 4.09546 13.0049 4.09546C13.5 4.09546 13.9043 4.49976 13.9043 4.99487Z" fill="#3F404B" />
	</g>
	<defs>
		<clipPath id="clip0_13816_35482">
			<rect fill="white" height="15" transform="translate(1.5 1.5)" width="15" />
		</clipPath>
	</defs>
</svg>