<svg fill="none" height="18" viewBox="0 0 18 18" width="18" xmlns="http://www.w3.org/2000/svg">
	<g clip-path="url(#clip0_13815_87138)">
		<path d="M15.3896 1.5H2.60742C1.99512 1.5 1.5 1.9834 1.5 2.58105V15.416C1.5 16.0137 1.99512 16.5 2.60742 16.5H15.3896C16.002 16.5 16.5 16.0137 16.5 15.4189V2.58105C16.5 1.9834 16.002 1.5 15.3896 1.5ZM5.9502 14.2822H3.72363V7.12207H5.9502V14.2822ZM4.83691 6.14648C4.12207 6.14648 3.54492 5.56934 3.54492 4.85742C3.54492 4.14551 4.12207 3.56836 4.83691 3.56836C5.54883 3.56836 6.12598 4.14551 6.12598 4.85742C6.12598 5.56641 5.54883 6.14648 4.83691 6.14648ZM14.2822 14.2822H12.0586V10.8018C12.0586 9.97266 12.0439 8.90332 10.9014 8.90332C9.74414 8.90332 9.56836 9.80859 9.56836 10.7432V14.2822H7.34766V7.12207H9.48047V8.10059H9.50977C9.80566 7.53809 10.5322 6.94336 11.6133 6.94336C13.8662 6.94336 14.2822 8.42578 14.2822 10.3535V14.2822Z" fill="#3F404B" />
	</g>
	<defs>
		<clipPath id="clip0_13815_87138">
			<rect fill="white" height="15" transform="translate(1.5 1.5)" width="15" />
		</clipPath>
	</defs>
</svg>