<svg fill="none" height="40" viewBox="0 0 128 40" width="128" xmlns="http://www.w3.org/2000/svg">
	<path clip-rule="evenodd" d="M6.896 8.51048C6.896 7.57042 7.66782 6.80835 8.6199 6.80835H28.4448C29.3969 6.80835 30.1687 7.57042 30.1687 8.51048V28.0849C30.1687 29.025 29.3969 29.7871 28.4448 29.7871H8.6199C7.66782 29.7871 6.896 29.025 6.896 28.0849V8.51048ZM10.3438 10.6381C10.3438 10.4031 10.5368 10.2126 10.7748 10.2126H13.3606C13.5987 10.2126 13.7916 10.4031 13.7916 10.6381V13.1913C13.7916 13.4263 13.5987 13.6169 13.3606 13.6169H10.7748C10.5368 13.6169 10.3438 13.4263 10.3438 13.1913V10.6381ZM15.0845 10.2126C14.8465 10.2126 14.6536 10.4031 14.6536 10.6381V13.1913C14.6536 13.4263 14.8465 13.6169 15.0845 13.6169H17.6704C17.9084 13.6169 18.1014 13.4263 18.1014 13.1913V10.6381C18.1014 10.4031 17.9084 10.2126 17.6704 10.2126H15.0845ZM18.9633 10.6381C18.9633 10.4031 19.1563 10.2126 19.3943 10.2126H21.9802C22.2182 10.2126 22.4111 10.4031 22.4111 10.6381V13.1913C22.4111 13.4263 22.2182 13.6169 21.9802 13.6169H19.3943C19.1563 13.6169 18.9633 13.4263 18.9633 13.1913V10.6381ZM10.7748 14.4679C10.5368 14.4679 10.3438 14.6584 10.3438 14.8935V17.4466C10.3438 17.6817 10.5368 17.8722 10.7748 17.8722H13.3606C13.5987 17.8722 13.7916 17.6817 13.7916 17.4466V14.8935C13.7916 14.6584 13.5987 14.4679 13.3606 14.4679H10.7748ZM14.6536 14.8935C14.6536 14.6584 14.8465 14.4679 15.0845 14.4679H17.6704C17.9084 14.4679 18.1014 14.6584 18.1014 14.8935V17.4466C18.1014 17.6817 17.9084 17.8722 17.6704 17.8722H15.0845C14.8465 17.8722 14.6536 17.6817 14.6536 17.4466V14.8935ZM23.7041 14.4679C23.4661 14.4679 23.2731 14.6584 23.2731 14.8935V17.4466C23.2731 17.6817 23.4661 17.8722 23.7041 17.8722H26.2899C26.528 17.8722 26.7209 17.6817 26.7209 17.4466V14.8935C26.7209 14.6584 26.528 14.4679 26.2899 14.4679H23.7041ZM10.3438 19.1488C10.3438 18.9138 10.5368 18.7232 10.7748 18.7232H13.3606C13.5987 18.7232 13.7916 18.9138 13.7916 19.1488V21.702C13.7916 21.937 13.5987 22.1275 13.3606 22.1275H10.7748C10.5368 22.1275 10.3438 21.937 10.3438 21.702V19.1488ZM19.3943 18.7232C19.1563 18.7232 18.9633 18.9138 18.9633 19.1488V21.702C18.9633 21.937 19.1563 22.1275 19.3943 22.1275H21.9802C22.2182 22.1275 22.4111 21.937 22.4111 21.702V19.1488C22.4111 18.9138 22.2182 18.7232 21.9802 18.7232H19.3943ZM23.2731 19.1488C23.2731 18.9138 23.4661 18.7232 23.7041 18.7232H26.2899C26.528 18.7232 26.7209 18.9138 26.7209 19.1488V21.702C26.7209 21.937 26.528 22.1275 26.2899 22.1275H23.7041C23.4661 22.1275 23.2731 21.937 23.2731 21.702V19.1488ZM15.0845 22.9786C14.8465 22.9786 14.6536 23.1691 14.6536 23.4041V25.9573C14.6536 26.1923 14.8465 26.3828 15.0845 26.3828H17.6704C17.9084 26.3828 18.1014 26.1923 18.1014 25.9573V23.4041C18.1014 23.1691 17.9084 22.9786 17.6704 22.9786H15.0845ZM18.9633 23.4041C18.9633 23.1691 19.1563 22.9786 19.3943 22.9786H21.9802C22.2182 22.9786 22.4111 23.1691 22.4111 23.4041V25.9573C22.4111 26.1923 22.2182 26.3828 21.9802 26.3828H19.3943C19.1563 26.3828 18.9633 26.1923 18.9633 25.9573V23.4041ZM23.7041 22.9786C23.4661 22.9786 23.2731 23.1691 23.2731 23.4041V25.9573C23.2731 26.1923 23.4661 26.3828 23.7041 26.3828H26.2899C26.528 26.3828 26.7209 26.1923 26.7209 25.9573V23.4041C26.7209 23.1691 26.528 22.9786 26.2899 22.9786H23.7041Z" fill="#0B63CE" fill-rule="evenodd" />
	<path d="M49.3037 27.7875H39.0896V6.9364C39.0896 6.80874 39.0034 6.72363 38.8741 6.72363H37.2795C37.1502 6.72363 37.064 6.80874 37.064 6.9364V29.3194C37.064 29.447 37.1502 29.5321 37.2795 29.5321H49.3037C49.433 29.5321 49.5192 29.447 49.5192 29.3194V27.9577C49.5192 27.8726 49.433 27.7875 49.3037 27.7875Z" fill="#282934" />
	<path d="M64.4312 12.8086H60.811V9.48941C60.811 7.14899 61.5867 6.00005 63.1813 6.00005C63.8278 6.00005 64.4743 6.17026 65.0776 6.42558C65.1207 6.46814 65.2069 6.46814 65.25 6.42558C65.2931 6.38303 65.3362 6.34048 65.3793 6.29792L65.8103 5.06388C65.8534 4.97878 65.8103 4.85112 65.681 4.80856C64.8622 4.46814 63.9571 4.25537 63.1813 4.25537C60.4231 4.25537 58.8716 6.08516 58.8716 9.36175V12.8086L56.8029 12.9362C56.6736 12.9362 56.5874 13.0213 56.5874 13.149V14.2979C56.5874 14.4256 56.6736 14.5107 56.8029 14.5107H58.8716V29.3192C58.8716 29.4469 58.9578 29.532 59.0871 29.532H60.5955C60.7248 29.532 60.811 29.4469 60.811 29.3192V14.5107H64.4312C64.5605 14.5107 64.6467 14.4256 64.6467 14.2979V12.9788C64.6467 12.8937 64.5605 12.8086 64.4312 12.8086Z" fill="#282934" />
	<path d="M72.2746 12.3831C68.6975 12.3831 64.8618 15.4894 64.8618 21.1916C64.8618 26.3405 68.0941 29.9575 72.7056 29.9575C75.1622 29.9575 76.6706 29.149 78.0497 28.3405C78.1359 28.298 78.179 28.1703 78.1359 28.0426L77.4894 26.8937C77.4463 26.8511 77.4032 26.8086 77.3601 26.8086C77.317 26.8086 77.2308 26.8086 77.1877 26.8511C75.8086 27.8299 74.4295 28.2554 72.878 28.2554C69.3871 28.2554 67.0167 25.5745 66.8874 21.6171H78.5669C78.6531 21.6171 78.7393 21.532 78.7824 21.4469C78.8686 21.0214 78.8686 20.5533 78.8686 20.1703C78.7824 15.2767 76.3689 12.3831 72.2746 12.3831ZM66.8443 19.915C67.2322 16.4682 69.4302 14.0852 72.2746 14.0852C75.2483 14.0852 76.8861 16.1703 76.9292 19.915H66.8443Z" fill="#282934" />
	<path d="M89.8155 12.766C89.2983 12.5106 88.7812 12.4255 88.0916 12.4255C86.3677 12.4255 84.73 13.4894 83.4802 15.4894L83.3509 13.0213C83.3509 12.8936 83.2647 12.8085 83.1354 12.8085H81.8424C81.7131 12.8085 81.627 12.8936 81.627 13.0213V29.3617C81.627 29.4894 81.7131 29.5745 81.8424 29.5745H83.3509C83.4802 29.5745 83.5663 29.4894 83.5663 29.3617V18.2979C84.6007 15.7447 86.1953 14.2553 87.8761 14.2553C88.4795 14.2553 88.7381 14.3404 89.2983 14.5106C89.3414 14.5106 89.4276 14.5106 89.4707 14.5106C89.5138 14.4681 89.5569 14.4255 89.5569 14.383L89.9017 13.0213C89.9448 12.8936 89.9017 12.8085 89.8155 12.766Z" fill="#282934" />
	<path d="M103.435 12.8085H102.099C101.97 12.8085 101.883 12.8936 101.883 13.0213L101.797 14.2553C100.375 13.1489 98.9958 12.4255 97.0133 12.4255C92.6173 12.4255 89.4712 16.1277 89.4712 21.234C89.4712 26.7234 92.1001 30 96.5392 30C98.3493 30 100.159 29.1915 101.84 27.6596L101.97 29.4043C101.97 29.5319 102.056 29.617 102.185 29.617H103.478C103.607 29.617 103.693 29.5319 103.693 29.4043V13.0213C103.65 12.8936 103.564 12.8085 103.435 12.8085ZM101.711 16.1277V25.617C99.9439 27.4043 98.3924 28.1702 96.7547 28.1702C93.4793 28.1702 91.4968 25.5319 91.4968 21.1489C91.4968 17.1915 93.9533 14.0851 97.0995 14.0851C98.7372 14.1277 100.116 14.7234 101.711 16.1277Z" fill="#282934" />
	<path d="M119.897 12.8938C119.854 12.8512 119.811 12.8087 119.725 12.8087H118.174C118.087 12.8087 118.001 12.8512 117.958 12.9363L114.424 23.1916C114.252 23.7448 114.036 24.3406 113.864 24.9363C113.605 25.7874 113.303 26.6385 113.045 27.4044C112.7 26.5533 112.355 25.6172 112.011 24.7236C111.795 24.1704 111.58 23.6597 111.407 23.1491L107.442 12.8938C107.399 12.8087 107.313 12.7661 107.227 12.7661H105.589C105.503 12.7661 105.46 12.8087 105.417 12.8512C105.374 12.8938 105.374 12.9789 105.417 13.064L112.183 29.6172L111.752 30.9789C111.105 32.8938 109.899 35.1491 107.701 35.1491C107.27 35.1491 106.753 35.0214 106.408 34.8938C106.365 34.8938 106.279 34.8938 106.235 34.8938C106.192 34.9363 106.149 34.9789 106.106 35.0214L105.761 36.3406C105.718 36.4257 105.804 36.5533 105.891 36.5959C106.365 36.8087 107.054 36.9363 107.658 36.9363C110.2 36.9363 112.183 35.0214 113.433 31.4044L119.941 13.0214C119.984 13.0214 119.941 12.9363 119.897 12.8938Z" fill="#282934" />
	<path d="M53.6135 9.10651C53.8721 9.10651 54.0875 8.89375 54.0875 8.63843V7.10652C54.0875 6.85119 53.8721 6.63843 53.6135 6.63843H52.062C51.8034 6.63843 51.5879 6.85119 51.5879 7.10652V8.63843C51.5879 8.89375 51.8034 9.10651 52.062 9.10651H53.6135Z" fill="#282934" />
	<path d="M52.062 12.8086H53.5704C53.6997 12.8086 53.7859 12.8937 53.7859 13.0214V29.3618C53.7859 29.4895 53.6997 29.5746 53.5704 29.5746H52.062C51.9327 29.5746 51.8465 29.4895 51.8465 29.3618V13.0214C51.8465 12.8937 51.9327 12.8086 52.062 12.8086Z" fill="#282934" />
</svg>