<svg fill="none" height="18" viewBox="0 0 18 18" width="18" xmlns="http://www.w3.org/2000/svg">
	<g clip-path="url(#clip0_13816_35486)">
		<path d="M17.0856 5.6998C17.0856 5.6998 16.9245 4.56221 16.4282 4.0627C15.7998 3.40527 15.0973 3.40205 14.775 3.36338C12.4676 3.1958 9.00322 3.1958 9.00322 3.1958H8.99678C8.99678 3.1958 5.53242 3.1958 3.225 3.36338C2.90273 3.40205 2.2002 3.40527 1.57178 4.0627C1.07549 4.56221 0.917578 5.6998 0.917578 5.6998C0.917578 5.6998 0.75 7.03721 0.75 8.37139V9.62178C0.75 10.956 0.914355 12.2934 0.914355 12.2934C0.914355 12.2934 1.07549 13.431 1.56855 13.9305C2.19697 14.5879 3.02197 14.5653 3.38936 14.6362C4.71064 14.7619 9 14.8006 9 14.8006C9 14.8006 12.4676 14.7941 14.775 14.6298C15.0973 14.5911 15.7998 14.5879 16.4282 13.9305C16.9245 13.431 17.0856 12.2934 17.0856 12.2934C17.0856 12.2934 17.25 10.9592 17.25 9.62178V8.37139C17.25 7.03721 17.0856 5.6998 17.0856 5.6998ZM7.29522 11.1396V6.50225L11.7521 8.829L7.29522 11.1396Z" fill="#3F404B" />
	</g>
	<defs>
		<clipPath id="clip0_13816_35486">
			<rect fill="white" height="16.5" transform="translate(0.75 0.75)" width="16.5" />
		</clipPath>
	</defs>
</svg>