<svg fill="none" height="1080" viewBox="0 0 1080 1080" width="1080" xmlns="http://www.w3.org/2000/svg">
	<path clip-rule="evenodd" d="M816.997 682.022C931.499 511.643 950.778 260.98 763.611 190.45C676.897 157.773 598.053 188.946 538.903 212.332C518.617 220.353 500.647 227.457 485.471 230.756C473.86 233.28 460.278 235.114 445.438 237.119C429.168 239.316 411.387 241.718 393.037 245.456C338.57 241.507 288.586 253.172 250.318 285.174C96.7776 413.576 205.391 762.302 356.837 884.734C516.779 1014.04 758.673 914.885 813.235 700.109C814.761 694.104 816.012 688.073 816.997 682.022Z" fill="white" fill-rule="evenodd" style="mix-blend-mode:multiply" />
	<path d="M763.611 190.45C1000.96 279.891 906.318 659.015 706.498 796.739C506.679 934.462 172.447 758.459 195.104 494.997C217.761 231.536 402.262 248.842 485.471 230.756C544.895 217.84 647.156 146.566 763.611 190.45V190.45Z" fill="url(#paint0_linear_51_59)" />
	<path d="M813.235 700.109C758.673 914.885 516.779 1014.04 356.837 884.734C205.391 762.302 96.7776 413.576 250.318 285.174C432.281 133.003 879.143 440.674 813.235 700.109Z" fill="url(#paint1_linear_51_59)" style="mix-blend-mode:multiply" />
	<path d="M308.862 841.744C308.19 844.219 305.908 845.221 303.631 844.041C271.401 827.338 238.228 773.617 227.56 749.323C200.861 688.521 192.064 647.118 194.595 597.512C194.79 593.691 198.194 592.196 201.139 594.638C239.375 626.344 263.904 660.838 290.603 721.64C301.27 745.934 318.374 806.711 308.862 841.744L308.862 841.744Z" fill="#FFBB08" />
	<path d="M298.485 845.265C298.659 846.788 297.634 848.216 296.135 848.538C274.919 853.1 245.107 839.318 233.987 831.336C206.158 811.359 192.322 793.968 182.87 767.855C182.142 765.843 183.671 763.713 185.809 763.76C213.574 764.362 234.477 771.908 262.307 791.885C273.426 799.867 296.02 823.705 298.485 845.265V845.265Z" fill="#FFBB08" />
	<path d="M286.495 244.967L286.495 851.467C286.495 867.637 299.603 880.745 315.773 880.745H712.566C728.736 880.745 741.844 867.637 741.844 851.467V244.967C741.844 228.797 728.736 215.689 712.566 215.689H315.773C299.603 215.689 286.495 228.797 286.495 244.967Z" fill="black" />
	<path d="M700.814 240.185H327.525C318.967 240.185 312.029 247.123 312.029 255.681V840.753C312.029 849.312 318.967 856.249 327.525 856.249H700.814C709.373 856.249 716.31 849.312 716.31 840.753V255.681C716.31 247.123 709.373 240.185 700.814 240.185Z" fill="#EAEAE9" />
	<path d="M650.463 282.551H377.876C365.222 282.551 354.963 292.809 354.963 305.463C354.963 318.117 365.222 328.375 377.876 328.375H650.463C663.117 328.375 673.375 318.117 673.375 305.463C673.375 292.809 663.117 282.551 650.463 282.551Z" fill="white" />
	<path d="M586.65 656.896H439.623C426.969 656.896 416.711 667.154 416.711 679.808C416.711 692.462 426.969 702.721 439.623 702.721H586.65C599.305 702.721 609.563 692.462 609.563 679.808C609.563 667.154 599.305 656.896 586.65 656.896Z" fill="#FFBB08" />
	<g filter="url(#filter0_d_51_59)">
		<path d="M806.98 163.508H662.98C648.655 163.508 637.042 175.121 637.042 189.446V330.406L626.329 366.811C625.805 368.592 627.437 370.258 629.228 369.771L667.458 359.378H806.98C821.305 359.378 832.918 347.765 832.918 333.44V189.446C832.918 175.121 821.305 163.508 806.98 163.508Z" fill="#FF8F39" />
	</g>
	<path d="M514.746 373.703C522.274 380.011 533.065 376.404 542.355 387.552C554.797 402.483 550.473 409.746 554.797 424.88C559.774 442.3 569.729 447.277 573.433 460.934C577.137 474.591 567.24 484.605 567.24 492.071C567.24 499.537 579.683 516.956 589.637 524.422C599.591 531.888 607.057 551.796 592.126 569.216C577.194 586.636 554.798 579.17 539.856 571.286C524.914 563.403 477.652 576.682 447.79 581.659C417.927 586.636 422.904 541.842 430.161 529.22C437.418 516.597 427.881 521.933 427.881 499.536C427.881 477.139 437.835 472.162 445.301 462.208C452.767 452.254 457.068 445.615 455.255 424.88C453.442 404.145 477.873 375.865 487.607 372.62C495.072 370.132 507.515 367.643 514.746 373.703H514.746Z" fill="#BC690F" />
	<path d="M460.908 532.119C460.908 532.119 479.935 526.97 484.927 520.094C489.92 513.217 490.065 499.586 489.782 491.957C489.499 484.327 526.844 484.645 526.844 484.645L532.652 492.601C532.652 492.601 530.319 511.345 535.406 518.598C540.493 525.851 568.584 535.854 568.584 535.854L538.179 605.874L494.221 602.357C494.221 602.357 470.689 566.689 470.147 565.935C469.605 565.182 460.908 532.119 460.908 532.119V532.119Z" fill="#EDA988" />
	<path d="M478.396 448.804C478.396 448.804 473.624 441.868 471.363 441.24C469.103 440.612 466.842 443.124 468.475 448.273C470.107 453.422 474.754 463.093 480.783 466.107C486.811 469.121 478.396 448.804 478.396 448.804H478.396Z" fill="#F4B48D" />
	<path d="M544.417 448.804C544.417 448.804 549.19 441.868 551.451 441.24C553.711 440.612 555.972 443.124 554.339 448.273C552.707 453.422 548.06 463.093 542.031 466.107C536.003 469.121 544.417 448.804 544.417 448.804H544.417Z" fill="#F4B48D" />
	<path d="M546.042 447.29C546.042 477.832 528.962 507.108 511.428 507.108C493.796 507.108 476.813 477.832 476.813 447.29C476.813 416.748 492.311 396.506 511.428 396.506C530.545 396.506 546.042 416.748 546.042 447.29Z" fill="#F9BDA0" />
	<path d="M484.927 520.094C495.072 529.399 502.898 531.242 511.428 531.242C519.958 531.242 529.867 524.137 535.406 518.598L572.966 533.99C585.178 538.995 594.74 548.88 599.335 561.253L614.523 628.941H412.95L426.808 561.093C430.644 548.886 439.672 538.996 451.478 534.065L484.927 520.094V520.094Z" fill="#121C39" />
	<path d="M532.4 392.529C529.912 402.483 522.446 414.926 510.003 424.88C500.287 432.653 479.359 446.646 475.163 439.811C470.968 432.976 467.698 404.971 477.652 397.506C487.606 390.04 497.56 385.063 507.515 385.063C517.469 385.063 532.4 392.529 532.4 392.529V392.529Z" fill="#BC690F" />
	<path d="M522.446 392.529C522.446 399.994 524.934 414.926 532.4 424.88C539.866 434.834 546.042 442.313 546.042 442.313L552.308 424.88C552.308 424.88 547.331 392.529 539.866 390.04C532.4 387.551 522.446 392.529 522.446 392.529H522.446Z" fill="#BC690F" />
	<path d="M620.902 723.062H405.372C401.623 723.062 398.584 726.101 398.584 729.85V729.85C398.584 733.599 401.623 736.638 405.372 736.638H620.902C624.651 736.638 627.69 733.599 627.69 729.85V729.85C627.69 726.101 624.651 723.062 620.902 723.062Z" fill="#C7CCCD" />
	<path d="M587.041 757.517H439.233C435.484 757.517 432.445 760.556 432.445 764.305C432.445 768.054 435.484 771.094 439.233 771.094H587.041C590.79 771.094 593.829 768.054 593.829 764.305C593.829 760.556 590.79 757.517 587.041 757.517Z" fill="#C7CCCD" />
	<path d="M550.946 674.976H475.328C472.66 674.976 470.496 677.139 470.496 679.808C470.496 682.477 472.66 684.641 475.328 684.641H550.946C553.614 684.641 555.778 682.477 555.778 679.808C555.778 677.139 553.614 674.976 550.946 674.976Z" fill="#F9F9F9" />
	<path d="M481.129 299.412H386.439C383.097 299.412 380.388 302.121 380.388 305.463C380.388 308.805 383.097 311.514 386.439 311.514H481.129C484.471 311.514 487.18 308.805 487.18 305.463C487.18 302.121 484.471 299.412 481.129 299.412Z" fill="#0B5FFF" />
	<path d="M726.875 284.875H756.125C758.806 284.875 761 287.069 761 289.75V299.5H722V289.75C722 287.069 724.194 284.875 726.875 284.875Z" fill="white" stroke="white" stroke-linecap="round" stroke-linejoin="round" stroke-width="4.875" />
	<path d="M717.125 299.5H765.875C768.556 299.5 770.75 301.694 770.75 304.375V314.125H712.25V304.375C712.25 301.694 714.444 299.5 717.125 299.5Z" fill="white" stroke="white" stroke-linecap="round" stroke-linejoin="round" stroke-width="4.875" />
	<path d="M763.438 260.5C759.806 265.692 747.837 273.151 741.5 273.151C735.163 273.151 723.194 265.692 719.562 260.5C711.421 248.849 709.812 206.875 709.812 206.875H773.188C773.188 206.875 771.579 248.849 763.438 260.5Z" fill="white" stroke="white" stroke-linecap="round" stroke-linejoin="round" stroke-width="4.875" />
	<path d="M751.25 270.25V284.875" stroke="white" stroke-linecap="round" stroke-linejoin="round" stroke-width="4.875" />
	<path d="M731.75 270.25V284.875" stroke="white" stroke-linecap="round" stroke-linejoin="round" stroke-width="4.875" />
	<mask fill="white" id="path-28-inside-1_51_59">
		<path d="M765.095 257.526C771.043 255.698 779.208 249.702 781.987 247.24C786.109 243.606 788.956 234.097 790.672 226.373C791.979 220.486 787.346 215.187 781.316 215.187H772.7" />
	</mask>
	<path d="M762.745 249.879C758.521 251.177 756.15 255.653 757.448 259.877C758.746 264.1 763.222 266.471 767.446 265.173L762.745 249.879ZM781.987 247.24L776.697 241.239C776.692 241.243 776.687 241.248 776.682 241.252L781.987 247.24ZM772.7 207.187C768.282 207.187 764.7 210.769 764.7 215.187C764.7 219.605 768.282 223.187 772.7 223.187V207.187ZM767.446 265.173C771.506 263.925 775.785 261.475 779.088 259.329C782.486 257.121 785.551 254.77 787.292 253.228L776.682 241.252C775.644 242.172 773.237 244.05 770.37 245.913C767.409 247.837 764.632 249.299 762.745 249.879L767.446 265.173ZM787.277 253.241C790.893 250.053 793.195 245.172 794.711 241.179C796.344 236.878 797.582 232.155 798.481 228.107L782.862 224.639C782.045 228.315 781.002 232.209 779.753 235.501C778.385 239.103 777.203 240.793 776.697 241.239L787.277 253.241ZM781.316 207.187H772.7V223.187H781.316V207.187ZM798.481 228.107C800.999 216.771 791.989 207.187 781.316 207.187V223.187C781.947 223.187 782.394 223.452 782.646 223.748C782.77 223.895 782.836 224.037 782.867 224.156C782.895 224.263 782.912 224.413 782.862 224.639L798.481 228.107Z" fill="white" mask="url(#path-28-inside-1_51_59)" />
	<mask fill="white" id="path-30-inside-2_51_59">
		<path d="M717.905 257.526C711.957 255.698 703.792 249.702 701.013 247.24C696.893 243.608 694.047 234.113 692.331 226.398C691.022 220.511 695.655 215.211 701.686 215.211H710.3" />
	</mask>
	<path d="M715.555 265.173C719.778 266.471 724.254 264.1 725.552 259.877C726.85 255.653 724.479 251.177 720.255 249.879L715.555 265.173ZM701.013 247.24L706.318 241.252C706.313 241.248 706.308 241.243 706.303 241.239L701.013 247.24ZM710.3 223.211C714.718 223.211 718.3 219.629 718.3 215.211C718.3 210.793 714.718 207.211 710.3 207.211V223.211ZM720.255 249.879C718.368 249.299 715.591 247.837 712.63 245.913C709.763 244.05 707.356 242.172 706.318 241.252L695.708 253.228C697.449 254.77 700.514 257.121 703.912 259.329C707.215 261.475 711.494 263.925 715.555 265.173L720.255 249.879ZM706.303 241.239C705.797 240.792 704.615 239.104 703.249 235.508C701.999 232.221 700.957 228.333 700.14 224.662L684.522 228.135C685.421 232.178 686.659 236.895 688.292 241.192C689.808 245.181 692.109 250.056 695.723 253.241L706.303 241.239ZM701.686 223.211H710.3V207.211H701.686V223.211ZM700.14 224.662C700.09 224.436 700.107 224.286 700.135 224.18C700.166 224.061 700.232 223.919 700.356 223.773C700.607 223.477 701.055 223.211 701.686 223.211V207.211C691.012 207.211 682.001 216.797 684.522 228.135L700.14 224.662Z" fill="white" mask="url(#path-30-inside-2_51_59)" />
	<rect fill="white" height="27" width="20" x="731" y="263" />
	<mask fill="black" height="48.0833" id="path-33-outside-3_51_59" maskUnits="userSpaceOnUse" width="48.0833" x="240.916" y="451.172">
		<rect fill="white" height="48.0833" width="48.0833" x="240.916" y="451.172" />
		<path d="M264.958 454L-nan -nanL264.958 454C265.323 465.42 274.495 474.592 285.915 474.958L-nan -nanL285.915 474.958L-nan -nanL285.915 474.958C274.495 475.323 265.323 484.495 264.958 495.915L-nan -nanL264.958 495.915L-nan -nanL264.958 495.915C264.592 484.495 255.42 475.323 244 474.958L-nan -nanL244 474.958L-nan -nanL244 474.958C255.42 474.592 264.592 465.42 264.958 454L-nan -nanL264.958 454Z" />
	</mask>
	<path d="M264.958 454L-nan -nanL264.958 454C265.323 465.42 274.495 474.592 285.915 474.958L-nan -nanL285.915 474.958L-nan -nanL285.915 474.958C274.495 475.323 265.323 484.495 264.958 495.915L-nan -nanL264.958 495.915L-nan -nanL264.958 495.915C264.592 484.495 255.42 475.323 244 474.958L-nan -nanL244 474.958L-nan -nanL244 474.958C255.42 474.592 264.592 465.42 264.958 454L-nan -nanL264.958 454Z" fill="white" />
	<path d="M244.064 476.956C256.538 476.558 266.558 466.538 266.956 454.064L262.959 453.936C262.627 464.302 254.302 472.627 243.936 472.959L244.064 476.956ZM266.956 495.851C266.558 483.377 256.538 473.357 244.064 472.959L243.936 476.956C254.302 477.288 262.627 485.614 262.959 495.979L266.956 495.851ZM285.851 472.959C273.377 473.357 263.357 483.377 262.959 495.851L266.956 495.979C267.288 485.614 275.614 477.288 285.979 476.956L285.851 472.959ZM262.959 454.064C263.357 466.538 273.377 476.558 285.851 476.956L285.979 472.959C275.614 472.627 267.288 464.302 266.956 453.936L262.959 454.064Z" fill="white" mask="url(#path-33-outside-3_51_59)" />
	<mask fill="black" height="48.0833" id="path-35-outside-4_51_59" maskUnits="userSpaceOnUse" width="48.0833" x="808.916" y="287.172">
		<rect fill="white" height="48.0833" width="48.0833" x="808.916" y="287.172" />
		<path d="M832.958 290L-nan -nanL832.958 290C833.323 301.42 842.495 310.592 853.915 310.958L-nan -nanL853.915 310.958L-nan -nanL853.915 310.958C842.495 311.323 833.323 320.495 832.958 331.915L-nan -nanL832.958 331.915L-nan -nanL832.958 331.915C832.592 320.495 823.42 311.323 812 310.958L-nan -nanL812 310.958L-nan -nanL812 310.958C823.42 310.592 832.592 301.42 832.958 290L-nan -nanL832.958 290Z" />
	</mask>
	<path d="M832.958 290L-nan -nanL832.958 290C833.323 301.42 842.495 310.592 853.915 310.958L-nan -nanL853.915 310.958L-nan -nanL853.915 310.958C842.495 311.323 833.323 320.495 832.958 331.915L-nan -nanL832.958 331.915L-nan -nanL832.958 331.915C832.592 320.495 823.42 311.323 812 310.958L-nan -nanL812 310.958L-nan -nanL812 310.958C823.42 310.592 832.592 301.42 832.958 290L-nan -nanL832.958 290Z" fill="white" />
	<path d="M812.064 312.956C824.538 312.558 834.558 302.538 834.956 290.064L830.959 289.936C830.627 300.302 822.302 308.627 811.936 308.959L812.064 312.956ZM834.956 331.851C834.558 319.377 824.538 309.357 812.064 308.959L811.936 312.956C822.302 313.288 830.627 321.614 830.959 331.979L834.956 331.851ZM853.851 308.959C841.377 309.357 831.357 319.377 830.959 331.851L834.956 331.979C835.288 321.614 843.614 313.288 853.979 312.956L853.851 308.959ZM830.959 290.064C831.357 302.538 841.377 312.558 853.851 312.956L853.979 308.959C843.614 308.627 835.288 300.302 834.956 289.936L830.959 290.064Z" fill="white" mask="url(#path-35-outside-4_51_59)" />
	<mask fill="black" height="70.7107" id="path-37-outside-5_51_59" maskUnits="userSpaceOnUse" width="70.7107" x="757.95" y="617.172">
		<rect fill="white" height="70.7107" width="70.7107" x="757.95" y="617.172" />
		<path d="M793.305 620L-nan -nanL793.305 620C793.868 637.603 808.007 651.742 825.61 652.305L-nan -nanL825.61 652.305L-nan -nanL825.61 652.305C808.007 652.868 793.868 667.007 793.305 684.61L-nan -nanL793.305 684.61L-nan -nanL793.305 684.61C792.742 667.007 778.603 652.868 761 652.305L-nan -nanL761 652.305L-nan -nanL761 652.305C778.603 651.742 792.742 637.603 793.305 620L-nan -nanL793.305 620Z" />
	</mask>
	<path d="M793.305 620L-nan -nanL793.305 620C793.868 637.603 808.007 651.742 825.61 652.305L-nan -nanL825.61 652.305L-nan -nanL825.61 652.305C808.007 652.868 793.868 667.007 793.305 684.61L-nan -nanL793.305 684.61L-nan -nanL793.305 684.61C792.742 667.007 778.603 652.868 761 652.305L-nan -nanL761 652.305L-nan -nanL761 652.305C778.603 651.742 792.742 637.603 793.305 620L-nan -nanL793.305 620Z" fill="white" />
	<path d="M761.064 654.304C779.722 653.708 794.708 638.722 795.304 620.064L791.306 619.936C790.777 636.485 777.485 649.777 760.936 650.306L761.064 654.304ZM795.304 684.547C794.708 665.889 779.722 650.903 761.064 650.306L760.936 654.304C777.485 654.833 790.777 668.126 791.306 684.674L795.304 684.547ZM825.546 650.306C806.889 650.903 791.903 665.889 791.306 684.547L795.304 684.674C795.833 668.126 809.125 654.833 825.674 654.304L825.546 650.306ZM791.306 620.064C791.903 638.722 806.889 653.708 825.546 654.304L825.674 650.306C809.125 649.777 795.833 636.485 795.304 619.936L791.306 620.064Z" fill="white" mask="url(#path-37-outside-5_51_59)" />
	<defs>
		<filter color-interpolation-filters="sRGB" filterUnits="userSpaceOnUse" height="266.349" id="filter0_d_51_59" width="266.688" x="591.229" y="138.508">
			<feFlood flood-opacity="0" result="BackgroundImageFix" />
			<feColorMatrix in="SourceAlpha" result="hardAlpha" type="matrix" values="0 0 0 0 0 0 0 0 0 0 0 0 0 0 0 0 0 0 127 0" />
			<feOffset dx="-5" dy="5" />
			<feGaussianBlur stdDeviation="15" />
			<feComposite in2="hardAlpha" operator="out" />
			<feColorMatrix type="matrix" values="0 0 0 0 0 0 0 0 0 0 0 0 0 0 0 0 0 0 0.25 0" />
			<feBlend in2="BackgroundImageFix" mode="normal" result="effect1_dropShadow_51_59" />
			<feBlend in="SourceGraphic" in2="effect1_dropShadow_51_59" mode="normal" result="shape" />
		</filter>
		<linearGradient gradientUnits="userSpaceOnUse" id="paint0_linear_51_59" x1="869.101" x2="302.474" y1="282.947" y2="679.295">
			<stop stop-color="#177EFF" />
			<stop offset="1" stop-color="#00C0F6" />
		</linearGradient>
		<linearGradient gradientUnits="userSpaceOnUse" id="paint1_linear_51_59" x1="484.806" x2="508.575" y1="941.472" y2="249.215">
			<stop stop-color="#111B9E" />
			<stop offset="0.3683" stop-color="#332DF4" />
			<stop offset="0.4406" stop-color="#2D39F6" />
			<stop offset="0.5727" stop-color="#1F5AFE" />
			<stop offset="0.5742" stop-color="#1F5BFF" />
			<stop offset="0.7612" stop-color="#1280FF" stop-opacity="0.8778" />
			<stop offset="1" stop-color="#00B7FF" stop-opacity="0.7" />
		</linearGradient>
	</defs>
</svg>