<svg fill="none" height="20" viewBox="0 0 20 20" width="20" xmlns="http://www.w3.org/2000/svg">
	<g clip-path="url(#a)">
		<path d="M.5 13.5a2 2 0 0 1 2-2h4a2 2 0 0 1 2 2v4a2 2 0 0 1-2 2h-4a2 2 0 0 1-2-2v-4Zm11-11a2 2 0 0 1 2-2h4a2 2 0 0 1 2 2v4a2 2 0 0 1-2 2h-4a2 2 0 0 1-2-2v-4Z" fill="#80ACFF" />
		<path d="M.546 5.818a1.864 1.864 0 0 1 0-2.636L3.182.546a1.864 1.864 0 0 1 2.636 0l2.636 2.636a1.864 1.864 0 0 1 0 2.636L5.818 8.454a1.864 1.864 0 0 1-2.636 0L.546 5.818Zm14.411 5.464a.665.665 0 0 1 1.087 0l.516.731c.148.21.403.316.656.272l.883-.152a.665.665 0 0 1 .768.769l-.152.882a.665.665 0 0 0 .272.656l.731.517a.665.665 0 0 1 0 1.087l-.731.516a.665.665 0 0 0-.272.656l.152.883a.665.665 0 0 1-.768.768l-.883-.152a.665.665 0 0 0-.656.272l-.516.731a.665.665 0 0 1-1.088 0l-.516-.731a.665.665 0 0 0-.656-.272l-.883.152a.665.665 0 0 1-.768-.768l.152-.883a.665.665 0 0 0-.272-.656l-.731-.516a.665.665 0 0 1 0-1.088l.731-.516a.665.665 0 0 0 .272-.656l-.152-.883a.665.665 0 0 1 .769-.768l.882.152a.665.665 0 0 0 .656-.272l.517-.731Z" fill="#0B5FFF" />
	</g>
	<defs>
		<clipPath id="a">
			<path d="M0 0h20v20H0z" fill="#fff" />
		</clipPath>
	</defs>
</svg>