<svg fill="none" height="20" viewBox="0 0 20 20" width="20" xmlns="http://www.w3.org/2000/svg">
	<g clip-path="url(#a)">
		<path d="M0 4.706c0-.65.527-1.177 1.176-1.177h11.765c.65 0 1.177.527 1.177 1.177v12.941c0 1.3-1.054 2.353-2.353 2.353H2.353A2.353 2.353 0 0 1 0 17.647V4.706Z" fill="#B3CDFF" />
		<path d="M7.059 3.53h5.882c.65 0 1.177.526 1.177 1.176v12.941c0 1.3-1.054 2.353-2.353 2.353H7.059V3.529Z" fill="#B3CDFF" />
		<path d="M3.53 9.412c0-.65.526-1.177 1.176-1.177h14.117c.65 0 1.177.527 1.177 1.177v7.059c0 .65-.527 1.176-1.177 1.176H4.706c-.65 0-1.177-.527-1.177-1.176V9.41Z" fill="#004AD7" />
		<path d="M14.118 12.941a2.353 2.353 0 1 1-4.706 0 2.353 2.353 0 0 1 4.706 0Zm1.176 0a1.176 1.176 0 1 1 2.353 0 1.176 1.176 0 0 1-2.353 0Zm-9.412 0a1.176 1.176 0 1 1 2.353 0 1.176 1.176 0 0 1-2.353 0Z" fill="#F0F5FF" />
		<path d="M7.059 11.765a1.176 1.176 0 1 1 0 2.353v-2.353Z" fill="#F0F5FF" />
		<path d="M5.882 1.176c-.65 0-1.176.527-1.176 1.177v2.941a.588.588 0 0 1-1.177 0V2.353A2.354 2.354 0 0 1 5.882 0h2.353c1.3 0 2.353 1.053 2.353 2.353v2.941a.588.588 0 1 1-1.176 0V2.353c0-.61-.463-1.11-1.056-1.17l-.12-.007H5.881Z" fill="#0B5FFF" />
		<path d="M7.059 0v1.176H5.882c-.65 0-1.176.527-1.176 1.177v2.941a.588.588 0 0 1-1.177 0V2.353A2.354 2.354 0 0 1 5.882 0H7.06Z" fill="#0B5FFF" />
	</g>
	<defs>
		<clipPath id="a">
			<path d="M0 0h20v20H0z" fill="#fff" />
		</clipPath>
	</defs>
</svg>