<svg fill="none" height="20" viewBox="0 0 20 20" width="20" xmlns="http://www.w3.org/2000/svg">
	<g clip-path="url(#a)">
		<path d="M13.816 18.498c-.115.43-.688.463-.87.05l-1.79-5.651c-.17-.383.173-.782.558-.649l5.555 1.089c.415.143.446.74.048.906l-2.451 1.021a.459.459 0 0 0-.265.308l-.785 2.926Z" fill="#0B5FFF" />
		<path d="M15.107 19.659c-.115.43-.688.462-.87.05l-1.79-5.652c-.17-.383.173-.781.557-.648l5.556 1.088c.414.143.446.74.047.906l-2.45 1.021a.46.46 0 0 0-.266.308l-.784 2.927Z" fill="#B3CDFF" />
		<path d="M12.446 14.057c-.169-.383.174-.781.558-.648l4.293.84-2.431 1.015a.459.459 0 0 0-.265.308l-.768 2.863-1.387-4.378Z" fill="#0B5FFF" />
		<path d="M11.101 0c.609 0 1.102.485 1.102 1.083v2.57a7.783 7.783 0 0 1 2.84 1.54l2.203-1.249a1.112 1.112 0 0 1 1.505.396l1.101 1.875c.305.518.124 1.18-.403 1.48l-2.013 1.14c.224.734.342 1.5.342 2.276h-4.234A3.545 3.545 0 1 0 10 14.655v4.234a7.777 7.777 0 0 1-5.767-2.56l-1.479.838c-.527.299-1.2.122-1.505-.396L.148 14.896a1.073 1.073 0 0 1 .403-1.48l1.78-1.01a7.778 7.778 0 0 1 .232-3.57L.551 7.694a1.073 1.073 0 0 1-.403-1.479L1.249 4.34a1.112 1.112 0 0 1 1.505-.396l2.2 1.248a7.778 7.778 0 0 1 2.843-1.54v-2.57C7.797.486 8.29 0 8.9 0h2.2Z" fill="#80ACFF" />
		<path d="M15.556 11.111A5.556 5.556 0 1 0 10 16.667v-2.012a3.527 3.527 0 0 1-1.97-.597 3.526 3.526 0 0 1-1.305-1.59 3.525 3.525 0 0 1-.202-2.048 3.528 3.528 0 0 1 .97-1.815 3.528 3.528 0 0 1 1.816-.97 3.525 3.525 0 0 1 2.047.201c.652.27 1.2.72 1.591 1.306.392.586.597 1.264.597 1.97h2.012Z" fill="#0B5FFF" />
	</g>
	<defs>
		<clipPath id="a">
			<path d="M0 0h20v20H0z" fill="#fff" />
		</clipPath>
	</defs>
</svg>