<svg fill="none" height="301" viewBox="0 0 492 301" width="492" xmlns="http://www.w3.org/2000/svg">
	<path d="M443 138L443 118.687C443 114.442 439.558 111 435.313 111L430 111" stroke="#80ACFF" stroke-dasharray="3.84 3.84" stroke-width="1.92182" />
	<g filter="url(#filter0_d_1475_80585)">
		<rect fill="white" height="64.3811" rx="3.84365" width="76.873" x="404.531" y="137.528" />
		<rect height="64.3811" rx="3.84365" stroke="#0B5FFF" stroke-opacity="0.4" stroke-width="5.76547" width="76.873" x="404.531" y="137.528" />
	</g>
	<rect fill="white" height="64.3811" rx="3.84365" width="76.873" x="404.531" y="137.528" />
	<rect fill="#0B5FFF" height="23.0619" rx="5.12486" width="23.0619" x="431.436" y="145.215" />
	<mask height="13" id="mask0_1475_80585" maskUnits="userSpaceOnUse" style="mask-type:alpha" width="12" x="437" y="150">
		<path d="M438.615 152.422H446.182C446.182 153.352 447.624 153.352 447.624 152.422C447.624 151.627 446.977 150.98 446.182 150.98H438.615C437.82 150.98 437.174 151.627 437.174 152.422V161.07C437.174 161.865 437.82 162.511 438.615 162.511H442.939C443.869 162.511 443.869 161.07 442.939 161.07H438.615V152.422Z" fill="black" />
		<path d="M440.777 153.863H444.02C444.95 153.863 444.95 155.305 444.02 155.305H440.777C439.847 155.305 439.847 153.863 440.777 153.863Z" fill="black" />
		<path d="M442.939 156.025H440.777C439.847 156.025 439.847 157.467 440.777 157.467H442.939C443.869 157.467 443.869 156.025 442.939 156.025Z" fill="black" />
		<path d="M440.777 158.187C439.847 158.187 439.847 159.629 440.777 159.629H442.939C443.869 159.629 443.869 158.187 442.939 158.187H440.777Z" fill="black" />
		<path clip-rule="evenodd" d="M444.811 155.629L444.809 160.563C444.809 163.178 448.705 163.142 448.705 160.566V155.665L446.757 153.735L444.811 155.629ZM446.106 156.271L446.754 155.629L447.403 156.271L447.405 158.908H446.108L446.106 156.271ZM447.403 160.349H446.106C445.95 161.498 447.547 161.514 447.403 160.349Z" fill="black" fill-rule="evenodd" />
	</mask>
	<g mask="url(#mask0_1475_80585)">
		<rect fill="white" height="11.5309" width="11.5309" x="437.174" y="150.98" />
	</g>
	<rect fill="#80ACFF" height="4.80456" rx="1.92182" width="35.5537" x="425.191" y="175.964" />
	<rect fill="#80ACFF" height="2.88274" opacity="0.5" rx="1.44137" width="61.4984" x="412.218" y="184.612" />
	<rect fill="#80ACFF" height="2.88274" opacity="0.5" rx="1.44137" width="61.4984" x="412.218" y="191.339" />
	<g clip-path="url(#clip0_1475_80585)">
		<rect fill="white" height="179.691" rx="7.6873" width="255.603" x="119.14" y="62.5767" />
		<rect fill="#B3CDFF" height="4.80456" rx="1.92182" width="250.798" x="121.062" y="81.7949" />
		<rect fill="#B3CDFF" height="4.80455" rx="1.92182" transform="rotate(90 141.241 84.6777)" width="157.59" x="141.241" y="84.6777" />
		<rect fill="#B3CDFF" height="4.80455" rx="1.92182" transform="rotate(90 322.853 84.6777)" width="157.59" x="322.853" y="84.6777" />
		<rect fill="#B3CDFF" height="4.80455" rx="1.92182" transform="rotate(90 185.443 84.6777)" width="157.59" x="185.443" y="84.6777" />
		<path d="M332.463 72.1855C332.463 71.1241 333.323 70.2637 334.384 70.2637H350.72C351.781 70.2637 352.642 71.1241 352.642 72.1855V76.9901C352.642 78.0515 351.781 78.9119 350.72 78.9119H334.384C333.323 78.9119 332.463 78.0515 332.463 76.9901V72.1855Z" fill="#B3CDFF" />
		<path d="M207.544 70.7441H213.79V78.4316H207.544C206.748 78.4316 206.103 77.7862 206.103 76.9902V72.1855L206.11 72.0381C206.184 71.3113 206.798 70.7441 207.544 70.7441Z" stroke="#B3CDFF" stroke-width="0.960912" />
		<rect height="7.6873" stroke="#B3CDFF" stroke-width="0.960912" width="7.6873" x="213.79" y="70.7441" />
		<rect height="7.6873" stroke="#B3CDFF" stroke-width="0.960912" width="7.6873" x="221.477" y="70.7441" />
		<path d="M235.411 70.7441C236.207 70.7442 236.852 71.3896 236.852 72.1855V76.9902C236.852 77.7861 236.206 78.4315 235.411 78.4316H229.164V70.7441H235.411Z" stroke="#B3CDFF" stroke-width="0.960912" />
		<path d="M270.964 70.7441H277.21V78.4316H270.964C270.168 78.4316 269.523 77.7862 269.523 76.9902V72.1855L269.531 72.0381C269.604 71.3113 270.218 70.7441 270.964 70.7441Z" stroke="#B3CDFF" stroke-width="0.960912" />
		<path d="M283.456 70.7441C284.252 70.7442 284.898 71.3896 284.898 72.1855V76.9902C284.897 77.7861 284.252 78.4315 283.456 78.4316H277.21V70.7441H283.456Z" stroke="#B3CDFF" stroke-width="0.960912" />
		<path d="M289.222 70.7441H294.026C294.822 70.7442 295.468 71.3896 295.468 72.1855V76.9902C295.468 77.7861 294.822 78.4315 294.026 78.4316H289.222C288.426 78.4316 287.78 77.7862 287.78 76.9902V72.1855L287.788 72.0381C287.862 71.3113 288.475 70.7441 289.222 70.7441Z" stroke="#B3CDFF" stroke-width="0.960912" />
		<path d="M299.792 70.7441H304.596C305.392 70.7442 306.038 71.3896 306.038 72.1855V76.9902C306.038 77.7861 305.392 78.4315 304.596 78.4316H299.792C298.996 78.4316 298.35 77.7862 298.35 76.9902V72.1855L298.358 72.0381C298.432 71.3113 299.045 70.7441 299.792 70.7441Z" stroke="#B3CDFF" stroke-width="0.960912" />
		<path d="M310.362 70.7441H328.618C329.415 70.7441 330.06 71.3895 330.06 72.1855V76.9902C330.06 77.7862 329.414 78.4316 328.618 78.4316H310.362C309.566 78.4316 308.92 77.7862 308.92 76.9902V72.1855L308.928 72.0381C308.997 71.3598 309.536 70.8209 310.214 70.752L310.362 70.7441Z" stroke="#B3CDFF" stroke-width="0.960912" />
		<circle cx="360.329" cy="71.2246" fill="#0B5FFF" r="0.960912" />
		<circle cx="360.329" cy="74.1074" fill="#0B5FFF" r="0.960912" />
		<circle cx="360.329" cy="76.9902" fill="#0B5FFF" r="0.960912" />
		<rect fill="#B3CDFF" height="4.80456" rx="1.92182" width="31.7101" x="129.71" y="72.1855" />
		<g opacity="0.4">
			<rect fill="#F0F5FF" height="69.1857" rx="3.84365" stroke="#0B5FFF" stroke-opacity="0.4" stroke-width="5.76547" width="110.505" x="196.013" y="158.668" />
			<rect fill="white" height="69.1857" rx="3.84365" width="110.505" x="196.013" y="158.668" />
			<rect fill="#B3CDFF" height="3.84365" rx="1.92182" width="94.1694" x="204.181" y="166.355" />
			<rect fill="#B3CDFF" height="3.84365" rx="1.92182" width="37.4756" x="204.181" y="175.964" />
			<rect fill="#5791FF" height="3.84365" rx="1.92182" width="49.0065" x="196.493" y="147.137" />
			<rect fill="#5791FF" height="3.84365" rx="1.92182" width="49.0065" x="196.493" y="122.153" />
			<rect fill="#B3CDFF" height="3.84365" rx="1.92182" width="110.505" x="196.493" y="130.801" />
		</g>
		<g opacity="0.4">
			<rect fill="#F0F5FF" height="23.0619" rx="3.84365" width="23.0619" x="277.691" y="199.026" />
			<path d="M291.384 207.194H284.177C283.779 207.194 283.456 206.871 283.456 206.473C283.456 206.075 283.779 205.752 284.177 205.752H291.384C291.781 205.752 292.104 206.075 292.104 206.473C292.104 206.871 291.781 207.194 291.384 207.194Z" fill="#0B5FFF" />
			<path d="M294.266 210.077H284.177C283.779 210.077 283.456 209.755 283.456 209.356C283.456 208.958 283.779 208.635 284.177 208.635H294.266C294.664 208.635 294.987 208.958 294.987 209.356C294.987 209.754 294.664 210.077 294.266 210.077Z" fill="#0B5FFF" />
			<path d="M284.177 212.959H291.384C291.781 212.959 292.104 212.636 292.104 212.239C292.104 211.841 291.781 211.518 291.384 211.518H284.177C283.779 211.518 283.456 211.84 283.456 212.239C283.456 212.636 283.779 212.959 284.177 212.959Z" fill="#0B5FFF" />
			<path d="M284.177 214.401H294.266C294.664 214.401 294.987 214.724 294.987 215.121C294.987 215.519 294.664 215.842 294.266 215.842H284.177C283.779 215.842 283.456 215.519 283.456 215.121C283.456 214.724 283.779 214.401 284.177 214.401Z" fill="#0B5FFF" />
		</g>
		<circle cx="225.801" cy="103.896" fill="#0B5FFF" r="4.80456" />
		<rect fill="#B3CDFF" height="1.92182" width="7.6873" x="234.45" y="102.935" />
		<circle cx="250.785" cy="103.896" fill="#0B5FFF" r="4.80456" />
		<rect fill="#B3CDFF" height="1.92182" width="7.6873" x="259.433" y="102.935" />
		<circle cx="275.769" cy="103.896" fill="#0B5FFF" r="4.80456" />
		<path d="M125.866 106.778C125.866 105.717 126.727 104.856 127.788 104.856H132.593C133.654 104.856 134.515 105.717 134.515 106.778V111.583C134.515 112.644 133.654 113.505 132.593 113.505H127.788C126.727 113.505 125.866 112.644 125.866 111.583V106.778Z" fill="#0B5FFF" />
		<path d="M125.866 95.2475C125.866 94.1861 126.727 93.3257 127.788 93.3257H132.593C133.654 93.3257 134.515 94.1861 134.515 95.2475V100.052C134.515 101.113 133.654 101.974 132.593 101.974H127.788C126.727 101.974 125.866 101.113 125.866 100.052V95.2475Z" fill="#B3CDFF" />
	</g>
	<rect height="174.886" rx="5.28502" stroke="#B3CDFF" stroke-width="4.80456" width="250.798" x="121.542" y="64.9789" />
	<path d="M250.785 95.2475L250.785 27.0227C250.785 22.7772 254.227 19.3354 258.472 19.3354L324.775 19.3354" stroke="#80ACFF" stroke-dasharray="3.84 3.84" stroke-width="1.92182" />
	<path d="M387.875 1.55859C391.502 1.55863 394.442 4.49859 394.442 8.125V28.624C394.442 32.2504 391.502 35.1904 387.875 35.1904H279.933C276.306 35.1904 273.366 32.2505 273.366 28.624V8.125C273.366 4.49857 276.306 1.55859 279.933 1.55859H387.875Z" fill="white" stroke="#B3CDFF" stroke-width="2.88274" />
	<rect fill="#0B5FFF" height="23.0619" rx="5.12486" width="23.0619" x="278.651" y="6.84375" />
	<mask height="8" id="mask1_1475_80585" maskUnits="userSpaceOnUse" style="mask-type:alpha" width="12" x="284" y="14">
		<path clip-rule="evenodd" d="M286.907 14.771H285.109C284.677 14.771 284.389 15.0596 284.389 15.4926V21.2563C284.389 21.6892 284.677 21.9778 285.109 21.9778H286.909C287.125 21.9778 287.341 21.9057 287.485 21.6892L289.787 18.8074C290.004 18.5187 290.004 18.1579 289.787 17.9437L287.483 15.0596C287.339 14.8432 287.123 14.771 286.907 14.771ZM286.907 15.4926L289.208 18.3744L286.907 21.2563H285.109V15.4926H286.907Z" fill="#6B6C7E" fill-rule="evenodd" />
		<path d="M290.217 21.9756H292.879C293.095 21.9756 293.311 21.9034 293.456 21.687L295.757 18.8074C295.973 18.5932 295.973 18.2324 295.757 17.9437L293.456 15.0619C293.311 14.8454 293.095 14.7733 292.879 14.7733H290.217C289.64 14.7733 289.28 15.4926 289.64 15.9255L291.584 18.3744L289.64 20.8233C289.282 21.254 289.64 21.9756 290.217 21.9756Z" fill="#6B6C7E" />
	</mask>
	<g mask="url(#mask1_1475_80585)">
		<rect fill="white" height="11.5309" width="11.5309" x="284.389" y="12.6089" />
	</g>
	<rect fill="#80ACFF" height="5.12486" rx="0.960912" width="44.8426" x="308.601" y="12.2886" />
	<rect fill="#80ACFF" height="2.88274" opacity="0.5" rx="0.960912" width="76.873" x="308.44" y="22.2183" />
	<path d="M421.507 81.3145C425.133 81.3145 428.073 84.2544 428.073 87.8809V114.146C428.073 117.772 425.133 120.712 421.507 120.712H360.649C357.023 120.712 354.083 117.772 354.083 114.146V87.8809C354.083 84.2544 357.023 81.3145 360.649 81.3145H421.507Z" fill="white" stroke="#80ACFF" stroke-width="2.88274" />
	<rect fill="#B3CDFF" height="12.4919" rx="5.12486" width="12.4919" x="358.407" y="85.6387" />
	<rect fill="#0B5FFF" height="12.4919" rx="5.12486" width="12.4919" x="358.407" y="103.896" />
	<mask height="7" id="mask2_1475_80585" maskUnits="userSpaceOnUse" style="mask-type:alpha" width="7" x="361" y="107">
		<path d="M362.296 107.799H366.395C366.395 108.303 367.175 108.303 367.175 107.799C367.175 107.369 366.825 107.019 366.395 107.019H362.296C361.865 107.019 361.515 107.369 361.515 107.799V112.484C361.515 112.914 361.865 113.264 362.296 113.264H364.638C365.142 113.264 365.142 112.484 364.638 112.484H362.296V107.799Z" fill="black" />
		<path d="M363.467 108.58H365.223C365.727 108.58 365.727 109.361 365.223 109.361H363.467C362.963 109.361 362.963 108.58 363.467 108.58Z" fill="black" />
		<path d="M364.638 109.751H363.467C362.963 109.751 362.963 110.532 363.467 110.532H364.638C365.142 110.532 365.142 109.751 364.638 109.751Z" fill="black" />
		<path d="M363.467 110.922C362.963 110.922 362.963 111.703 363.467 111.703H364.638C365.142 111.703 365.142 110.922 364.638 110.922H363.467Z" fill="black" />
		<path clip-rule="evenodd" d="M365.652 109.536L365.65 112.209C365.65 113.626 367.761 113.606 367.761 112.21V109.556L366.706 108.511L365.652 109.536ZM366.353 109.884L366.704 109.536L367.056 109.884L367.057 111.313H366.354L366.353 109.884ZM367.056 112.093H366.353C366.269 112.716 367.134 112.724 367.056 112.093Z" fill="black" fill-rule="evenodd" />
	</mask>
	<g mask="url(#mask2_1475_80585)">
		<rect fill="white" height="6.24593" width="6.24593" x="361.515" y="107.019" />
	</g>
	<rect fill="#B3CDFF" height="2.88274" rx="0.960912" width="24.9837" x="373.622" y="90.4429" />
	<rect fill="#0B5FFF" height="2.88274" rx="0.960912" width="45.1629" x="373.622" y="108.86" />
	<rect fill="#80ACFF" height="1.92182" rx="0.960912" width="73.0293" x="354.564" y="100.052" />
	<path d="M124 109H55.6873C51.4417 109 48 112.442 48 116.687V138" stroke="#80ACFF" stroke-dasharray="3.84 3.84" stroke-width="1.92182" />
	<g filter="url(#filter1_d_1475_80585)">
		<rect fill="white" height="64.3811" rx="3.84365" width="76.873" x="10.5961" y="137.414" />
		<rect height="64.3811" rx="3.84365" stroke="#0B5FFF" stroke-opacity="0.4" stroke-width="5.76547" width="76.873" x="10.5961" y="137.414" />
	</g>
	<rect fill="white" height="64.3811" rx="3.84365" width="76.873" x="10.5961" y="137.414" />
	<rect fill="#0B5FFF" height="23.0619" rx="5.12486" width="23.0619" x="37.5016" y="145.101" />
	<mask height="13" id="mask3_1475_80585" maskUnits="userSpaceOnUse" style="mask-type:alpha" width="12" x="43" y="150">
		<path clip-rule="evenodd" d="M49.7241 153.005C49.6807 153.048 49.6443 153.096 49.615 153.147H47.3502V152.119C47.3502 151.741 47.0434 151.434 46.665 151.434L43.9242 151.434C43.5457 151.434 43.239 151.741 43.239 152.119V154.86C43.239 155.238 43.5457 155.545 43.9242 155.545H46.665C47.0434 155.545 47.3502 155.238 47.3502 154.86V153.832H48.8946C48.7736 154.038 48.7043 154.278 48.7043 154.534V158.971C48.7043 159.539 48.2441 159.999 47.6765 159.999H47.3502C47.3407 159.999 47.3313 159.999 47.322 160C47.1593 159.027 46.3135 158.286 45.2946 158.286C44.1593 158.286 43.239 159.206 43.239 160.342C43.239 161.477 44.1593 162.397 45.2946 162.397C46.3135 162.397 47.1593 161.656 47.322 160.683C47.3313 160.684 47.3407 160.684 47.3502 160.684H47.6765C48.6226 160.684 49.3895 159.917 49.3895 158.971V154.534C49.3895 154.29 49.5133 154.076 49.7013 153.95C49.7087 153.958 49.7163 153.966 49.7241 153.974L51.6621 155.912C51.9297 156.18 52.3636 156.18 52.6311 155.912L54.5692 153.974C54.8368 153.706 54.8368 153.273 54.5692 153.005L52.6311 151.067C52.3636 150.799 51.9297 150.799 51.6621 151.067L49.7241 153.005ZM44.6094 154.175H45.9798L45.9798 152.804L44.6094 152.804V154.175ZM45.2946 161.027C44.9161 161.027 44.6094 160.72 44.6094 160.342C44.6094 159.963 44.9161 159.656 45.2946 159.656C45.673 159.656 45.9798 159.963 45.9798 160.342C45.9798 160.72 45.673 161.027 45.2946 161.027ZM51.1776 153.489L52.1466 154.459L53.1157 153.489L52.1466 152.52L51.1776 153.489Z" fill="#6B6C7E" fill-rule="evenodd" />
	</mask>
	<g mask="url(#mask3_1475_80585)">
		<rect fill="white" height="11.5309" width="11.5309" x="43.239" y="150.866" />
	</g>
	<rect fill="#80ACFF" height="4.80456" rx="1.92182" width="35.5537" x="31.2557" y="175.85" />
	<rect fill="#80ACFF" height="2.88274" opacity="0.5" rx="1.44137" width="61.4984" x="18.2834" y="184.499" />
	<rect fill="#80ACFF" height="2.88274" opacity="0.5" rx="1.44137" width="61.4984" x="18.2834" y="191.225" />
	<path d="M249.824 230.736L249.824 275.899C249.824 280.145 246.382 283.586 242.137 283.586L175.834 283.586" stroke="#80ACFF" stroke-dasharray="3.84 3.84" stroke-width="1.92182" />
	<path d="M218.755 265.81C222.381 265.81 225.321 268.75 225.321 272.376V292.875C225.321 296.501 222.381 299.441 218.755 299.441H110.812C107.186 299.441 104.246 296.501 104.246 292.875V272.376C104.246 268.75 107.186 265.81 110.812 265.81H218.755Z" fill="white" stroke="#B3CDFF" stroke-width="2.88274" />
	<rect fill="#F0F5FF" height="23.0619" rx="5.12486" width="23.0619" x="109.531" y="271.094" />
	<mask height="13" id="mask4_1475_80585" maskUnits="userSpaceOnUse" style="mask-type:alpha" width="12" x="115" y="276">
		<path clip-rule="evenodd" d="M120.333 277.082L124.97 281.746C125.537 282.318 125.537 283.244 124.97 283.819L120.848 287.962C120.278 288.534 119.356 288.534 118.786 287.962L115.696 284.854C115.126 284.282 115.126 283.353 115.696 282.781L119.817 278.635L119.302 278.118C118.617 277.428 119.659 276.404 120.333 277.082ZM123.789 282.63L120.848 279.673L117.907 282.63H123.789Z" fill="#6B6C7E" fill-rule="evenodd" />
		<path d="M123.885 286.933C123.885 288.88 126.799 288.868 126.799 286.933C126.799 286.124 125.343 284.736 125.343 284.736C125.343 284.736 123.885 286.124 123.885 286.933Z" fill="#6B6C7E" />
	</mask>
	<g mask="url(#mask4_1475_80585)">
		<rect fill="#0B5FFF" height="11.5309" width="11.5309" x="115.268" y="276.86" />
	</g>
	<rect fill="#80ACFF" height="5.12486" rx="0.960912" width="44.8426" x="139.319" y="276.219" />
	<rect fill="#80ACFF" height="2.88274" opacity="0.5" rx="0.960912" width="76.873" x="139.319" y="286.148" />
	<path d="M219.716 265.81C223.342 265.81 226.282 268.75 226.282 272.376V292.875C226.282 296.501 223.342 299.441 219.716 299.441H111.773C108.147 299.441 105.207 296.501 105.207 292.875V272.376C105.207 268.75 108.147 265.81 111.773 265.81H219.716Z" fill="white" stroke="#B3CDFF" stroke-width="2.88274" />
	<rect fill="#0B5FFF" height="23.0619" rx="5.12486" width="23.0619" x="110.492" y="271.094" />
	<mask height="13" id="mask5_1475_80585" maskUnits="userSpaceOnUse" style="mask-type:alpha" width="12" x="116" y="276">
		<path clip-rule="evenodd" d="M121.294 277.082L125.931 281.746C126.498 282.318 126.498 283.244 125.931 283.819L121.809 287.962C121.239 288.534 120.317 288.534 119.747 287.962L116.656 284.854C116.087 284.282 116.087 283.353 116.656 282.781L120.778 278.635L120.263 278.118C119.578 277.428 120.62 276.404 121.294 277.082ZM124.75 282.63L121.809 279.673L118.868 282.63H124.75Z" fill="#6B6C7E" fill-rule="evenodd" />
		<path d="M124.846 286.933C124.846 288.88 127.76 288.868 127.76 286.933C127.76 286.124 126.304 284.736 126.304 284.736C126.304 284.736 124.846 286.124 124.846 286.933Z" fill="#6B6C7E" />
	</mask>
	<g mask="url(#mask5_1475_80585)">
		<rect fill="white" height="11.5309" width="11.5309" x="116.229" y="276.86" />
	</g>
	<rect fill="#80ACFF" height="5.12486" rx="0.960912" width="44.8426" x="140.28" y="276.219" />
	<rect fill="#80ACFF" height="2.88274" opacity="0.5" rx="0.960912" width="76.873" x="140.28" y="286.148" />
	<defs>
		<filter color-interpolation-filters="sRGB" filterUnits="userSpaceOnUse" height="85.5211" id="filter0_d_1475_80585" width="98.013" x="393.961" y="130.801">
			<feFlood flood-opacity="0" result="BackgroundImageFix" />
			<feColorMatrix in="SourceAlpha" result="hardAlpha" type="matrix" values="0 0 0 0 0 0 0 0 0 0 0 0 0 0 0 0 0 0 127 0" />
			<feOffset dy="3.84365" />
			<feGaussianBlur stdDeviation="3.84365" />
			<feColorMatrix type="matrix" values="0 0 0 0 0.152941 0 0 0 0 0.156863 0 0 0 0 0.2 0 0 0 0.12 0" />
			<feBlend in2="BackgroundImageFix" mode="normal" result="effect1_dropShadow_1475_80585" />
			<feBlend in="SourceGraphic" in2="effect1_dropShadow_1475_80585" mode="normal" result="shape" />
		</filter>
		<filter color-interpolation-filters="sRGB" filterUnits="userSpaceOnUse" height="85.5211" id="filter1_d_1475_80585" width="98.013" x="0.0260825" y="130.687">
			<feFlood flood-opacity="0" result="BackgroundImageFix" />
			<feColorMatrix in="SourceAlpha" result="hardAlpha" type="matrix" values="0 0 0 0 0 0 0 0 0 0 0 0 0 0 0 0 0 0 127 0" />
			<feOffset dy="3.84365" />
			<feGaussianBlur stdDeviation="3.84365" />
			<feColorMatrix type="matrix" values="0 0 0 0 0.152941 0 0 0 0 0.156863 0 0 0 0 0.2 0 0 0 0.12 0" />
			<feBlend in2="BackgroundImageFix" mode="normal" result="effect1_dropShadow_1475_80585" />
			<feBlend in="SourceGraphic" in2="effect1_dropShadow_1475_80585" mode="normal" result="shape" />
		</filter>
		<clipPath id="clip0_1475_80585">
			<rect fill="white" height="179.691" rx="7.6873" width="255.603" x="119.14" y="62.5767" />
		</clipPath>
	</defs>
</svg>