<svg fill="none" height="120" viewBox="0 0 111 120" width="111" xmlns="http://www.w3.org/2000/svg">
	<rect fill="#F1F2F5" height="108.04" rx="7" stroke="#A7A9BC" stroke-dasharray="4 4" stroke-width="2" width="108.04" x="1.47974" y="1" />
	<rect fill="white" height="21.034" rx="4" width="68.0513" x="29.4375" y="44.8848" />
	<g clip-path="url(#clip0_485_18997)">
		<mask height="9" id="mask0_485_18997" maskUnits="userSpaceOnUse" style="mask-type:alpha" width="9" x="36" y="51">
			<path clip-rule="evenodd" d="M43.3571 52.6179H37.7893V58.1857H43.3571V52.6179ZM37.7893 51.6899C37.3217 51.6899 36.8613 52.1576 36.8613 52.6324C36.8613 54.4868 36.8613 58.1857 36.8613 58.1857C36.8613 58.6525 37.3281 59.1137 37.7893 59.1137H43.3571C43.8211 59.1137 44.2851 58.6516 44.2851 58.1857V52.6179C44.2851 52.1539 43.8247 51.6899 43.3571 51.6899H37.7893Z" fill="#6B6C7E" fill-rule="evenodd" />
		</mask>
		<g mask="url(#mask0_485_18997)">
			<rect fill="#6B6C7E" height="7.42377" width="7.42377" x="36.8613" y="51.6899" />
		</g>
	</g>
	<rect fill="#6B6C7E" height="3.71189" width="33.407" x="54.1831" y="53.5459" />
	<rect fill="white" height="21.034" rx="4" width="68.0513" x="17.8547" y="15.9268" />
	<mask height="9" id="mask1_485_18997" maskUnits="userSpaceOnUse" style="mask-type:alpha" width="8" x="25" y="22">
		<path d="M25.7423 22.7319H28.0622C28.3182 22.7319 28.5262 22.9398 28.5262 23.1959V25.5158C28.5262 25.772 28.3182 25.9798 28.0622 25.9798H25.7423C25.4863 25.9798 25.2783 25.772 25.2783 25.5158V23.1959C25.2783 22.9398 25.4863 22.7319 25.7423 22.7319Z" fill="#6B6C7E" />
		<path d="M25.7423 26.9078H28.0622C28.3182 26.9078 28.5262 27.1157 28.5262 27.3718V29.6917C28.5262 29.9478 28.3182 30.1557 28.0622 30.1557H25.7423C25.4863 30.1557 25.2783 29.9478 25.2783 29.6917V27.3718C25.2783 27.1157 25.4863 26.9078 25.7423 26.9078Z" fill="#6B6C7E" />
		<path d="M32.2381 22.7319H29.9182C29.6622 22.7319 29.4542 22.9398 29.4542 23.1959V25.5158C29.4542 25.772 29.6622 25.9798 29.9182 25.9798H32.2381C32.4941 25.9798 32.7021 25.772 32.7021 25.5158V23.1959C32.7021 22.9398 32.4941 22.7319 32.2381 22.7319Z" fill="#6B6C7E" />
		<path d="M29.9182 26.9078H32.2381C32.4941 26.9078 32.7021 27.1157 32.7021 27.3718V29.6917C32.7021 29.9478 32.4941 30.1557 32.2381 30.1557H29.9182C29.6622 30.1557 29.4542 29.9478 29.4542 29.6917V27.3718C29.4542 27.1157 29.6622 26.9078 29.9182 26.9078Z" fill="#6B6C7E" />
	</mask>
	<g mask="url(#mask1_485_18997)">
		<rect fill="#6B6C7E" height="7.42377" width="7.42377" x="25.2783" y="22.7319" />
	</g>
	<rect fill="#6B6C7E" height="3.71189" width="33.407" x="42.6006" y="24.5879" />
	<rect fill="white" height="21.034" rx="4" width="68.0513" x="17.8547" y="73.8428" />
	<mask height="9" id="mask2_485_18997" maskUnits="userSpaceOnUse" style="mask-type:alpha" width="8" x="25" y="80">
		<path clip-rule="evenodd" d="M25.9584 80.6479H32.022C32.3962 80.6479 32.7021 80.9539 32.7007 81.328V83.2245C32.7007 83.5986 32.3949 83.9045 32.0206 83.9045H25.9584C25.5842 83.9045 25.2783 83.5986 25.2783 83.2245V81.328C25.2783 80.9539 25.5842 80.6479 25.9584 80.6479Z" fill="#6B6C7E" fill-rule="evenodd" />
		<path clip-rule="evenodd" d="M32.022 84.8137H25.9584C25.5842 84.8137 25.2783 85.1196 25.2783 85.4952V87.3917C25.2783 87.7658 25.5842 88.0717 25.9584 88.0717H32.0206C32.3949 88.0717 32.7007 87.7658 32.7007 87.3917V85.4952C32.7021 85.1196 32.3962 84.8137 32.022 84.8137Z" fill="#6B6C7E" fill-rule="evenodd" />
	</mask>
	<g mask="url(#mask2_485_18997)">
		<rect fill="#6B6C7E" height="7.42377" width="7.42377" x="25.2783" y="80.6602" />
	</g>
	<rect fill="#6B6C7E" height="3.71189" width="33.407" x="42.6006" y="82.5039" />
	<mask height="18" id="mask3_485_18997" maskUnits="userSpaceOnUse" style="mask-type:alpha" width="15" x="88" y="103">
		<path d="M91.9027 119.598C91.3932 120.32 90.2609 120.015 90.1825 119.134L88.8666 104.358C88.7937 103.539 89.7229 103.021 90.38 103.513L102.033 112.242C102.741 112.772 102.404 113.897 101.522 113.951L96.091 114.277C95.8033 114.294 95.539 114.441 95.3728 114.677L91.9027 119.598Z" fill="#6B6C7E" />
	</mask>
	<g mask="url(#mask3_485_18997)">
		<rect fill="#6B6C7E" height="16.6798" width="16.6798" x="87.2988" y="103.32" />
	</g>
	<defs>
		<clipPath id="clip0_485_18997">
			<rect fill="white" height="7.42377" transform="translate(36.8613 51.6899)" width="7.42377" />
		</clipPath>
	</defs>
</svg>