<svg fill="none" height="18" viewBox="0 0 16 18" width="16" xmlns="http://www.w3.org/2000/svg">
	<mask height="15" id="mask0_2076_9872" maskUnits="userSpaceOnUse" style="mask-type:alpha" width="16" x="0" y="2">
		<mask fill="white" id="path-1-inside-1_2076_9872">
			<path d="M14.947 9.05998L13.707 7.64665L13.8803 5.77332C13.9137 5.43998 13.687 5.13332 13.367 5.05998L11.527 4.63998L10.567 3.01998C10.3937 2.73332 10.0403 2.61332 9.73367 2.74665L8.00034 3.49998L6.27367 2.75998C5.96701 2.62665 5.60701 2.74665 5.44034 3.03332L4.47367 4.64665L2.64034 5.05998C2.31367 5.13332 2.08701 5.43332 2.12034 5.77332L2.29367 7.63998L1.05367 9.05998C0.833672 9.31332 0.833672 9.68665 1.05367 9.93998L2.29367 11.3533L2.12034 13.2333C2.08701 13.5667 2.31367 13.8733 2.63367 13.9467L4.47367 14.3666L5.43367 15.98C5.60701 16.2667 5.96034 16.3867 6.27367 16.2533L8.00034 15.5L9.72701 16.24C10.0337 16.3733 10.3937 16.2533 10.5603 15.9667L11.5203 14.3467L13.3603 13.9267C13.687 13.8533 13.907 13.5466 13.8737 13.2133L13.7003 11.34L14.9403 9.92665C15.167 9.68665 15.167 9.31332 14.947 9.05998Z" />
		</mask>
		<path d="M13.707 7.64665L11.7155 7.46239L11.6363 8.319L12.2036 8.96567L13.707 7.64665ZM13.8803 5.77332L11.8903 5.57431L11.8895 5.58168L11.8888 5.58905L13.8803 5.77332ZM13.367 5.05998L13.8138 3.11052L13.8121 3.11014L13.367 5.05998ZM11.527 4.63998L9.80642 5.65959L10.2444 6.39865L11.0819 6.58983L11.527 4.63998ZM10.567 3.01998L12.2876 2.00038L12.2831 1.99274L12.2785 1.98514L10.567 3.01998ZM9.73367 2.74665L10.5309 4.5809L10.5311 4.58079L9.73367 2.74665ZM8.00034 3.49998L7.2125 5.33827L8.00589 5.6783L8.79753 5.33424L8.00034 3.49998ZM6.27367 2.75998L5.47621 4.59415L5.48583 4.59827L6.27367 2.75998ZM5.44034 3.03332L7.15595 4.06127L7.16273 4.04996L7.16935 4.03856L5.44034 3.03332ZM4.47367 4.64665L4.91354 6.59768L5.74907 6.40931L6.18928 5.6746L4.47367 4.64665ZM2.64034 5.05998L3.07842 7.01142L3.08021 7.01101L2.64034 5.05998ZM2.12034 5.77332L4.1118 5.5884L4.1108 5.57817L2.12034 5.77332ZM2.29367 7.63998L3.80014 8.95549L4.36443 8.30929L4.2851 7.45506L2.29367 7.63998ZM1.05367 9.05998L-0.452801 7.74447L-0.456394 7.74861L1.05367 9.05998ZM1.05367 9.93998L-0.456414 11.2514L-0.449723 11.259L1.05367 9.93998ZM2.29367 11.3533L4.28523 11.5369L4.36417 10.6807L3.79707 10.0343L2.29367 11.3533ZM2.12034 13.2333L4.11041 13.4323L4.11118 13.4246L4.11189 13.4169L2.12034 13.2333ZM2.63367 13.9467L2.18692 15.8961L2.1886 15.8965L2.63367 13.9467ZM4.47367 14.3666L6.19241 13.3439L5.7542 12.6075L4.91875 12.4168L4.47367 14.3666ZM5.43367 15.98L3.71489 17.0027L3.72221 17.0148L5.43367 15.98ZM6.27367 16.2533L7.05678 18.0936L7.06513 18.0901L7.07345 18.0864L6.27367 16.2533ZM8.00034 15.5L8.78818 13.6617L7.99325 13.321L7.20056 13.6669L8.00034 15.5ZM9.72701 16.24L10.5245 14.4058L10.5148 14.4017L9.72701 16.24ZM10.5603 15.9667L8.83976 14.947L8.83551 14.9542L8.83132 14.9614L10.5603 15.9667ZM11.5203 14.3467L11.0753 12.3968L10.2377 12.588L9.79976 13.327L11.5203 14.3467ZM13.3603 13.9267L12.9223 11.9752L12.9153 11.9768L13.3603 13.9267ZM13.8737 13.2133L11.8822 13.3976L11.8829 13.405L11.8836 13.4123L13.8737 13.2133ZM13.7003 11.34L12.1969 10.021L11.6296 10.6676L11.7088 11.5243L13.7003 11.34ZM14.9403 9.92665L13.4863 8.5534L13.4611 8.58007L13.4369 8.60764L14.9403 9.92665ZM16.4504 7.74097L15.2104 6.32763L12.2036 8.96567L13.4436 10.379L16.4504 7.74097ZM15.6985 7.83092L15.8718 5.95758L11.8888 5.58905L11.7155 7.46239L15.6985 7.83092ZM15.8704 5.97232C16.0057 4.61971 15.0996 3.4052 13.8138 3.11052L12.9203 7.00945C12.2744 6.86143 11.8217 6.26026 11.8903 5.57431L15.8704 5.97232ZM13.8121 3.11014L11.9721 2.69014L11.0819 6.58983L12.9219 7.00983L13.8121 3.11014ZM13.2476 3.62038L12.2876 2.00038L8.84642 4.03959L9.80642 5.65959L13.2476 3.62038ZM12.2785 1.98514C11.6084 0.876977 10.1989 0.363502 8.93622 0.91251L10.5311 4.58079C9.88174 4.86313 9.17893 4.58966 8.85554 4.05482L12.2785 1.98514ZM8.93648 0.912398L7.20314 1.66573L8.79753 5.33424L10.5309 4.5809L8.93648 0.912398ZM8.78818 1.66169L7.06151 0.921694L5.48583 4.59827L7.2125 5.33827L8.78818 1.66169ZM7.07112 0.925843C5.82947 0.385994 4.3855 0.868491 3.71132 2.02808L7.16935 4.03856C6.82851 4.62481 6.10454 4.86731 5.47622 4.59412L7.07112 0.925843ZM3.72473 2.00537L2.75806 3.6187L6.18928 5.6746L7.15595 4.06127L3.72473 2.00537ZM4.0338 2.69562L2.20047 3.10895L3.08021 7.01101L4.91354 6.59768L4.0338 2.69562ZM2.20226 3.10855C0.921596 3.39605 -0.00503743 4.59229 0.129882 5.96846L4.1108 5.57817C4.17905 6.27435 3.70575 6.87059 3.07842 7.01142L2.20226 3.10855ZM0.128906 5.95824L0.302239 7.8249L4.2851 7.45506L4.11177 5.5884L0.128906 5.95824ZM0.787205 6.32448L-0.452795 7.74448L2.56014 10.3755L3.80014 8.95549L0.787205 6.32448ZM-0.456394 7.74861C-1.32964 8.75417 -1.32964 10.2458 -0.456394 11.2514L2.56374 8.62861C2.99698 9.1275 2.99698 9.87247 2.56374 10.3714L-0.456394 7.74861ZM-0.449723 11.259L0.790277 12.6723L3.79707 10.0343L2.55707 8.62097L-0.449723 11.259ZM0.302119 11.1697L0.128785 13.0497L4.11189 13.4169L4.28523 11.5369L0.302119 11.1697ZM0.130264 13.0343C-0.00499791 14.3869 0.901035 15.6014 2.18692 15.8961L3.08042 11.9972C3.72631 12.1452 4.17901 12.7464 4.11041 13.4323L0.130264 13.0343ZM2.1886 15.8965L4.0286 16.3165L4.91875 12.4168L3.07875 11.9968L2.1886 15.8965ZM2.75494 15.3894L3.71494 17.0027L7.15241 14.9573L6.19241 13.3439L2.75494 15.3894ZM3.72221 17.0148C4.39955 18.135 5.80769 18.6252 7.05678 18.0936L5.49056 14.413C6.11299 14.1481 6.81446 14.3983 7.14514 14.9451L3.72221 17.0148ZM7.07345 18.0864L8.80012 17.3331L7.20056 13.6669L5.47389 14.4202L7.07345 18.0864ZM7.2125 17.3383L8.93917 18.0783L10.5148 14.4017L8.78818 13.6617L7.2125 17.3383ZM8.92955 18.0741C10.1712 18.614 11.6152 18.1315 12.2894 16.9719L8.83132 14.9614C9.17217 14.3752 9.89614 14.1327 10.5245 14.4058L8.92955 18.0741ZM12.2809 16.9863L13.2409 15.3663L9.79976 13.327L8.83976 14.947L12.2809 16.9863ZM11.9654 16.2965L13.8054 15.8765L12.9153 11.9768L11.0753 12.3968L11.9654 16.2965ZM13.7984 15.8781C15.1179 15.5819 15.997 14.3473 15.8637 13.0143L11.8836 13.4123C11.817 12.746 12.2561 12.1248 12.9223 11.9752L13.7984 15.8781ZM15.8652 13.0291L15.6918 11.1557L11.7088 11.5243L11.8822 13.3976L15.8652 13.0291ZM15.2037 12.659L16.4437 11.2457L13.4369 8.60764L12.1969 10.021L15.2037 12.659ZM16.3944 11.2999C17.3649 10.2723 17.3143 8.73575 16.4571 7.74861L13.4369 10.3714C13.0197 9.89088 12.9691 9.10104 13.4863 8.5534L16.3944 11.2999Z" fill="#377CFF" mask="url(#path-1-inside-1_2076_9872)" />
	</mask>
	<g mask="url(#mask0_2076_9872)">
		<rect fill="#377CFF" height="16" width="16" y="1.5" />
	</g>
</svg>