<svg width="16" height="16" viewBox="0 0 16 16" fill="none" xmlns="http://www.w3.org/2000/svg">
    <g id="lexicon-icon">
        <mask id="mask0_1540_9083" style="mask-type:alpha" maskUnits="userSpaceOnUse" x="1" y="1" width="14" height="14">
            <g id="shopping-cart">
                <path d="M2.91334 1.60035L5.65705 7.99706H12.2851L13.057 4.11591C13.3851 2.76907 15.3101 3.22531 14.9569 4.74714L13.9632 9.28765C13.8382 9.69701 13.457 9.997 13.007 9.997H4.99769C4.57894 9.997 4.21957 9.74076 4.06957 9.37514L1.07274 2.39095C0.635242 1.24411 2.28835 0.36288 2.91334 1.60035Z" fill="black"/>
                <path d="M4.49769 15C5.32784 15 6.0008 14.3284 6.0008 13.5C6.0008 12.6716 5.32784 12.0001 4.49769 12.0001C3.66755 12.0001 2.99459 12.6716 2.99459 13.5C2.99459 14.3284 3.66755 15 4.49769 15Z" fill="black"/>
                <path d="M14.0101 13.5C14.0101 14.3284 13.3371 15 12.507 15C11.6768 15 11.0039 14.3284 11.0039 13.5C11.0039 12.6716 11.6768 12.0001 12.507 12.0001C13.3371 12.0001 14.0101 12.6716 14.0101 13.5Z" fill="black"/>
            </g>
        </mask>
        <g mask="url(#mask0_1540_9083)">
            <rect id="Color Fill" width="16" height="16" fill="#3F404B"/>
        </g>
    </g>
</svg>
