<svg fill="none" height="16" viewBox="0 0 16 16" width="16" xmlns="http://www.w3.org/2000/svg">
	<g id="lexicon-icon">
		<mask height="16" id="mask0_1504_9050" maskUnits="userSpaceOnUse" style="mask-type:alpha" width="16" x="0" y="0">
			<path clip-rule="evenodd" d="M11 2H2V14H7C8.29062 14 8.29062 16 7 16H2C0.896875 16 0 15.1031 0 14V2C0 0.896875 0.896875 0 2 0H11C12.1031 0 13 0.896875 13 2V6C13 7.29063 11 7.29063 11 6V2ZM9 4H4C2.70937 4 2.70937 6 4 6H9C10.2906 6 10.2906 4 9 4ZM4 7C2.70937 7 2.70937 9 4 9H7C8.29062 9 8.29062 7 7 7H4ZM5 10H4C2.70937 10 2.70937 12 4 12H5C6.29063 12 6.29063 10 5 10ZM14 10V11.4156L11.8281 13.5875L10.4125 12.1719L12.5844 10H14ZM11.4656 8.29375C11.6531 8.10625 11.9062 8 12.1719 8H15C15.5531 8 16 8.44687 16 9V11.8281C16 12.0938 15.8938 12.3469 15.7063 12.5344L12.5344 15.7063C12.1438 16.0969 11.5094 16.0969 11.1187 15.7063L8.29062 12.8781C7.9 12.4875 7.9 11.8531 8.29062 11.4625L11.4656 8.29375Z" fill="black" fill-rule="evenodd" id="order-form-tag" />
		</mask>
		<g mask="url(#mask0_1504_9050)">
			<rect fill="#3F404B" height="16" id="Color Fill" width="16" />
		</g>
	</g>
</svg>