<svg fill="none" height="48" viewBox="0 0 48 48" width="48" xmlns="http://www.w3.org/2000/svg">
	<path d="M28.57 17.42C28.57 17.9723 29.0177 18.42 29.57 18.42C30.1223 18.42 30.57 17.9723 30.57 17.42H28.57ZM45.51 17.42C45.51 21.4725 42.1779 24.78 38.04 24.78V26.78C43.2578 26.78 47.51 22.6017 47.51 17.42H45.51ZM30.57 17.42C30.57 13.3675 33.9021 10.06 38.04 10.06V8.06C32.8222 8.06 28.57 12.2383 28.57 17.42H30.57ZM38.04 10.06C42.1779 10.06 45.51 13.3675 45.51 17.42H47.51C47.51 12.2383 43.2578 8.06 38.04 8.06V10.06ZM38.04 24.78C36.1227 24.78 34.3777 24.0696 33.0562 22.9025L31.7323 24.4016C33.4075 25.8811 35.6196 26.78 38.04 26.78V24.78Z" fill="#0011A8" />
	<path d="M42.52 24.67C42.52 24.67 46.86 25.3 47 31.43V31.92" stroke="#0011A8" stroke-linecap="round" stroke-width="2" />
	<path d="M17.44 17.39C17.44 17.9423 17.8877 18.39 18.44 18.39C18.9923 18.39 19.44 17.9423 19.44 17.39H17.44ZM9.97 24.86C5.84443 24.86 2.5 21.5155 2.5 17.39H0.5C0.5 22.6201 4.73986 26.86 9.97 26.86V24.86ZM2.5 17.39C2.5 13.2644 5.84443 9.91998 9.97 9.91998V7.91998C4.73986 7.91998 0.5 12.1598 0.5 17.39H2.5ZM9.97 9.91998C14.0956 9.91998 17.44 13.2644 17.44 17.39H19.44C19.44 12.1598 15.2001 7.91998 9.97 7.91998V9.91998ZM14.8468 23.0486C13.5376 24.178 11.8347 24.86 9.97 24.86V26.86C12.3323 26.86 14.4947 25.9938 16.1532 24.5629L14.8468 23.0486Z" fill="#0011A8" />
	<path d="M5.61 24.74C5.61 24.74 1.34 25.78 1 31.6C1 31.76 1 32.08 1 32.08" stroke="#0011A8" stroke-linecap="round" stroke-width="2" />
	<path d="M24 32.72C28.6779 32.72 32.47 28.9279 32.47 24.25C32.47 19.5722 28.6779 15.78 24 15.78C19.3222 15.78 15.53 19.5722 15.53 24.25C15.53 28.9279 19.3222 32.72 24 32.72Z" stroke="#0011A8" stroke-width="2" />
	<path d="M19.64 31.6C19.64 31.6 15.37 32.64 15.03 38.46C15.03 38.62 15.03 38.94 15.03 38.94" stroke="#0011A8" stroke-linecap="round" stroke-width="2" />
	<path d="M28.48 31.6C28.48 31.6 32.82 32.24 32.96 38.45V38.95" stroke="#0011A8" stroke-linecap="round" stroke-width="2" />
	<path d="M16.03 21.51H22.08C22.59 21.51 23 21.92 23 22.43V24.5C23 25.5 22.25 26.99 19.76 26.99C17.27 26.99 16.52 25.99 16.52 24.5V21.51" stroke="#2EB7FF" stroke-linecap="round" stroke-miterlimit="10" stroke-width="2" />
	<path d="M31.97 21.51H25.92C25.41 21.51 25 21.92 25 22.43V24.5C25 25.5 25.75 26.99 28.24 26.99C30.73 26.99 31.48 25.99 31.48 24.5V21.51" stroke="#2EB7FF" stroke-linecap="round" stroke-miterlimit="10" stroke-width="2" />
	<path d="M23.03 23.07C23.03 23.07 23.54 23.01 24.03 23.01C24.52 23.01 25 23.07 25 23.07" stroke="#2EB7FF" stroke-linecap="round" stroke-miterlimit="10" stroke-width="2" />
</svg>