<svg fill="none" height="48" viewBox="0 0 48 48" width="48" xmlns="http://www.w3.org/2000/svg">
	<path d="M13.3091 23.0183V19.0932C13.3091 17.296 14.7755 15.8296 16.5727 15.8296C18.3699 15.8296 19.8363 17.296 19.8363 19.0932V23.0183" stroke="#2EB7FF" stroke-miterlimit="10" stroke-width="2" />
	<path d="M21.1592 21.0557H12.0079C11.2912 21.0557 10.6959 21.6401 10.6959 22.3678V28.906C10.6959 29.6226 11.2802 30.218 12.0079 30.218H21.1592C21.8759 30.218 22.4712 29.6337 22.4712 28.906V22.3678C22.4712 21.6511 21.8869 21.0557 21.1592 21.0557ZM17.2341 26.9434C17.2341 27.3073 16.9364 27.5939 16.5836 27.5939C16.2307 27.5939 15.933 27.2962 15.933 26.9434V24.3303C15.933 23.9665 16.2307 23.6798 16.5836 23.6798C16.9364 23.6798 17.2341 23.9775 17.2341 24.3303V26.9434Z" fill="#2EB7FF" />
	<path clip-rule="evenodd" d="M5.10254 4.98027C5.10254 4.4852 5.50388 4.08386 5.99895 4.08386H27.1682C27.6633 4.08386 28.0646 4.4852 28.0646 4.98027V10.7687C28.0646 10.913 28.0951 11.0501 28.1501 11.174C28.7414 10.6827 29.3825 10.2492 30.0646 9.88221V4.98027C30.0646 3.38063 28.7678 2.08386 27.1682 2.08386H5.99895C4.39931 2.08386 3.10254 3.38063 3.10254 4.98027V43.0298C3.10254 44.6294 4.3993 45.9262 5.99895 45.9262H27.1682C28.7678 45.9262 30.0646 44.6294 30.0646 43.0298V30.2664C29.3692 29.8922 28.7165 29.449 28.1157 28.9459C28.0825 29.0454 28.0646 29.1518 28.0646 29.2624V43.0298C28.0646 43.5248 27.6633 43.9262 27.1682 43.9262H5.99895C5.50388 43.9262 5.10254 43.5248 5.10254 43.0298V4.98027ZM29.0228 28.2632C29.3407 28.5165 29.6737 28.7516 30.0202 28.967C29.8943 28.5589 29.5141 28.2624 29.0646 28.2624C29.0506 28.2624 29.0366 28.2627 29.0228 28.2632ZM29.1806 11.762C29.4306 11.5706 29.6894 11.3902 29.9564 11.2216C29.8078 11.5135 29.5201 11.7228 29.1806 11.762Z" fill="#0011A8" fill-rule="evenodd" />
	<path clip-rule="evenodd" d="M46 20.0744C46 25.8532 41.3154 30.5378 35.5367 30.5378C29.7579 30.5378 25.0733 25.8532 25.0733 20.0744C25.0733 14.2957 29.7579 9.61108 35.5367 9.61108C41.3154 9.61108 46 14.2957 46 20.0744ZM35.4487 13.5362H35.8897C36.2489 13.5362 36.5402 13.8274 36.5402 14.1867V15.0194C36.825 15.0745 37.1085 15.1571 37.3892 15.2672C37.8523 15.4436 38.2602 15.6972 38.6241 16.017C38.7674 16.1382 38.7784 16.3477 38.6571 16.4911L37.9295 17.3952C37.8192 17.5385 37.6097 17.5605 37.4554 17.4613C37.2238 17.2959 36.9813 17.1746 36.7497 17.0754C36.43 16.9431 36.0661 16.8659 35.6692 16.8659C35.2723 16.8659 34.9746 16.9431 34.7541 17.0975C34.5225 17.2518 34.4123 17.4723 34.4123 17.759C34.4123 17.9134 34.4454 18.0346 34.5225 18.1449C34.5997 18.2552 34.71 18.3434 34.8423 18.4316C34.9746 18.5198 35.14 18.597 35.3164 18.6741C35.5038 18.7513 35.6913 18.8285 35.9118 18.9277L37.1797 19.4459C37.7861 19.6885 38.2602 20.0193 38.613 20.4493C38.9659 20.8793 39.1313 21.4305 39.1313 22.1362C39.1313 22.5552 39.043 22.9411 38.8777 23.3159C38.7123 23.6798 38.4697 24.0105 38.15 24.2862C37.8302 24.5618 37.4443 24.7823 36.9702 24.9477C36.8326 24.9969 36.6892 25.0392 36.5402 25.0744V25.9621C36.5402 26.3213 36.2489 26.6126 35.8897 26.6126H35.4487C35.0894 26.6126 34.7981 26.3213 34.7981 25.9621V25.1674C34.351 25.1166 33.9075 25.0091 33.4641 24.8485C32.9238 24.65 32.4387 24.3744 31.9977 24.0105C31.8543 23.8893 31.8323 23.6687 31.9536 23.5254L32.7915 22.5111H32.8356C32.9569 22.3677 33.1664 22.3457 33.3097 22.467C33.5964 22.6764 33.8941 22.8529 34.2248 22.9962C34.6548 23.1836 35.0738 23.2829 35.4928 23.2829C35.9559 23.2829 36.3087 23.1946 36.5292 23.0293C36.7607 22.8529 36.871 22.6213 36.871 22.3346C36.871 22.1803 36.8379 22.048 36.7718 21.9377C36.7056 21.8275 36.6064 21.7282 36.4851 21.64C36.3638 21.5518 36.2095 21.4746 36.033 21.3975C35.9719 21.3707 35.9081 21.344 35.8421 21.3163L35.8421 21.3163C35.7177 21.2641 35.5855 21.2087 35.4487 21.1439L34.1587 20.5926C33.9051 20.4934 33.6625 20.3611 33.42 20.1957C33.1774 20.0303 32.9679 19.8429 32.7805 19.6223C32.593 19.4018 32.4497 19.1482 32.3284 18.8616C32.2182 18.5749 32.163 18.2441 32.163 17.8803C32.163 17.4723 32.2513 17.0975 32.4166 16.7336C32.593 16.3698 32.8356 16.0611 33.1443 15.7964C33.453 15.5318 33.8279 15.3223 34.2579 15.168C34.4309 15.1059 34.6109 15.0563 34.7981 15.0192V14.1867C34.7981 13.8274 35.0894 13.5362 35.4487 13.5362Z" fill="#2EB7FF" fill-rule="evenodd" />
	<path d="M20.6409 3.08386H12.5261C11.8014 3.08386 11.214 3.66882 11.214 4.3904C11.214 5.11198 11.8014 5.69694 12.5261 5.69694H20.6409C21.3656 5.69694 21.953 5.11198 21.953 4.3904C21.953 3.66882 21.3656 3.08386 20.6409 3.08386Z" fill="#0011A8" />
</svg>