<svg fill="none" height="48" viewBox="0 0 48 48" width="48" xmlns="http://www.w3.org/2000/svg">
	<g clip-path="url(#clip0_515_7421)">
		<mask fill="white" id="path-1-inside-1_515_7421">
			<path d="M42.7051 14H35C33.8954 14 33 14.8954 33 16V29.5769H48V19.1106C48 18.5602 47.7732 18.0341 47.3729 17.6563L44.078 14.5457C43.7068 14.1952 43.2156 14 42.7051 14Z" />
		</mask>
		<path d="M33 29.5769H31V31.5769H33V29.5769ZM48 29.5769V31.5769H50V29.5769H48ZM44.078 14.5457L45.451 13.0914L45.451 13.0914L44.078 14.5457ZM47.3729 17.6563L48.7459 16.202L48.7459 16.202L47.3729 17.6563ZM35 16H42.7051V12H35V16ZM35 29.5769V16H31V29.5769H35ZM46 19.1106V29.5769H50V19.1106H46ZM48 27.5769H33V31.5769H48V27.5769ZM42.7051 16L46 19.1106L48.7459 16.202L45.451 13.0914L42.7051 16ZM50 19.1106C50 18.0098 49.5463 16.9576 48.7459 16.202L46 19.1106V19.1106H50ZM42.7051 16L42.7051 16L45.451 13.0914C44.7085 12.3905 43.7261 12 42.7051 12V16ZM35 12C32.7909 12 31 13.7909 31 16H35V16V12Z" fill="#0011A8" mask="url(#path-1-inside-1_515_7421)" />
		<circle cx="10.5" cy="36.5" r="3.5" stroke="#0011A8" stroke-width="2" />
		<circle cx="38.5" cy="36.5" r="3.5" stroke="#0011A8" stroke-width="2" />
		<path d="M43.833 20.3509L41.3423 18.127C41.2506 18.0452 41.1321 18 41.0093 18H37.5C37.2239 18 37 18.2239 37 18.5V22.5C37 22.7761 37.2239 23 37.5 23H43.5C43.7761 23 44 22.7761 44 22.5V20.7239C44 20.5814 43.9393 20.4458 43.833 20.3509Z" fill="#2EB7FF" />
		<path clip-rule="evenodd" d="M3.45846 8C2.10069 8 1 9.13651 1 10.5385V29.5769H31.7308V10.5385C31.7308 9.13651 30.6301 8 29.2723 8H3.45846ZM16.98 24.5C19.0166 24.5 20.6676 22.7952 20.6676 20.6923C20.6676 19.6202 20.0287 18.6516 19.2394 17.4551C18.4805 16.3046 17.5825 14.9434 16.98 13.0769C16.3774 14.9434 15.4794 16.3046 14.7205 17.4551C13.9312 18.6516 13.2923 19.6202 13.2923 20.6923C13.2923 22.7952 14.9433 24.5 16.98 24.5Z" fill="#2EB7FF" fill-rule="evenodd" />
		<path clip-rule="evenodd" d="M29.52 8.29412H3.48C2.79517 8.29412 2.24 8.87351 2.24 9.58824V27.7059H30.76V9.58824C30.76 8.87351 30.2048 8.29412 29.52 8.29412ZM3.48 7C2.11033 7 1 8.15879 1 9.58824V29H32V9.58824C32 8.15879 30.8897 7 29.52 7H3.48Z" fill="#0011A8" fill-rule="evenodd" stroke="#0011A8" />
		<path clip-rule="evenodd" d="M2 30H47V34.5C47 35.0523 46.5523 35.5 46 35.5H41.9831C42.0754 35.8169 42.125 36.1525 42.125 36.5H46C47.1046 36.5 48 35.6046 48 34.5V30V29H47H2H1V30V34.5C1 35.6046 1.89543 36.5 3 36.5H7.21394H7.25648C7.22849 36.3119 7.21398 36.1193 7.21398 35.9232C7.21398 35.7801 7.2217 35.6389 7.23674 35.5H7.21394H3C2.44772 35.5 2 35.0523 2 34.5V30ZM35.4128 35.5C35.3204 35.8169 35.2708 36.1525 35.2708 36.5H15.2921H14.6282C14.6562 36.3119 14.6707 36.1193 14.6707 35.9232C14.6707 35.7801 14.663 35.6389 14.6479 35.5H15.2921H35.4128Z" fill="#0011A8" fill-rule="evenodd" />
		<path d="M47 30H47.5V29.5H47V30ZM2 30V29.5H1.5V30H2ZM41.9831 35.5V35H41.3166L41.503 35.6399L41.9831 35.5ZM42.125 36.5H41.625V37H42.125V36.5ZM48 29H48.5V28.5H48V29ZM1 29V28.5H0.5V29H1ZM7.25648 36.5V37H7.83639L7.75104 36.4264L7.25648 36.5ZM7.23674 35.5L7.73384 35.5538L7.7938 35H7.23674V35.5ZM35.2708 36.5V37H35.7708V36.5H35.2708ZM35.4128 35.5L35.8928 35.6399L36.0793 35H35.4128V35.5ZM14.6282 36.5L14.1336 36.4264L14.0483 37H14.6282V36.5ZM14.6479 35.5V35H14.0909L14.1508 35.5538L14.6479 35.5ZM47 29.5H2V30.5H47V29.5ZM47.5 34.5V30H46.5V34.5H47.5ZM46 36C46.8284 36 47.5 35.3284 47.5 34.5H46.5C46.5 34.7761 46.2761 35 46 35V36ZM41.9831 36H46V35H41.9831V36ZM41.503 35.6399C41.5823 35.9117 41.625 36.2003 41.625 36.5H42.625C42.625 36.1048 42.5686 35.722 42.4631 35.3601L41.503 35.6399ZM46 36H42.125V37H46V36ZM47.5 34.5C47.5 35.3284 46.8284 36 46 36V37C47.3807 37 48.5 35.8807 48.5 34.5H47.5ZM47.5 30V34.5H48.5V30H47.5ZM47.5 29V30H48.5V29H47.5ZM47 29.5H48V28.5H47V29.5ZM2 29.5H47V28.5H2V29.5ZM1 29.5H2V28.5H1V29.5ZM1.5 30V29H0.5V30H1.5ZM1.5 34.5V30H0.5V34.5H1.5ZM3 36C2.17157 36 1.5 35.3284 1.5 34.5H0.5C0.5 35.8807 1.61929 37 3 37V36ZM7.21394 36H3V37H7.21394V36ZM7.25648 36H7.21394V37H7.25648V36ZM6.71398 35.9232C6.71398 36.144 6.73032 36.3612 6.76193 36.5736L7.75104 36.4264C7.72666 36.2626 7.71398 36.0946 7.71398 35.9232H6.71398ZM6.73965 35.4462C6.72267 35.603 6.71398 35.7621 6.71398 35.9232H7.71398C7.71398 35.7981 7.72073 35.6749 7.73384 35.5538L6.73965 35.4462ZM7.21394 36H7.23674V35H7.21394V36ZM3 36H7.21394V35H3V36ZM1.5 34.5C1.5 35.3284 2.17157 36 3 36V35C2.72386 35 2.5 34.7761 2.5 34.5H1.5ZM1.5 30V34.5H2.5V30H1.5ZM35.7708 36.5C35.7708 36.2003 35.8136 35.9117 35.8928 35.6399L34.9327 35.3601C34.8273 35.722 34.7708 36.1048 34.7708 36.5H35.7708ZM15.2921 37H35.2708V36H15.2921V37ZM14.6282 37H15.2921V36H14.6282V37ZM14.1707 35.9232C14.1707 36.0946 14.158 36.2626 14.1336 36.4264L15.1228 36.5736C15.1544 36.3612 15.1707 36.144 15.1707 35.9232H14.1707ZM14.1508 35.5538C14.164 35.6749 14.1707 35.7981 14.1707 35.9232H15.1707C15.1707 35.7621 15.162 35.603 15.145 35.4462L14.1508 35.5538ZM15.2921 35H14.6479V36H15.2921V35ZM35.4128 35H15.2921V36H35.4128V35Z" fill="#0011A8" />
	</g>
	<defs>
		<clipPath id="clip0_515_7421">
			<rect fill="white" height="48" width="48" />
		</clipPath>
	</defs>
</svg>