<svg fill="none" viewBox="0 0 40.920082 38.078156" xmlns="http://www.w3.org/2000/svg">
	<path clip-rule="evenodd" d="M11.022538 4.5844097c4.75407-6.66725 17.97256-5.73963 25.10366.69571 13.4504 12.1169803-4.0003 41.9746753-20.34959 30.0315753-.40597-.2898-.81178-.5797-1.2176-.9276C9.3991279 29.92 5.2247979 23.6006 9.6310179 7.4832197c.28987-1.10155.8116401-2.02917 1.3915201-2.89881z" fill="#1aa0e8" fill-rule="evenodd" />
	<path clip-rule="evenodd" d="M11.022398 4.5843097c13.7403-5.62367 30.9592 7.8847503 17.5667 22.9005903-3.1307 3.4785-8.0007 6.551295-12.8127 7.826695-3.4785.9276-6.9570801.8697-9.6819101-.6957-6.55132007-3.652495-8.17466-16.639095-3.13073-23.596245 2.31902-3.1307103 5.10191-5.2178503 8.0586401-6.4353403Z" fill="#0b63ce" fill-rule="evenodd" />
	<path d="M28.589198 27.4849c13.3925-15.01584-3.8264-28.5242603-17.56677-22.9005903-.57976.86965-1.1015401 1.79726-1.3914201 2.89881C5.2248279 23.6005 9.3990979 29.9199 14.558978 34.383995c.40583.3479.81166.6378 1.21749.9276 4.81203-1.2754 9.68203-4.348195 12.81273-7.826695z" fill="#134194" />
</svg>