<?xml version="1.0"?>
<!-- Generator: Adobe Illustrator 22.1.0, SVG Export Plug-In . SVG Version: 6.00 Build 0) -->

<svg
	id="Layer_1"
	style="enable-background:new 0 0 297 94;"
	version="1.1"
	viewBox="0 0 297 94"
	x="0px"
	xml:space="preserve"
	xmlns="http://www.w3.org/2000/svg"
	xmlns:xlink="http://www.w3.org/1999/xlink"
	y="0px"
>
	<style type="text/css">
	.st0{fill:none;}
	.st1{fill:#0B63CE;}
	.st2{fill:#101820;}
	</style>
	<g>
		<path class="st0" d="M61,54h-6c-0.6,0-1,0.4-1,1v6c0,0.6,0.4,1,1,1h6c0.6,0,1-0.4,1-1v-6C62,54.4,61.6,54,61,54z" />
		<path class="st0" d="M41,24h-6c-0.6,0-1,0.4-1,1v6c0,0.6,0.4,1,1,1h6c0.6,0,1-0.4,1-1v-6C42,24.4,41.6,24,41,24z" />
		<path class="st0" d="M41,54h-6c-0.6,0-1,0.4-1,1v6c0,0.6,0.4,1,1,1h6c0.6,0,1-0.4,1-1v-6C42,54.4,41.6,54,41,54z" />
		<path class="st0" d="M51,44h-6c-0.6,0-1,0.4-1,1v6c0,0.6,0.4,1,1,1h6c0.6,0,1-0.4,1-1v-6C52,44.4,51.6,44,51,44z" />
		<path class="st0" d="M61,34h-6c-0.6,0-1,0.4-1,1v6c0,0.6,0.4,1,1,1h6c0.6,0,1-0.4,1-1v-6C62,34.4,61.6,34,61,34z" />
		<path class="st0" d="M31,34h-6c-0.6,0-1,0.4-1,1v6c0,0.6,0.4,1,1,1h6c0.6,0,1-0.4,1-1v-6C32,34.4,31.6,34,31,34z" />
		<path class="st1" d="M66,16H20c-2.2,0-4,1.8-4,4v46c0,2.2,1.8,4,4,4h46c2.2,0,4-1.8,4-4V20C70,17.8,68.2,16,66,16z M32,51
		c0,0.6-0.4,1-1,1h-6c-0.6,0-1-0.4-1-1v-6c0-0.6,0.4-1,1-1h6c0.6,0,1,0.4,1,1V51z M32,41c0,0.6-0.4,1-1,1h-6c-0.6,0-1-0.4-1-1v-6
		c0-0.6,0.4-1,1-1h6c0.6,0,1,0.4,1,1V41z M32,31c0,0.6-0.4,1-1,1h-6c-0.6,0-1-0.4-1-1v-6c0-0.6,0.4-1,1-1h6c0.6,0,1,0.4,1,1V31z
		 M42,61c0,0.6-0.4,1-1,1h-6c-0.6,0-1-0.4-1-1v-6c0-0.6,0.4-1,1-1h6c0.6,0,1,0.4,1,1V61z M42,41c0,0.6-0.4,1-1,1h-6
		c-0.6,0-1-0.4-1-1v-6c0-0.6,0.4-1,1-1h6c0.6,0,1,0.4,1,1V41z M42,31c0,0.6-0.4,1-1,1h-6c-0.6,0-1-0.4-1-1v-6c0-0.6,0.4-1,1-1h6
		c0.6,0,1,0.4,1,1V31z M52,61c0,0.6-0.4,1-1,1h-6c-0.6,0-1-0.4-1-1v-6c0-0.6,0.4-1,1-1h6c0.6,0,1,0.4,1,1V61z M52,51
		c0,0.6-0.4,1-1,1h-6c-0.6,0-1-0.4-1-1v-6c0-0.6,0.4-1,1-1h6c0.6,0,1,0.4,1,1V51z M52,31c0,0.6-0.4,1-1,1h-6c-0.6,0-1-0.4-1-1v-6
		c0-0.6,0.4-1,1-1h6c0.6,0,1,0.4,1,1V31z M62,61c0,0.6-0.4,1-1,1h-6c-0.6,0-1-0.4-1-1v-6c0-0.6,0.4-1,1-1h6c0.6,0,1,0.4,1,1V61z
		 M62,51c0,0.6-0.4,1-1,1h-6c-0.6,0-1-0.4-1-1v-6c0-0.6,0.4-1,1-1h6c0.6,0,1,0.4,1,1V51z M62,41c0,0.6-0.4,1-1,1h-6
		c-0.6,0-1-0.4-1-1v-6c0-0.6,0.4-1,1-1h6c0.6,0,1,0.4,1,1V41z"/>
</g>
			<path class="st2" d="M114.4,65.3H90.7v-49c0-0.3-0.2-0.5-0.5-0.5h-3.7c-0.3,0-0.5,0.2-0.5,0.5v52.6c0,0.3,0.2,0.5,0.5,0.5h27.9
	c0.3,0,0.5-0.2,0.5-0.5v-3.2C114.9,65.5,114.7,65.3,114.4,65.3z"/>
<path class="st2" d="M149.5,30.1h-8.4v-7.8c0-5.5,1.8-8.2,5.5-8.2c1.5,0,3,0.4,4.4,1c0.1,0.1,0.3,0.1,0.4,0l0.3-0.3l1-2.9
	c0.1-0.2,0-0.5-0.3-0.6c-1.9-0.8-4-1.3-5.8-1.3c-6.4,0-10,4.3-10,12v8.1l-4.8,0.3c-0.3,0-0.5,0.2-0.5,0.5v2.7c0,0.3,0.2,0.5,0.5,0.5
	h4.8v34.8c0,0.3,0.2,0.5,0.5,0.5h3.5c0.3,0,0.5-0.2,0.5-0.5V34.1h8.4c0.3,0,0.5-0.2,0.5-0.5v-3.1C150,30.3,149.8,30.1,149.5,30.1
	L149.5,30.1z"/>
<path class="st2" d="M167.7,29.1c-8.3,0-17.2,7.3-17.2,20.7c0,12.1,7.5,20.6,18.2,20.6c5.7,0,9.2-1.9,12.4-3.8
	c0.2-0.1,0.3-0.4,0.2-0.7l-1.5-2.7c-0.1-0.1-0.2-0.2-0.3-0.2s-0.3,0-0.4,0.1c-3.2,2.3-6.4,3.3-10,3.3c-8.1,0-13.6-6.3-13.9-15.6
	h27.1c0.2,0,0.4-0.2,0.5-0.4c0.2-1,0.2-2.1,0.2-3C182.8,35.9,177.2,29.1,167.7,29.1z M155.1,46.8c0.9-8.1,6-13.7,12.6-13.7
	c6.9,0,10.7,4.9,10.8,13.7H155.1L155.1,46.8z"/>
<path class="st2" d="M208.4,30c-1.2-0.6-2.4-0.8-4-0.8c-4,0-7.8,2.5-10.7,7.2l-0.3-5.8c0-0.3-0.2-0.5-0.5-0.5h-3
	c-0.3,0-0.5,0.2-0.5,0.5V69c0,0.3,0.2,0.5,0.5,0.5h3.5c0.3,0,0.5-0.2,0.5-0.5V43c2.4-6,6.1-9.5,10-9.5c1.4,0,2,0.2,3.3,0.6h0.4
	c0.1-0.1,0.2-0.2,0.2-0.3l0.8-3.2C208.7,30.3,208.6,30.1,208.4,30z"/>
<path class="st2" d="M240,30.1h-3.1c-0.3,0-0.5,0.2-0.5,0.5l-0.2,2.9c-3.3-2.6-6.5-4.3-11.1-4.3c-10.2,0-17.5,8.7-17.5,20.7
	c0,12.9,6.1,20.6,16.4,20.6c4.2,0,8.4-1.9,12.3-5.5l0.3,4.1c0,0.3,0.2,0.5,0.5,0.5h3c0.3,0,0.5-0.2,0.5-0.5V30.6
	C240.5,30.3,240.3,30.1,240,30.1L240,30.1z M236,37.9v22.3c-4.1,4.2-7.7,6-11.5,6c-7.6,0-12.2-6.2-12.2-16.5c0-9.3,5.7-16.6,13-16.6
	C229.1,33.2,232.3,34.6,236,37.9z"/>
<path class="st2" d="M278.2,30.3c-0.1-0.1-0.2-0.2-0.4-0.2h-3.6c-0.2,0-0.4,0.1-0.5,0.3l-8.2,24.1c-0.4,1.3-0.9,2.7-1.3,4.1
	c-0.6,2-1.3,4-1.9,5.8c-0.8-2-1.6-4.2-2.4-6.3c-0.5-1.3-1-2.5-1.4-3.7l-9.2-24.1c-0.1-0.2-0.3-0.3-0.5-0.3H245
	c-0.2,0-0.3,0.1-0.4,0.2c-0.1,0.1-0.1,0.3,0,0.5l15.7,38.9l-1,3.2c-1.5,4.5-4.3,9.8-9.4,9.8c-1,0-2.2-0.3-3-0.6h-0.4l-0.3,0.3
	l-0.8,3.1c-0.1,0.2,0.1,0.5,0.3,0.6c1.1,0.5,2.7,0.8,4.1,0.8c5.9,0,10.5-4.5,13.4-13l15.1-43.2C278.4,30.6,278.3,30.4,278.2,30.3
	L278.2,30.3z"/>
<path class="st2" d="M124.4,21.4c0.6,0,1.1-0.5,1.1-1.1v-3.6c0-0.6-0.5-1.1-1.1-1.1h-3.6c-0.6,0-1.1,0.5-1.1,1.1v3.6
	c0,0.6,0.5,1.1,1.1,1.1H124.4z M120.8,30.1h3.5c0.3,0,0.5,0.2,0.5,0.5V69c0,0.3-0.2,0.5-0.5,0.5h-3.5c-0.3,0-0.5-0.2-0.5-0.5V30.6
	C120.3,30.3,120.5,30.1,120.8,30.1z"/>
</svg>