<svg fill="none" height="56" viewBox="0 0 114 56" width="114" xmlns="http://www.w3.org/2000/svg">
	<path d="M24.5082 8.37018L8.65091 14.1142C6.70316 14.8198 5.70071 16.9593 6.40964 18.8977L16.6702 46.954C17.3792 48.8924 19.5289 49.8901 21.4767 49.1845L42.6197 41.5258C44.5675 40.8203 45.5699 38.6808 44.861 36.7423L36.5243 13.9466L24.5082 8.37018Z" fill="#F7F8F9" />
	<path d="M24.5082 8.37018L8.65091 14.1142C6.70316 14.8198 5.70071 16.9593 6.40964 18.8977L16.6702 46.954C17.3792 48.8924 19.5289 49.8901 21.4767 49.1845L42.6197 41.5258C44.5675 40.8203 45.5699 38.6808 44.861 36.7423L36.5243 13.9466L24.5082 8.37018ZM28.8418 36.5876L20.0321 39.7787L19.3909 38.0252L28.2005 34.8341L28.8418 36.5876ZM35.7275 28.1359L18.1083 34.5182L17.467 32.7647L35.0862 26.3824L35.7275 28.1359ZM33.8037 22.8754L16.1844 29.2576L15.5431 27.5041L33.1624 21.1219L33.8037 22.8754Z" fill="#80ACFF" />
	<path d="M100.063 14.8676L84.206 9.12356C82.2583 8.41802 80.1085 9.41568 79.3996 11.3541L69.139 39.4104C68.4301 41.3488 69.4325 43.4883 71.3803 44.1939L92.5233 51.8526C94.4711 52.5581 96.6208 51.5605 97.3298 49.622L105.666 26.8263L100.063 14.8676Z" fill="#F7F8F9" />
	<path clip-rule="evenodd" d="M84.206 9.12356L100.063 14.8676L105.666 26.8263L97.3298 49.622C96.6208 51.5605 94.4711 52.5582 92.5233 51.8526L71.3803 44.1939C69.4325 43.4883 68.4301 41.3489 69.139 39.4104L79.3996 11.3541C80.1085 9.41568 82.2583 8.41802 84.206 9.12356ZM75.7073 37.818L93.3266 44.2003L98.4569 30.1722L80.8376 23.7899L75.7073 37.818ZM81.3153 27.9346L86.601 29.8492L83.3946 38.6168L78.1088 36.7021L81.3153 27.9346ZM86.4374 35.7472L93.4851 38.3001L92.2026 41.8071L85.1549 39.2542L86.4374 35.7472ZM95.4089 33.0398L88.3612 30.4868L87.0787 33.9939L94.1263 36.5468L95.4089 33.0398Z" fill="#80ACFF" fill-rule="evenodd" />
	<path d="M64.8761 1.74164L41.2511 1.74164C38.3492 1.74164 36.0011 4.07858 36.0011 6.96659L36.0011 48.7662C36.0011 51.6542 38.3492 53.9911 41.2511 53.9911L72.7511 53.9911C75.6529 53.9911 78.0011 51.6542 78.0011 48.7662L78.0011 14.804L64.8761 1.74164Z" fill="#F7F8F9" />
	<path d="M64.8761 1.74164L41.2511 1.74164C38.3492 1.74164 36.0011 4.07858 36.0011 6.96659L36.0011 48.7662C36.0011 51.6542 38.3492 53.9911 41.2511 53.9911L72.7511 53.9911C75.6529 53.9911 78.0011 51.6542 78.0011 48.7662L78.0011 14.804L64.8761 1.74164ZM49.1261 22.6414C50.5719 22.6414 51.7511 23.815 51.7511 25.2539C51.7511 26.6928 50.5719 27.8664 49.1261 27.8664C47.6803 27.8664 46.5011 26.6928 46.5011 25.2539C46.5011 23.815 47.6803 22.6414 49.1261 22.6414ZM43.8761 40.9287L51.7511 30.4788L57.0011 35.7038L62.2511 27.8664L70.1261 40.9287L43.8761 40.9287Z" fill="#0B5FFF" />
</svg>